<?xml version="1.0" standalone="no"?>
 <!DOCTYPE svg PUBLIC "-//W3C//DTD SVG 1.1//EN" 
 "http://www.w3.org/Graphics/SVG/1.1/DTD/svg11.dtd"> 
<svg xmlns:svg="http://www.w3.org/2000/svg" xmlns="http://www.w3.org/2000/svg" xmlns:xlink="http://www.w3.org/1999/xlink" version="1.1" width="100%" height="100%" viewBox="0.0000 0.0000 17.5768 17.6022" preserveAspectRatio="xMidYMid meet"><rect width="100%" height="100%" fill="black"/>
<title>SVG Image created as SW_Gateron_LowProfile_HotSwap_PTH.svg date 2025/11/03 22:13:35 </title>
  <desc>Image generated by PCBNEW </desc>
<g style="fill:#000000; fill-opacity:1.0000;stroke:#000000; stroke-opacity:1.0000;
stroke-linecap:round; stroke-linejoin:round;" transform="translate(0 0) scale(1 1)">
<path style="fill:#4D7FC4; fill-opacity:1.0000; stroke:none;fill-rule:evenodd;" d="M 0.0000,13.2732
0.0114,13.1670
0.0612,13.0336
0.1464,12.9197
0.2604,12.8344
0.3937,12.7847
0.5000,12.7732
2.0000,12.7732
2.1063,12.7847
2.2396,12.8344
2.3536,12.9197
2.4388,13.0336
2.4886,13.1670
2.5000,13.2732
2.5000,14.8232
2.4886,14.9295
2.4388,15.0629
2.3536,15.1768
2.2396,15.2621
2.1063,15.3118
2.0000,15.3232
0.5000,15.3232
0.3937,15.3118
0.2604,15.2621
0.1464,15.1768
0.0612,15.0629
0.0114,14.9295
0.0000,14.8232
Z"/> 
<path style="fill:#4D7FC4; fill-opacity:1.0000; stroke:none;fill-rule:evenodd;" d="M 1.0250,14.5482
1.0250,13.5482
4.9250,13.5482
4.9250,14.5482
Z"/> 
</g>
<g style="fill:#4D7FC4; fill-opacity:1.0000; stroke:none;">
<circle cx="4.9250" cy="14.0482" r="2.0000"/> 
</g>
<g style="fill:#4D7FC4; fill-opacity:1.0000; stroke:none;">
<circle cx="11.9250" cy="15.0983" r="2.0000"/> 
<path style="fill:#4D7FC4; fill-opacity:1.0000; stroke:none;fill-rule:evenodd;" d="M 11.9250,15.5983
11.9250,14.5983
15.6750,14.5983
15.6750,15.5983
Z"/> 
<path style="fill:#4D7FC4; fill-opacity:1.0000; stroke:none;fill-rule:evenodd;" d="M 14.3500,14.3232
14.3614,14.2170
14.4112,14.0836
14.4964,13.9697
14.6104,13.8844
14.7437,13.8347
14.8500,13.8232
16.3500,13.8232
16.4563,13.8347
16.5896,13.8844
16.7036,13.9697
16.7888,14.0836
16.8386,14.2170
16.8500,14.3232
16.8500,15.8732
16.8386,15.9795
16.7888,16.1129
16.7036,16.2268
16.5896,16.3121
16.4563,16.3618
16.3500,16.3732
14.8500,16.3732
14.7437,16.3618
14.6104,16.3121
14.4964,16.2268
14.4112,16.1129
14.3614,15.9795
14.3500,15.8732
Z"/> 
</g>
<g style="fill:#02FFEE; fill-opacity:0.4000; stroke:none;">
<circle cx="9.3250" cy="9.3483" r="2.6250"/> 
<path style="fill:#02FFEE; fill-opacity:0.4000; stroke:none;fill-rule:evenodd;" d="M 0.0000,13.2732
0.0114,13.1670
0.0612,13.0336
0.1464,12.9197
0.2604,12.8344
0.3937,12.7847
0.5000,12.7732
2.0000,12.7732
2.1063,12.7847
2.2396,12.8344
2.3536,12.9197
2.4388,13.0336
2.4886,13.1670
2.5000,13.2732
2.5000,14.8232
2.4886,14.9295
2.4388,15.0629
2.3536,15.1768
2.2396,15.2621
2.1063,15.3118
2.0000,15.3232
0.5000,15.3232
0.3937,15.3118
0.2604,15.2621
0.1464,15.1768
0.0612,15.0629
0.0114,14.9295
0.0000,14.8232
Z"/> 
</g>
<g style="fill:#02FFEE; fill-opacity:0.4000; stroke:none;">
<circle cx="4.9250" cy="14.0482" r="2.0000"/> 
</g>
<g style="fill:#02FFEE; fill-opacity:0.4000; stroke:none;">
<circle cx="11.9250" cy="15.0983" r="2.0000"/> 
<path style="fill:#02FFEE; fill-opacity:0.4000; stroke:none;fill-rule:evenodd;" d="M 14.3500,14.3232
14.3614,14.2170
14.4112,14.0836
14.4964,13.9697
14.6104,13.8844
14.7437,13.8347
14.8500,13.8232
16.3500,13.8232
16.4563,13.8347
16.5896,13.8844
16.7036,13.9697
16.7888,14.0836
16.8386,14.2170
16.8500,14.3232
16.8500,15.8732
16.8386,15.9795
16.7888,16.1129
16.7036,16.2268
16.5896,16.3121
16.4563,16.3618
16.3500,16.3732
14.8500,16.3732
14.7437,16.3618
14.6104,16.3121
14.4964,16.2268
14.4112,16.1129
14.3614,15.9795
14.3500,15.8732
Z"/> 
<path style="fill:#00C2C2; fill-opacity:0.9000; stroke:none;fill-rule:evenodd;" d="M 0.0000,13.2732
0.0114,13.1670
0.0612,13.0336
0.1464,12.9197
0.2604,12.8344
0.3937,12.7847
0.5000,12.7732
2.0000,12.7732
2.1063,12.7847
2.2396,12.8344
2.3536,12.9197
2.4388,13.0336
2.4886,13.1670
2.5000,13.2732
2.5000,14.8232
2.4886,14.9295
2.4388,15.0629
2.3536,15.1768
2.2396,15.2621
2.1063,15.3118
2.0000,15.3232
0.5000,15.3232
0.3937,15.3118
0.2604,15.2621
0.1464,15.1768
0.0612,15.0629
0.0114,14.9295
0.0000,14.8232
Z"/> 
<path style="fill:#00C2C2; fill-opacity:0.9000; stroke:none;fill-rule:evenodd;" d="M 14.3500,14.3232
14.3614,14.2170
14.4112,14.0836
14.4964,13.9697
14.6104,13.8844
14.7437,13.8347
14.8500,13.8232
16.3500,13.8232
16.4563,13.8347
16.5896,13.8844
16.7036,13.9697
16.7888,14.0836
16.8386,14.2170
16.8500,14.3232
16.8500,15.8732
16.8386,15.9795
16.7888,16.1129
16.7036,16.2268
16.5896,16.3121
16.4563,16.3618
16.3500,16.3732
14.8500,16.3732
14.7437,16.3618
14.6104,16.3121
14.4964,16.2268
14.4112,16.1129
14.3614,15.9795
14.3500,15.8732
Z"/> 
</g>
<g style="fill:none; 
stroke:#E8B2A7; stroke-width:0.1200; stroke-opacity:1; 
stroke-linecap:round; stroke-linejoin:round;">
<path d="M2.3250 11.6982
L2.3250 12.6482
"/>
<path d="M2.3250 11.6982
L4.3250 11.6982
"/>
<path d="M2.3250 16.3983
L2.3250 15.4482
"/>
<path d="M2.3250 16.3983
L4.3250 16.3983
"/>
<path d="M14.5250 12.7482
L12.8250 12.7482
"/>
<path d="M14.5250 12.7482
L14.5250 13.6982
"/>
<path d="M14.5250 17.4482
L12.8250 17.4482
"/>
<path d="M14.5250 17.4482
L14.5250 16.5482
"/>
</g>
<g style="fill:none; 
stroke:#585D84; stroke-width:0.1000; stroke-opacity:1; 
stroke-linecap:round; stroke-linejoin:round;">
<path d="M2.5100 11.8732
L2.5100 16.2233
"/>
<path d="M2.5100 11.8732
L6.7300 11.8732
"/>
<path d="M2.5100 16.2233
L6.7300 16.2233
"/>
<path d="M6.7300 11.8732
L8.9300 12.9232
"/>
<path d="M6.7300 16.2233
L8.9300 17.2733
"/>
<path d="M8.9300 17.0482
L8.9300 17.2733
"/>
<path d="M9.7300 17.0482
L8.9300 17.0482
"/>
<path d="M9.7300 17.2733
L9.7300 17.0482
"/>
<path d="M14.3500 12.9232
L8.9300 12.9232
"/>
<path d="M14.3500 12.9232
L14.3500 17.2733
"/>
<path d="M14.3500 17.2733
L9.7300 17.2733
"/>
</g>
<g style="fill:#F2EDA1; fill-opacity:1.0000; stroke:none;">
<circle cx="4.9250" cy="14.0482" r="2.0000"/> 
</g>
<g style="fill:#F2EDA1; fill-opacity:1.0000; stroke:none;">
<circle cx="11.9250" cy="15.0983" r="2.0000"/> 
</g>
<g style="fill:#E8B2A7; fill-opacity:1.0000; stroke:none;">
<circle cx="4.9250" cy="14.0482" r="2.0000"/> 
</g>
<g style="fill:#E8B2A7; fill-opacity:1.0000; stroke:none;">
<circle cx="11.9250" cy="15.0983" r="2.0000"/> 
</g>
<g style="fill:#28CCD9; fill-opacity:1.0000; stroke:none;">
<circle cx="4.9250" cy="14.0482" r="2.0000"/> 
</g>
<g style="fill:#28CCD9; fill-opacity:1.0000; stroke:none;">
<circle cx="11.9250" cy="15.0983" r="2.0000"/> 
</g>
<g style="fill:#A7A5C6; fill-opacity:1.0000; stroke:none;">
<circle cx="4.9250" cy="14.0482" r="2.0000"/> 
</g>
<g style="fill:#A7A5C6; fill-opacity:1.0000; stroke:none;">
<circle cx="11.9250" cy="15.0983" r="2.0000"/> 
</g>
<g style="fill:#F76F8E; fill-opacity:1.0000; stroke:none;">
<circle cx="4.9250" cy="14.0482" r="2.0000"/> 
</g>
<g style="fill:#F76F8E; fill-opacity:1.0000; stroke:none;">
<circle cx="11.9250" cy="15.0983" r="2.0000"/> 
</g>
<g style="fill:#5BC3EB; fill-opacity:1.0000; stroke:none;">
<circle cx="4.9250" cy="14.0482" r="2.0000"/> 
</g>
<g style="fill:#5BC3EB; fill-opacity:1.0000; stroke:none;">
<circle cx="11.9250" cy="15.0983" r="2.0000"/> 
</g>
<g style="fill:#ED7C33; fill-opacity:1.0000; stroke:none;">
<circle cx="4.9250" cy="14.0482" r="2.0000"/> 
</g>
<g style="fill:#ED7C33; fill-opacity:1.0000; stroke:none;">
<circle cx="11.9250" cy="15.0983" r="2.0000"/> 
</g>
<g style="fill:#F2EDA1; fill-opacity:1.0000; stroke:none;">
<circle cx="4.9250" cy="14.0482" r="2.0000"/> 
</g>
<g style="fill:#F2EDA1; fill-opacity:1.0000; stroke:none;">
<circle cx="11.9250" cy="15.0983" r="2.0000"/> 
</g>
<g style="fill:#E8B2A7; fill-opacity:1.0000; stroke:none;">
<circle cx="4.9250" cy="14.0482" r="2.0000"/> 
</g>
<g style="fill:#E8B2A7; fill-opacity:1.0000; stroke:none;">
<circle cx="11.9250" cy="15.0983" r="2.0000"/> 
</g>
<g style="fill:#28CCD9; fill-opacity:1.0000; stroke:none;">
<circle cx="4.9250" cy="14.0482" r="2.0000"/> 
</g>
<g style="fill:#28CCD9; fill-opacity:1.0000; stroke:none;">
<circle cx="11.9250" cy="15.0983" r="2.0000"/> 
</g>
<g style="fill:#A7A5C6; fill-opacity:1.0000; stroke:none;">
<circle cx="4.9250" cy="14.0482" r="2.0000"/> 
</g>
<g style="fill:#A7A5C6; fill-opacity:1.0000; stroke:none;">
<circle cx="11.9250" cy="15.0983" r="2.0000"/> 
</g>
<g style="fill:#F76F8E; fill-opacity:1.0000; stroke:none;">
<circle cx="4.9250" cy="14.0482" r="2.0000"/> 
</g>
<g style="fill:#F76F8E; fill-opacity:1.0000; stroke:none;">
<circle cx="11.9250" cy="15.0983" r="2.0000"/> 
</g>
<g style="fill:#5BC3EB; fill-opacity:1.0000; stroke:none;">
<circle cx="4.9250" cy="14.0482" r="2.0000"/> 
</g>
<g style="fill:#5BC3EB; fill-opacity:1.0000; stroke:none;">
<circle cx="11.9250" cy="15.0983" r="2.0000"/> 
</g>
<g style="fill:#ED7C33; fill-opacity:1.0000; stroke:none;">
<circle cx="4.9250" cy="14.0482" r="2.0000"/> 
</g>
<g style="fill:#ED7C33; fill-opacity:1.0000; stroke:none;">
<circle cx="11.9250" cy="15.0983" r="2.0000"/> 
</g>
<g style="fill:#F2EDA1; fill-opacity:1.0000; stroke:none;">
<circle cx="4.9250" cy="14.0482" r="2.0000"/> 
</g>
<g style="fill:#F2EDA1; fill-opacity:1.0000; stroke:none;">
<circle cx="11.9250" cy="15.0983" r="2.0000"/> 
</g>
<g style="fill:#E8B2A7; fill-opacity:1.0000; stroke:none;">
<circle cx="4.9250" cy="14.0482" r="2.0000"/> 
</g>
<g style="fill:#E8B2A7; fill-opacity:1.0000; stroke:none;">
<circle cx="11.9250" cy="15.0983" r="2.0000"/> 
</g>
<g style="fill:#28CCD9; fill-opacity:1.0000; stroke:none;">
<circle cx="4.9250" cy="14.0482" r="2.0000"/> 
</g>
<g style="fill:#28CCD9; fill-opacity:1.0000; stroke:none;">
<circle cx="11.9250" cy="15.0983" r="2.0000"/> 
</g>
<g style="fill:#A7A5C6; fill-opacity:1.0000; stroke:none;">
<circle cx="4.9250" cy="14.0482" r="2.0000"/> 
</g>
<g style="fill:#A7A5C6; fill-opacity:1.0000; stroke:none;">
<circle cx="11.9250" cy="15.0983" r="2.0000"/> 
</g>
<g style="fill:#F76F8E; fill-opacity:1.0000; stroke:none;">
<circle cx="4.9250" cy="14.0482" r="2.0000"/> 
</g>
<g style="fill:#F76F8E; fill-opacity:1.0000; stroke:none;">
<circle cx="11.9250" cy="15.0983" r="2.0000"/> 
</g>
<g style="fill:#5BC3EB; fill-opacity:1.0000; stroke:none;">
<circle cx="4.9250" cy="14.0482" r="2.0000"/> 
</g>
<g style="fill:#5BC3EB; fill-opacity:1.0000; stroke:none;">
<circle cx="11.9250" cy="15.0983" r="2.0000"/> 
</g>
<g style="fill:#ED7C33; fill-opacity:1.0000; stroke:none;">
<circle cx="4.9250" cy="14.0482" r="2.0000"/> 
</g>
<g style="fill:#ED7C33; fill-opacity:1.0000; stroke:none;">
<circle cx="11.9250" cy="15.0983" r="2.0000"/> 
</g>
<g style="fill:#8DCB81; fill-opacity:1.0000; stroke:none;">
<circle cx="4.9250" cy="14.0482" r="2.0000"/> 
</g>
<g style="fill:#8DCB81; fill-opacity:1.0000; stroke:none;">
<circle cx="11.9250" cy="15.0983" r="2.0000"/> 
</g>
<g style="fill:#F2EDA1; fill-opacity:1.0000; stroke:none;">
<circle cx="4.9250" cy="14.0482" r="2.0000"/> 
</g>
<g style="fill:#F2EDA1; fill-opacity:1.0000; stroke:none;">
<circle cx="11.9250" cy="15.0983" r="2.0000"/> 
</g>
<g style="fill:#E8B2A7; fill-opacity:1.0000; stroke:none;">
<circle cx="4.9250" cy="14.0482" r="2.0000"/> 
</g>
<g style="fill:#E8B2A7; fill-opacity:1.0000; stroke:none;">
<circle cx="11.9250" cy="15.0983" r="2.0000"/> 
</g>
<g style="fill:#28CCD9; fill-opacity:1.0000; stroke:none;">
<circle cx="4.9250" cy="14.0482" r="2.0000"/> 
</g>
<g style="fill:#28CCD9; fill-opacity:1.0000; stroke:none;">
<circle cx="11.9250" cy="15.0983" r="2.0000"/> 
</g>
<g style="fill:#A7A5C6; fill-opacity:1.0000; stroke:none;">
<circle cx="4.9250" cy="14.0482" r="2.0000"/> 
</g>
<g style="fill:#A7A5C6; fill-opacity:1.0000; stroke:none;">
<circle cx="11.9250" cy="15.0983" r="2.0000"/> 
</g>
<g style="fill:#DB628B; fill-opacity:1.0000; stroke:none;">
<circle cx="4.9250" cy="14.0482" r="2.0000"/> 
</g>
<g style="fill:#DB628B; fill-opacity:1.0000; stroke:none;">
<circle cx="11.9250" cy="15.0983" r="2.0000"/> 
</g>
<g style="fill:#4FCBCB; fill-opacity:1.0000; stroke:none;">
<circle cx="4.9250" cy="14.0482" r="2.0000"/> 
</g>
<g style="fill:#4FCBCB; fill-opacity:1.0000; stroke:none;">
<circle cx="11.9250" cy="15.0983" r="2.0000"/> 
</g>
<g style="fill:#CE7D2C; fill-opacity:1.0000; stroke:none;">
<circle cx="4.9250" cy="14.0482" r="2.0000"/> 
</g>
<g style="fill:#CE7D2C; fill-opacity:1.0000; stroke:none;">
<circle cx="11.9250" cy="15.0983" r="2.0000"/> 
</g>
<g style="fill:#7FC87F; fill-opacity:1.0000; stroke:none;">
<circle cx="4.9250" cy="14.0482" r="2.0000"/> 
</g>
<g style="fill:#7FC87F; fill-opacity:1.0000; stroke:none;">
<circle cx="11.9250" cy="15.0983" r="2.0000"/> 
</g>
<g style="fill:#C83434; fill-opacity:1.0000; stroke:none;">
<circle cx="4.9250" cy="14.0482" r="2.0000"/> 
</g>
<g style="fill:#C83434; fill-opacity:1.0000; stroke:none;">
<circle cx="11.9250" cy="15.0983" r="2.0000"/> 
</g>
<g style="fill:#D864FF; fill-opacity:0.4000; stroke:none;">
<circle cx="9.3250" cy="9.3483" r="2.6250"/> 
</g>
<g style="fill:none; 
stroke:#F2EDA1; stroke-width:0.1400; stroke-opacity:1; 
stroke-linecap:round; stroke-linejoin:round;">
<path d="M2.8250 3.8482
L2.8250 2.8482
"/>
<path d="M2.8250 15.8483
L2.8250 14.8483
"/>
<path d="M2.8250 15.8483
L3.8250 15.8483
"/>
<path d="M3.8250 2.8482
L2.8250 2.8482
"/>
<path d="M14.8250 15.8483
L15.8250 15.8483
"/>
<path d="M15.8250 2.8482
L14.8250 2.8482
"/>
<path d="M15.8250 2.8482
L15.8250 3.8482
"/>
<path d="M15.8250 14.8483
L15.8250 15.8483
"/>
<path style="fill:none; 
stroke:#FF26E2; stroke-width:0.0500; stroke-opacity:1; 
stroke-linecap:round; stroke-linejoin:round;fill:none" d="M 17.5750,1.0982
1.0750,1.0982
1.0750,17.5983
17.5750,17.5983
Z"/> 
</g>
<g style="fill:none; 
stroke:#AFAFAF; stroke-width:0.1500; stroke-opacity:1; 
stroke-linecap:round; stroke-linejoin:round;">
<text x="9.3250" y="1.3482" textLength="4.5357" font-size="1.3333" lengthAdjust="spacingAndGlyphs" text-anchor="middle" opacity="0" stroke-opacity="0">REF**</text>
<g class="stroked-text"><desc>REF**</desc>
<path d="M7.9917 1.3031
L7.6583 0.8269
"/>
<path d="M7.4202 1.3031
L7.4202 0.3031
"/>
<path d="M7.4202 0.3031
L7.8012 0.3031
"/>
<path d="M7.8012 0.3031
L7.8964 0.3507
"/>
<path d="M7.8964 0.3507
L7.9440 0.3983
"/>
<path d="M7.9440 0.3983
L7.9917 0.4935
"/>
<path d="M7.9917 0.4935
L7.9917 0.6364
"/>
<path d="M7.9917 0.6364
L7.9440 0.7316
"/>
<path d="M7.9440 0.7316
L7.8964 0.7793
"/>
<path d="M7.8964 0.7793
L7.8012 0.8269
"/>
<path d="M7.8012 0.8269
L7.4202 0.8269
"/>
<path d="M8.4202 0.7793
L8.7536 0.7793
"/>
<path d="M8.8964 1.3031
L8.4202 1.3031
"/>
<path d="M8.4202 1.3031
L8.4202 0.3031
"/>
<path d="M8.4202 0.3031
L8.8964 0.3031
"/>
<path d="M9.6583 0.7793
L9.3250 0.7793
"/>
<path d="M9.3250 1.3031
L9.3250 0.3031
"/>
<path d="M9.3250 0.3031
L9.8012 0.3031
"/>
<path d="M10.3250 0.3031
L10.3250 0.5412
"/>
<path d="M10.0869 0.4459
L10.3250 0.5412
"/>
<path d="M10.3250 0.5412
L10.5631 0.4459
"/>
<path d="M10.1821 0.7316
L10.3250 0.5412
"/>
<path d="M10.3250 0.5412
L10.4679 0.7316
"/>
<path d="M11.0869 0.3031
L11.0869 0.5412
"/>
<path d="M10.8488 0.4459
L11.0869 0.5412
"/>
<path d="M11.0869 0.5412
L11.3250 0.4459
"/>
<path d="M10.9440 0.7316
L11.0869 0.5412
"/>
<path d="M11.0869 0.5412
L11.2298 0.7316
"/>
</g></g>
<g style="fill:none; 
stroke:#AFAFAF; stroke-width:0.1000; stroke-opacity:1; 
stroke-linecap:round; stroke-linejoin:round;">
<path d="M3.5250 6.8482
L7.4250 6.8483
"/>
<path d="M3.5250 11.8483
L3.5250 6.8482
"/>
<path d="M7.4250 11.8482
L3.5250 11.8483
"/>
<path d="M11.2250 6.8483
L15.1250 6.8482
"/>
<path d="M15.1250 6.8482
L15.1250 11.8483
"/>
<path d="M15.1250 11.8483
L11.2250 11.8482
"/>
<path style="fill:none; 
stroke:#AFAFAF; stroke-width:0.1000; stroke-opacity:1; 
stroke-linecap:round; stroke-linejoin:round;fill:none" d="M 6.1250,3.0482
11.1250,3.0482
11.1250,5.2982
6.1250,5.2982
Z"/> 
<path style="fill:none; 
stroke:#AFAFAF; stroke-width:0.1000; stroke-opacity:1; 
stroke-linecap:round; stroke-linejoin:round;fill:none" d="M 16.8250,1.8482
1.8250,1.8482
1.8250,16.8483
16.8250,16.8483
Z"/> 
<path d="M11.2250 6.8483 A3.1401 3.1401 0.0 0 0 7.4250 6.8483"/>
<path d="M7.4250 11.8482 A3.1401 3.1401 0.0 0 0 11.2250 11.8482"/>
<circle cx="9.3250" cy="9.3483" r="2.8750"/> 
<path style="fill:#AFAFAF; fill-opacity:1.0000; stroke:none;fill-rule:evenodd;" d="M 9.8250,8.7082
11.2750,8.7082
11.2750,9.9882
9.8250,9.9882
9.8250,11.3483
8.7250,11.3483
8.7250,9.9882
7.2750,9.9882
7.2750,8.7082
8.7250,8.7082
8.7250,7.3482
9.8250,7.3482
Z"/> 
</g> 
</svg>
