<?xml version="1.0" standalone="no"?>
 <!DOCTYPE svg PUBLIC "-//W3C//DTD SVG 1.1//EN" 
 "http://www.w3.org/Graphics/SVG/1.1/DTD/svg11.dtd"> 
<svg xmlns:svg="http://www.w3.org/2000/svg" xmlns="http://www.w3.org/2000/svg" xmlns:xlink="http://www.w3.org/1999/xlink" version="1.1" width="100%" height="100%" viewBox="0.0000 0.0000 16.5354 17.6022" preserveAspectRatio="xMidYMid meet"><rect width="100%" height="100%" fill="black"/>
<title>SVG Image created as SW_Gateron_LowProfile_THT.svg date 2025/11/03 22:13:35 </title>
  <desc>Image generated by PCBNEW </desc>
<g style="fill:#000000; fill-opacity:1.0000;stroke:#000000; stroke-opacity:1.0000;
stroke-linecap:round; stroke-linejoin:round;" transform="translate(0 0) scale(1 1)">
</g>
<g style="fill:#4D7FC4; fill-opacity:1.0000; stroke:none;">
<circle cx="3.8750" cy="14.0482" r="1.2500"/> 
</g>
<g style="fill:#4D7FC4; fill-opacity:1.0000; stroke:none;">
<circle cx="10.8750" cy="15.0983" r="1.2500"/> 
</g>
<g style="fill:#02FFEE; fill-opacity:0.4000; stroke:none;">
<circle cx="8.2750" cy="9.3483" r="2.6250"/> 
</g>
<g style="fill:#02FFEE; fill-opacity:0.4000; stroke:none;">
<circle cx="3.8750" cy="14.0482" r="1.2500"/> 
</g>
<g style="fill:#02FFEE; fill-opacity:0.4000; stroke:none;">
<circle cx="10.8750" cy="15.0983" r="1.2500"/> 
</g>
<g style="fill:#F2EDA1; fill-opacity:1.0000; stroke:none;">
<circle cx="3.8750" cy="14.0482" r="1.2500"/> 
</g>
<g style="fill:#F2EDA1; fill-opacity:1.0000; stroke:none;">
<circle cx="10.8750" cy="15.0983" r="1.2500"/> 
</g>
<g style="fill:#E8B2A7; fill-opacity:1.0000; stroke:none;">
<circle cx="3.8750" cy="14.0482" r="1.2500"/> 
</g>
<g style="fill:#E8B2A7; fill-opacity:1.0000; stroke:none;">
<circle cx="10.8750" cy="15.0983" r="1.2500"/> 
</g>
<g style="fill:#28CCD9; fill-opacity:1.0000; stroke:none;">
<circle cx="3.8750" cy="14.0482" r="1.2500"/> 
</g>
<g style="fill:#28CCD9; fill-opacity:1.0000; stroke:none;">
<circle cx="10.8750" cy="15.0983" r="1.2500"/> 
</g>
<g style="fill:#A7A5C6; fill-opacity:1.0000; stroke:none;">
<circle cx="3.8750" cy="14.0482" r="1.2500"/> 
</g>
<g style="fill:#A7A5C6; fill-opacity:1.0000; stroke:none;">
<circle cx="10.8750" cy="15.0983" r="1.2500"/> 
</g>
<g style="fill:#F76F8E; fill-opacity:1.0000; stroke:none;">
<circle cx="3.8750" cy="14.0482" r="1.2500"/> 
</g>
<g style="fill:#F76F8E; fill-opacity:1.0000; stroke:none;">
<circle cx="10.8750" cy="15.0983" r="1.2500"/> 
</g>
<g style="fill:#5BC3EB; fill-opacity:1.0000; stroke:none;">
<circle cx="3.8750" cy="14.0482" r="1.2500"/> 
</g>
<g style="fill:#5BC3EB; fill-opacity:1.0000; stroke:none;">
<circle cx="10.8750" cy="15.0983" r="1.2500"/> 
</g>
<g style="fill:#ED7C33; fill-opacity:1.0000; stroke:none;">
<circle cx="3.8750" cy="14.0482" r="1.2500"/> 
</g>
<g style="fill:#ED7C33; fill-opacity:1.0000; stroke:none;">
<circle cx="10.8750" cy="15.0983" r="1.2500"/> 
</g>
<g style="fill:#F2EDA1; fill-opacity:1.0000; stroke:none;">
<circle cx="3.8750" cy="14.0482" r="1.2500"/> 
</g>
<g style="fill:#F2EDA1; fill-opacity:1.0000; stroke:none;">
<circle cx="10.8750" cy="15.0983" r="1.2500"/> 
</g>
<g style="fill:#E8B2A7; fill-opacity:1.0000; stroke:none;">
<circle cx="3.8750" cy="14.0482" r="1.2500"/> 
</g>
<g style="fill:#E8B2A7; fill-opacity:1.0000; stroke:none;">
<circle cx="10.8750" cy="15.0983" r="1.2500"/> 
</g>
<g style="fill:#28CCD9; fill-opacity:1.0000; stroke:none;">
<circle cx="3.8750" cy="14.0482" r="1.2500"/> 
</g>
<g style="fill:#28CCD9; fill-opacity:1.0000; stroke:none;">
<circle cx="10.8750" cy="15.0983" r="1.2500"/> 
</g>
<g style="fill:#A7A5C6; fill-opacity:1.0000; stroke:none;">
<circle cx="3.8750" cy="14.0482" r="1.2500"/> 
</g>
<g style="fill:#A7A5C6; fill-opacity:1.0000; stroke:none;">
<circle cx="10.8750" cy="15.0983" r="1.2500"/> 
</g>
<g style="fill:#F76F8E; fill-opacity:1.0000; stroke:none;">
<circle cx="3.8750" cy="14.0482" r="1.2500"/> 
</g>
<g style="fill:#F76F8E; fill-opacity:1.0000; stroke:none;">
<circle cx="10.8750" cy="15.0983" r="1.2500"/> 
</g>
<g style="fill:#5BC3EB; fill-opacity:1.0000; stroke:none;">
<circle cx="3.8750" cy="14.0482" r="1.2500"/> 
</g>
<g style="fill:#5BC3EB; fill-opacity:1.0000; stroke:none;">
<circle cx="10.8750" cy="15.0983" r="1.2500"/> 
</g>
<g style="fill:#ED7C33; fill-opacity:1.0000; stroke:none;">
<circle cx="3.8750" cy="14.0482" r="1.2500"/> 
</g>
<g style="fill:#ED7C33; fill-opacity:1.0000; stroke:none;">
<circle cx="10.8750" cy="15.0983" r="1.2500"/> 
</g>
<g style="fill:#F2EDA1; fill-opacity:1.0000; stroke:none;">
<circle cx="3.8750" cy="14.0482" r="1.2500"/> 
</g>
<g style="fill:#F2EDA1; fill-opacity:1.0000; stroke:none;">
<circle cx="10.8750" cy="15.0983" r="1.2500"/> 
</g>
<g style="fill:#E8B2A7; fill-opacity:1.0000; stroke:none;">
<circle cx="3.8750" cy="14.0482" r="1.2500"/> 
</g>
<g style="fill:#E8B2A7; fill-opacity:1.0000; stroke:none;">
<circle cx="10.8750" cy="15.0983" r="1.2500"/> 
</g>
<g style="fill:#28CCD9; fill-opacity:1.0000; stroke:none;">
<circle cx="3.8750" cy="14.0482" r="1.2500"/> 
</g>
<g style="fill:#28CCD9; fill-opacity:1.0000; stroke:none;">
<circle cx="10.8750" cy="15.0983" r="1.2500"/> 
</g>
<g style="fill:#A7A5C6; fill-opacity:1.0000; stroke:none;">
<circle cx="3.8750" cy="14.0482" r="1.2500"/> 
</g>
<g style="fill:#A7A5C6; fill-opacity:1.0000; stroke:none;">
<circle cx="10.8750" cy="15.0983" r="1.2500"/> 
</g>
<g style="fill:#F76F8E; fill-opacity:1.0000; stroke:none;">
<circle cx="3.8750" cy="14.0482" r="1.2500"/> 
</g>
<g style="fill:#F76F8E; fill-opacity:1.0000; stroke:none;">
<circle cx="10.8750" cy="15.0983" r="1.2500"/> 
</g>
<g style="fill:#5BC3EB; fill-opacity:1.0000; stroke:none;">
<circle cx="3.8750" cy="14.0482" r="1.2500"/> 
</g>
<g style="fill:#5BC3EB; fill-opacity:1.0000; stroke:none;">
<circle cx="10.8750" cy="15.0983" r="1.2500"/> 
</g>
<g style="fill:#ED7C33; fill-opacity:1.0000; stroke:none;">
<circle cx="3.8750" cy="14.0482" r="1.2500"/> 
</g>
<g style="fill:#ED7C33; fill-opacity:1.0000; stroke:none;">
<circle cx="10.8750" cy="15.0983" r="1.2500"/> 
</g>
<g style="fill:#8DCB81; fill-opacity:1.0000; stroke:none;">
<circle cx="3.8750" cy="14.0482" r="1.2500"/> 
</g>
<g style="fill:#8DCB81; fill-opacity:1.0000; stroke:none;">
<circle cx="10.8750" cy="15.0983" r="1.2500"/> 
</g>
<g style="fill:#F2EDA1; fill-opacity:1.0000; stroke:none;">
<circle cx="3.8750" cy="14.0482" r="1.2500"/> 
</g>
<g style="fill:#F2EDA1; fill-opacity:1.0000; stroke:none;">
<circle cx="10.8750" cy="15.0983" r="1.2500"/> 
</g>
<g style="fill:#E8B2A7; fill-opacity:1.0000; stroke:none;">
<circle cx="3.8750" cy="14.0482" r="1.2500"/> 
</g>
<g style="fill:#E8B2A7; fill-opacity:1.0000; stroke:none;">
<circle cx="10.8750" cy="15.0983" r="1.2500"/> 
</g>
<g style="fill:#28CCD9; fill-opacity:1.0000; stroke:none;">
<circle cx="3.8750" cy="14.0482" r="1.2500"/> 
</g>
<g style="fill:#28CCD9; fill-opacity:1.0000; stroke:none;">
<circle cx="10.8750" cy="15.0983" r="1.2500"/> 
</g>
<g style="fill:#A7A5C6; fill-opacity:1.0000; stroke:none;">
<circle cx="3.8750" cy="14.0482" r="1.2500"/> 
</g>
<g style="fill:#A7A5C6; fill-opacity:1.0000; stroke:none;">
<circle cx="10.8750" cy="15.0983" r="1.2500"/> 
</g>
<g style="fill:#DB628B; fill-opacity:1.0000; stroke:none;">
<circle cx="3.8750" cy="14.0482" r="1.2500"/> 
</g>
<g style="fill:#DB628B; fill-opacity:1.0000; stroke:none;">
<circle cx="10.8750" cy="15.0983" r="1.2500"/> 
</g>
<g style="fill:#4FCBCB; fill-opacity:1.0000; stroke:none;">
<circle cx="3.8750" cy="14.0482" r="1.2500"/> 
</g>
<g style="fill:#4FCBCB; fill-opacity:1.0000; stroke:none;">
<circle cx="10.8750" cy="15.0983" r="1.2500"/> 
</g>
<g style="fill:#CE7D2C; fill-opacity:1.0000; stroke:none;">
<circle cx="3.8750" cy="14.0482" r="1.2500"/> 
</g>
<g style="fill:#CE7D2C; fill-opacity:1.0000; stroke:none;">
<circle cx="10.8750" cy="15.0983" r="1.2500"/> 
</g>
<g style="fill:#7FC87F; fill-opacity:1.0000; stroke:none;">
<circle cx="3.8750" cy="14.0482" r="1.2500"/> 
</g>
<g style="fill:#7FC87F; fill-opacity:1.0000; stroke:none;">
<circle cx="10.8750" cy="15.0983" r="1.2500"/> 
</g>
<g style="fill:#C83434; fill-opacity:1.0000; stroke:none;">
<circle cx="3.8750" cy="14.0482" r="1.2500"/> 
</g>
<g style="fill:#C83434; fill-opacity:1.0000; stroke:none;">
<circle cx="10.8750" cy="15.0983" r="1.2500"/> 
</g>
<g style="fill:#D864FF; fill-opacity:0.4000; stroke:none;">
<circle cx="8.2750" cy="9.3483" r="2.6250"/> 
</g>
<g style="fill:none; 
stroke:#F2EDA1; stroke-width:0.1400; stroke-opacity:1; 
stroke-linecap:round; stroke-linejoin:round;">
<path d="M1.7750 3.8482
L1.7750 2.8482
"/>
<path d="M1.7750 15.8483
L1.7750 14.8483
"/>
<path d="M1.7750 15.8483
L2.7750 15.8483
"/>
<path d="M2.7750 2.8482
L1.7750 2.8482
"/>
<path d="M13.7750 15.8483
L14.7750 15.8483
"/>
<path d="M14.7750 2.8482
L13.7750 2.8482
"/>
<path d="M14.7750 2.8482
L14.7750 3.8482
"/>
<path d="M14.7750 14.8483
L14.7750 15.8483
"/>
<path style="fill:none; 
stroke:#FF26E2; stroke-width:0.0500; stroke-opacity:1; 
stroke-linecap:round; stroke-linejoin:round;fill:none" d="M 0.0250,17.5983
16.5250,17.5983
16.5250,1.0982
0.0250,1.0982
Z"/> 
</g>
<g style="fill:none; 
stroke:#AFAFAF; stroke-width:0.1500; stroke-opacity:1; 
stroke-linecap:round; stroke-linejoin:round;">
<text x="8.2750" y="1.3482" textLength="4.5357" font-size="1.3333" lengthAdjust="spacingAndGlyphs" text-anchor="middle" opacity="0" stroke-opacity="0">REF**</text>
<g class="stroked-text"><desc>REF**</desc>
<path d="M6.9417 1.3031
L6.6083 0.8269
"/>
<path d="M6.3702 1.3031
L6.3702 0.3031
"/>
<path d="M6.3702 0.3031
L6.7512 0.3031
"/>
<path d="M6.7512 0.3031
L6.8464 0.3507
"/>
<path d="M6.8464 0.3507
L6.8940 0.3983
"/>
<path d="M6.8940 0.3983
L6.9417 0.4935
"/>
<path d="M6.9417 0.4935
L6.9417 0.6364
"/>
<path d="M6.9417 0.6364
L6.8940 0.7316
"/>
<path d="M6.8940 0.7316
L6.8464 0.7793
"/>
<path d="M6.8464 0.7793
L6.7512 0.8269
"/>
<path d="M6.7512 0.8269
L6.3702 0.8269
"/>
<path d="M7.3702 0.7793
L7.7036 0.7793
"/>
<path d="M7.8464 1.3031
L7.3702 1.3031
"/>
<path d="M7.3702 1.3031
L7.3702 0.3031
"/>
<path d="M7.3702 0.3031
L7.8464 0.3031
"/>
<path d="M8.6083 0.7793
L8.2750 0.7793
"/>
<path d="M8.2750 1.3031
L8.2750 0.3031
"/>
<path d="M8.2750 0.3031
L8.7512 0.3031
"/>
<path d="M9.2750 0.3031
L9.2750 0.5412
"/>
<path d="M9.0369 0.4459
L9.2750 0.5412
"/>
<path d="M9.2750 0.5412
L9.5131 0.4459
"/>
<path d="M9.1321 0.7316
L9.2750 0.5412
"/>
<path d="M9.2750 0.5412
L9.4179 0.7316
"/>
<path d="M10.0369 0.3031
L10.0369 0.5412
"/>
<path d="M9.7988 0.4459
L10.0369 0.5412
"/>
<path d="M10.0369 0.5412
L10.2750 0.4459
"/>
<path d="M9.8940 0.7316
L10.0369 0.5412
"/>
<path d="M10.0369 0.5412
L10.1798 0.7316
"/>
</g></g>
<g style="fill:none; 
stroke:#AFAFAF; stroke-width:0.1000; stroke-opacity:1; 
stroke-linecap:round; stroke-linejoin:round;">
<path d="M2.4750 6.8482
L6.3750 6.8483
"/>
<path d="M2.4750 11.8483
L2.4750 6.8482
"/>
<path d="M6.3750 11.8482
L2.4750 11.8483
"/>
<path d="M10.1750 6.8483
L14.0750 6.8482
"/>
<path d="M14.0750 6.8482
L14.0750 11.8483
"/>
<path d="M14.0750 11.8483
L10.1750 11.8482
"/>
<path style="fill:none; 
stroke:#AFAFAF; stroke-width:0.1000; stroke-opacity:1; 
stroke-linecap:round; stroke-linejoin:round;fill:none" d="M 0.7750,16.8483
15.7750,16.8483
15.7750,1.8482
0.7750,1.8482
Z"/> 
<path style="fill:none; 
stroke:#AFAFAF; stroke-width:0.1000; stroke-opacity:1; 
stroke-linecap:round; stroke-linejoin:round;fill:none" d="M 5.0750,3.0482
10.0750,3.0482
10.0750,5.2982
5.0750,5.2982
Z"/> 
<path d="M10.1750 6.8483 A3.1401 3.1401 0.0 0 0 6.3750 6.8483"/>
<path d="M6.3750 11.8482 A3.1401 3.1401 0.0 0 0 10.1750 11.8482"/>
<circle cx="8.2750" cy="9.3483" r="2.8750"/> 
<path style="fill:#AFAFAF; fill-opacity:1.0000; stroke:none;fill-rule:evenodd;" d="M 8.7750,8.7082
10.2250,8.7082
10.2250,9.9882
8.7750,9.9882
8.7750,11.3483
7.6750,11.3483
7.6750,9.9882
6.2250,9.9882
6.2250,8.7082
7.6750,8.7082
7.6750,7.3482
8.7750,7.3482
Z"/> 
</g> 
</svg>
