<?xml version="1.0" standalone="no"?>
 <!DOCTYPE svg PUBLIC "-//W3C//DTD SVG 1.1//EN" 
 "http://www.w3.org/Graphics/SVG/1.1/DTD/svg11.dtd"> 
<svg xmlns:svg="http://www.w3.org/2000/svg" xmlns="http://www.w3.org/2000/svg" xmlns:xlink="http://www.w3.org/1999/xlink" version="1.1" width="100%" height="100%" viewBox="0.0000 0.0000 18.2626 17.6276" preserveAspectRatio="xMidYMid meet"><rect width="100%" height="100%" fill="black"/>
<title>SVG Image created as SW_Kailh_Choc_V1_HotSwap_PTH.svg date 2025/11/03 22:13:35 </title>
  <desc>Image generated by PCBNEW </desc>
<g style="fill:#000000; fill-opacity:1.0000;stroke:#000000; stroke-opacity:1.0000;
stroke-linecap:round; stroke-linejoin:round;" transform="translate(0 0) scale(1 1)">
</g>
<g style="fill:#4D7FC4; fill-opacity:1.0000; stroke:none;">
<circle cx="10.0000" cy="15.2482" r="2.0000"/> 
<path style="fill:#4D7FC4; fill-opacity:1.0000; stroke:none;fill-rule:evenodd;" d="M 10.0500,15.7482
10.0500,14.7482
13.9500,14.7482
13.9500,15.7482
Z"/> 
<path style="fill:#4D7FC4; fill-opacity:1.0000; stroke:none;fill-rule:evenodd;" d="M 12.4000,14.4682
12.4119,14.3577
12.4636,14.2190
12.5523,14.1006
12.6708,14.0119
12.8095,13.9601
12.9200,13.9482
14.4800,13.9482
14.5905,13.9601
14.7292,14.0119
14.8477,14.1006
14.9364,14.2190
14.9881,14.3577
15.0000,14.4682
15.0000,16.0282
14.9881,16.1388
14.9364,16.2775
14.8477,16.3959
14.7292,16.4846
14.5905,16.5364
14.4800,16.5482
12.9200,16.5482
12.8095,16.5364
12.6708,16.4846
12.5523,16.3959
12.4636,16.2775
12.4119,16.1388
12.4000,16.0282
Z"/> 
<path style="fill:#4D7FC4; fill-opacity:1.0000; stroke:none;fill-rule:evenodd;" d="M 0.0000,12.3682
0.0119,12.2577
0.0636,12.1190
0.1523,12.0006
0.2708,11.9119
0.4095,11.8601
0.5200,11.8483
2.0800,11.8483
2.1905,11.8601
2.3292,11.9119
2.4477,12.0006
2.5364,12.1190
2.5881,12.2577
2.6000,12.3682
2.6000,13.9283
2.5881,14.0388
2.5364,14.1775
2.4477,14.2959
2.3292,14.3846
2.1905,14.4364
2.0800,14.4482
0.5200,14.4482
0.4095,14.4364
0.2708,14.3846
0.1523,14.2959
0.0636,14.1775
0.0119,14.0388
0.0000,13.9283
Z"/> 
<path style="fill:#4D7FC4; fill-opacity:1.0000; stroke:none;fill-rule:evenodd;" d="M 1.0500,13.6482
1.0500,12.6482
4.9500,12.6482
4.9500,13.6482
Z"/> 
</g>
<g style="fill:#4D7FC4; fill-opacity:1.0000; stroke:none;">
<circle cx="5.0000" cy="13.1482" r="2.0000"/> 
</g>
<g style="fill:#02FFEE; fill-opacity:0.4000; stroke:none;">
<circle cx="4.5000" cy="9.3483" r="0.8509"/> 
</g>
<g style="fill:#02FFEE; fill-opacity:0.4000; stroke:none;">
<circle cx="10.0000" cy="9.3483" r="1.7145"/> 
</g>
<g style="fill:#02FFEE; fill-opacity:0.4000; stroke:none;">
<circle cx="15.5000" cy="9.3483" r="0.8509"/> 
</g>
<g style="fill:#02FFEE; fill-opacity:0.4000; stroke:none;">
<circle cx="10.0000" cy="15.2482" r="2.0000"/> 
<path style="fill:#02FFEE; fill-opacity:0.4000; stroke:none;fill-rule:evenodd;" d="M 12.4000,14.4682
12.4119,14.3577
12.4636,14.2190
12.5523,14.1006
12.6708,14.0119
12.8095,13.9601
12.9200,13.9482
14.4800,13.9482
14.5905,13.9601
14.7292,14.0119
14.8477,14.1006
14.9364,14.2190
14.9881,14.3577
15.0000,14.4682
15.0000,16.0282
14.9881,16.1388
14.9364,16.2775
14.8477,16.3959
14.7292,16.4846
14.5905,16.5364
14.4800,16.5482
12.9200,16.5482
12.8095,16.5364
12.6708,16.4846
12.5523,16.3959
12.4636,16.2775
12.4119,16.1388
12.4000,16.0282
Z"/> 
<path style="fill:#02FFEE; fill-opacity:0.4000; stroke:none;fill-rule:evenodd;" d="M 0.0000,12.3682
0.0119,12.2577
0.0636,12.1190
0.1523,12.0006
0.2708,11.9119
0.4095,11.8601
0.5200,11.8483
2.0800,11.8483
2.1905,11.8601
2.3292,11.9119
2.4477,12.0006
2.5364,12.1190
2.5881,12.2577
2.6000,12.3682
2.6000,13.9283
2.5881,14.0388
2.5364,14.1775
2.4477,14.2959
2.3292,14.3846
2.1905,14.4364
2.0800,14.4482
0.5200,14.4482
0.4095,14.4364
0.2708,14.3846
0.1523,14.2959
0.0636,14.1775
0.0119,14.0388
0.0000,13.9283
Z"/> 
</g>
<g style="fill:#02FFEE; fill-opacity:0.4000; stroke:none;">
<circle cx="5.0000" cy="13.1482" r="2.0000"/> 
<path style="fill:#00C2C2; fill-opacity:0.9000; stroke:none;fill-rule:evenodd;" d="M 12.4000,14.4682
12.4119,14.3577
12.4636,14.2190
12.5523,14.1006
12.6708,14.0119
12.8095,13.9601
12.9200,13.9482
14.4800,13.9482
14.5905,13.9601
14.7292,14.0119
14.8477,14.1006
14.9364,14.2190
14.9881,14.3577
15.0000,14.4682
15.0000,16.0282
14.9881,16.1388
14.9364,16.2775
14.8477,16.3959
14.7292,16.4846
14.5905,16.5364
14.4800,16.5482
12.9200,16.5482
12.8095,16.5364
12.6708,16.4846
12.5523,16.3959
12.4636,16.2775
12.4119,16.1388
12.4000,16.0282
Z"/> 
<path style="fill:#00C2C2; fill-opacity:0.9000; stroke:none;fill-rule:evenodd;" d="M 0.0000,12.3682
0.0119,12.2577
0.0636,12.1190
0.1523,12.0006
0.2708,11.9119
0.4095,11.8601
0.5200,11.8483
2.0800,11.8483
2.1905,11.8601
2.3292,11.9119
2.4477,12.0006
2.5364,12.1190
2.5881,12.2577
2.6000,12.3682
2.6000,13.9283
2.5881,14.0388
2.5364,14.1775
2.4477,14.2959
2.3292,14.3846
2.1905,14.4364
2.0800,14.4482
0.5200,14.4482
0.4095,14.4364
0.2708,14.3846
0.1523,14.2959
0.0636,14.1775
0.0119,14.0388
0.0000,13.9283
Z"/> 
</g>
<g style="fill:none; 
stroke:#E8B2A7; stroke-width:0.1000; stroke-opacity:1; 
stroke-linecap:round; stroke-linejoin:round;">
<path d="M2.7250 15.1232
L2.7250 11.1732
"/>
<path d="M3.1000 10.7982
L6.5750 10.7982
"/>
<path d="M3.1000 15.4982
L5.3998 15.4982
"/>
<path d="M7.5250 17.5983
L7.0250 17.0983
"/>
<path d="M8.6750 12.8982
L11.7750 12.8982
"/>
<path d="M11.7750 17.5983
L7.5250 17.5983
"/>
<path d="M12.2750 13.3982
L11.7750 12.8982
"/>
<path d="M12.2750 13.3982
L12.2750 17.0983
"/>
<path d="M12.2750 17.0983
L11.7750 17.5983
"/>
<path d="M3.1000 10.7982 A0.3750 0.3750 0.0 0 0 2.7250 11.1732"/>
<path d="M2.7250 15.1232 A0.3750 0.3750 0.0 0 0 3.1000 15.4982"/>
<path d="M7.0250 17.0982 A1.6002 1.6002 0.0 0 0 5.3998 15.4982"/>
<path d="M6.9500 11.1732 A0.3750 0.3750 0.0 0 0 6.5750 10.7982"/>
<path d="M6.9500 11.1732 A1.7250 1.7250 0.0 0 0 8.6750 12.8983"/>
</g>
<g style="fill:#F2EDA1; fill-opacity:1.0000; stroke:none;">
<circle cx="10.0000" cy="15.2482" r="2.0000"/> 
</g>
<g style="fill:#F2EDA1; fill-opacity:1.0000; stroke:none;">
<circle cx="5.0000" cy="13.1482" r="2.0000"/> 
</g>
<g style="fill:#E8B2A7; fill-opacity:1.0000; stroke:none;">
<circle cx="10.0000" cy="15.2482" r="2.0000"/> 
</g>
<g style="fill:#E8B2A7; fill-opacity:1.0000; stroke:none;">
<circle cx="5.0000" cy="13.1482" r="2.0000"/> 
</g>
<g style="fill:#28CCD9; fill-opacity:1.0000; stroke:none;">
<circle cx="10.0000" cy="15.2482" r="2.0000"/> 
</g>
<g style="fill:#28CCD9; fill-opacity:1.0000; stroke:none;">
<circle cx="5.0000" cy="13.1482" r="2.0000"/> 
</g>
<g style="fill:#A7A5C6; fill-opacity:1.0000; stroke:none;">
<circle cx="10.0000" cy="15.2482" r="2.0000"/> 
</g>
<g style="fill:#A7A5C6; fill-opacity:1.0000; stroke:none;">
<circle cx="5.0000" cy="13.1482" r="2.0000"/> 
</g>
<g style="fill:#F76F8E; fill-opacity:1.0000; stroke:none;">
<circle cx="10.0000" cy="15.2482" r="2.0000"/> 
</g>
<g style="fill:#F76F8E; fill-opacity:1.0000; stroke:none;">
<circle cx="5.0000" cy="13.1482" r="2.0000"/> 
</g>
<g style="fill:#5BC3EB; fill-opacity:1.0000; stroke:none;">
<circle cx="10.0000" cy="15.2482" r="2.0000"/> 
</g>
<g style="fill:#5BC3EB; fill-opacity:1.0000; stroke:none;">
<circle cx="5.0000" cy="13.1482" r="2.0000"/> 
</g>
<g style="fill:#ED7C33; fill-opacity:1.0000; stroke:none;">
<circle cx="10.0000" cy="15.2482" r="2.0000"/> 
</g>
<g style="fill:#ED7C33; fill-opacity:1.0000; stroke:none;">
<circle cx="5.0000" cy="13.1482" r="2.0000"/> 
</g>
<g style="fill:#F2EDA1; fill-opacity:1.0000; stroke:none;">
<circle cx="10.0000" cy="15.2482" r="2.0000"/> 
</g>
<g style="fill:#F2EDA1; fill-opacity:1.0000; stroke:none;">
<circle cx="5.0000" cy="13.1482" r="2.0000"/> 
</g>
<g style="fill:#E8B2A7; fill-opacity:1.0000; stroke:none;">
<circle cx="10.0000" cy="15.2482" r="2.0000"/> 
</g>
<g style="fill:#E8B2A7; fill-opacity:1.0000; stroke:none;">
<circle cx="5.0000" cy="13.1482" r="2.0000"/> 
</g>
<g style="fill:#28CCD9; fill-opacity:1.0000; stroke:none;">
<circle cx="10.0000" cy="15.2482" r="2.0000"/> 
</g>
<g style="fill:#28CCD9; fill-opacity:1.0000; stroke:none;">
<circle cx="5.0000" cy="13.1482" r="2.0000"/> 
</g>
<g style="fill:#A7A5C6; fill-opacity:1.0000; stroke:none;">
<circle cx="10.0000" cy="15.2482" r="2.0000"/> 
</g>
<g style="fill:#A7A5C6; fill-opacity:1.0000; stroke:none;">
<circle cx="5.0000" cy="13.1482" r="2.0000"/> 
</g>
<g style="fill:#F76F8E; fill-opacity:1.0000; stroke:none;">
<circle cx="10.0000" cy="15.2482" r="2.0000"/> 
</g>
<g style="fill:#F76F8E; fill-opacity:1.0000; stroke:none;">
<circle cx="5.0000" cy="13.1482" r="2.0000"/> 
</g>
<g style="fill:#5BC3EB; fill-opacity:1.0000; stroke:none;">
<circle cx="10.0000" cy="15.2482" r="2.0000"/> 
</g>
<g style="fill:#5BC3EB; fill-opacity:1.0000; stroke:none;">
<circle cx="5.0000" cy="13.1482" r="2.0000"/> 
</g>
<g style="fill:#ED7C33; fill-opacity:1.0000; stroke:none;">
<circle cx="10.0000" cy="15.2482" r="2.0000"/> 
</g>
<g style="fill:#ED7C33; fill-opacity:1.0000; stroke:none;">
<circle cx="5.0000" cy="13.1482" r="2.0000"/> 
</g>
<g style="fill:#F2EDA1; fill-opacity:1.0000; stroke:none;">
<circle cx="10.0000" cy="15.2482" r="2.0000"/> 
</g>
<g style="fill:#F2EDA1; fill-opacity:1.0000; stroke:none;">
<circle cx="5.0000" cy="13.1482" r="2.0000"/> 
</g>
<g style="fill:#E8B2A7; fill-opacity:1.0000; stroke:none;">
<circle cx="10.0000" cy="15.2482" r="2.0000"/> 
</g>
<g style="fill:#E8B2A7; fill-opacity:1.0000; stroke:none;">
<circle cx="5.0000" cy="13.1482" r="2.0000"/> 
</g>
<g style="fill:#28CCD9; fill-opacity:1.0000; stroke:none;">
<circle cx="10.0000" cy="15.2482" r="2.0000"/> 
</g>
<g style="fill:#28CCD9; fill-opacity:1.0000; stroke:none;">
<circle cx="5.0000" cy="13.1482" r="2.0000"/> 
</g>
<g style="fill:#A7A5C6; fill-opacity:1.0000; stroke:none;">
<circle cx="10.0000" cy="15.2482" r="2.0000"/> 
</g>
<g style="fill:#A7A5C6; fill-opacity:1.0000; stroke:none;">
<circle cx="5.0000" cy="13.1482" r="2.0000"/> 
</g>
<g style="fill:#F76F8E; fill-opacity:1.0000; stroke:none;">
<circle cx="10.0000" cy="15.2482" r="2.0000"/> 
</g>
<g style="fill:#F76F8E; fill-opacity:1.0000; stroke:none;">
<circle cx="5.0000" cy="13.1482" r="2.0000"/> 
</g>
<g style="fill:#5BC3EB; fill-opacity:1.0000; stroke:none;">
<circle cx="10.0000" cy="15.2482" r="2.0000"/> 
</g>
<g style="fill:#5BC3EB; fill-opacity:1.0000; stroke:none;">
<circle cx="5.0000" cy="13.1482" r="2.0000"/> 
</g>
<g style="fill:#ED7C33; fill-opacity:1.0000; stroke:none;">
<circle cx="10.0000" cy="15.2482" r="2.0000"/> 
</g>
<g style="fill:#ED7C33; fill-opacity:1.0000; stroke:none;">
<circle cx="5.0000" cy="13.1482" r="2.0000"/> 
</g>
<g style="fill:#8DCB81; fill-opacity:1.0000; stroke:none;">
<circle cx="10.0000" cy="15.2482" r="2.0000"/> 
</g>
<g style="fill:#8DCB81; fill-opacity:1.0000; stroke:none;">
<circle cx="5.0000" cy="13.1482" r="2.0000"/> 
</g>
<g style="fill:#F2EDA1; fill-opacity:1.0000; stroke:none;">
<circle cx="10.0000" cy="15.2482" r="2.0000"/> 
</g>
<g style="fill:#F2EDA1; fill-opacity:1.0000; stroke:none;">
<circle cx="5.0000" cy="13.1482" r="2.0000"/> 
</g>
<g style="fill:#E8B2A7; fill-opacity:1.0000; stroke:none;">
<circle cx="10.0000" cy="15.2482" r="2.0000"/> 
</g>
<g style="fill:#E8B2A7; fill-opacity:1.0000; stroke:none;">
<circle cx="5.0000" cy="13.1482" r="2.0000"/> 
</g>
<g style="fill:#28CCD9; fill-opacity:1.0000; stroke:none;">
<circle cx="10.0000" cy="15.2482" r="2.0000"/> 
</g>
<g style="fill:#28CCD9; fill-opacity:1.0000; stroke:none;">
<circle cx="5.0000" cy="13.1482" r="2.0000"/> 
</g>
<g style="fill:#A7A5C6; fill-opacity:1.0000; stroke:none;">
<circle cx="10.0000" cy="15.2482" r="2.0000"/> 
</g>
<g style="fill:#A7A5C6; fill-opacity:1.0000; stroke:none;">
<circle cx="5.0000" cy="13.1482" r="2.0000"/> 
</g>
<g style="fill:#DB628B; fill-opacity:1.0000; stroke:none;">
<circle cx="10.0000" cy="15.2482" r="2.0000"/> 
</g>
<g style="fill:#DB628B; fill-opacity:1.0000; stroke:none;">
<circle cx="5.0000" cy="13.1482" r="2.0000"/> 
</g>
<g style="fill:#4FCBCB; fill-opacity:1.0000; stroke:none;">
<circle cx="10.0000" cy="15.2482" r="2.0000"/> 
</g>
<g style="fill:#4FCBCB; fill-opacity:1.0000; stroke:none;">
<circle cx="5.0000" cy="13.1482" r="2.0000"/> 
</g>
<g style="fill:#CE7D2C; fill-opacity:1.0000; stroke:none;">
<circle cx="10.0000" cy="15.2482" r="2.0000"/> 
</g>
<g style="fill:#CE7D2C; fill-opacity:1.0000; stroke:none;">
<circle cx="5.0000" cy="13.1482" r="2.0000"/> 
</g>
<g style="fill:#7FC87F; fill-opacity:1.0000; stroke:none;">
<circle cx="10.0000" cy="15.2482" r="2.0000"/> 
</g>
<g style="fill:#7FC87F; fill-opacity:1.0000; stroke:none;">
<circle cx="5.0000" cy="13.1482" r="2.0000"/> 
</g>
<g style="fill:#C83434; fill-opacity:1.0000; stroke:none;">
<circle cx="10.0000" cy="15.2482" r="2.0000"/> 
</g>
<g style="fill:#C83434; fill-opacity:1.0000; stroke:none;">
<circle cx="5.0000" cy="13.1482" r="2.0000"/> 
</g>
<g style="fill:#D864FF; fill-opacity:0.4000; stroke:none;">
<circle cx="4.5000" cy="9.3483" r="0.8509"/> 
</g>
<g style="fill:#D864FF; fill-opacity:0.4000; stroke:none;">
<circle cx="10.0000" cy="9.3483" r="1.7145"/> 
</g>
<g style="fill:#D864FF; fill-opacity:0.4000; stroke:none;">
<circle cx="15.5000" cy="9.3483" r="0.8509"/> 
</g>
<g style="fill:none; 
stroke:#F2EDA1; stroke-width:0.1400; stroke-opacity:1; 
stroke-linecap:round; stroke-linejoin:round;">
<path d="M3.5000 3.8482
L3.5000 2.8482
"/>
<path d="M3.5000 15.8483
L3.5000 14.8483
"/>
<path d="M3.5000 15.8483
L4.5000 15.8483
"/>
<path d="M4.5000 2.8482
L3.5000 2.8482
"/>
<path d="M15.5000 15.8483
L16.5000 15.8483
"/>
<path d="M16.5000 2.8482
L15.5000 2.8482
"/>
<path d="M16.5000 2.8482
L16.5000 3.8482
"/>
<path d="M16.5000 14.8483
L16.5000 15.8483
"/>
<path style="fill:none; 
stroke:#FF26E2; stroke-width:0.0500; stroke-opacity:1; 
stroke-linecap:round; stroke-linejoin:round;fill:none" d="M 1.7500,1.0982
18.2500,1.0982
18.2500,17.5983
1.7500,17.5983
Z"/> 
</g>
<g style="fill:none; 
stroke:#AFAFAF; stroke-width:0.1500; stroke-opacity:1; 
stroke-linecap:round; stroke-linejoin:round;">
<text x="10.0000" y="1.3482" textLength="4.5357" font-size="1.3333" lengthAdjust="spacingAndGlyphs" text-anchor="middle" opacity="0" stroke-opacity="0">REF**</text>
<g class="stroked-text"><desc>REF**</desc>
<path d="M8.6667 1.3031
L8.3333 0.8269
"/>
<path d="M8.0952 1.3031
L8.0952 0.3031
"/>
<path d="M8.0952 0.3031
L8.4762 0.3031
"/>
<path d="M8.4762 0.3031
L8.5714 0.3507
"/>
<path d="M8.5714 0.3507
L8.6190 0.3983
"/>
<path d="M8.6190 0.3983
L8.6667 0.4935
"/>
<path d="M8.6667 0.4935
L8.6667 0.6364
"/>
<path d="M8.6667 0.6364
L8.6190 0.7316
"/>
<path d="M8.6190 0.7316
L8.5714 0.7793
"/>
<path d="M8.5714 0.7793
L8.4762 0.8269
"/>
<path d="M8.4762 0.8269
L8.0952 0.8269
"/>
<path d="M9.0952 0.7793
L9.4286 0.7793
"/>
<path d="M9.5714 1.3031
L9.0952 1.3031
"/>
<path d="M9.0952 1.3031
L9.0952 0.3031
"/>
<path d="M9.0952 0.3031
L9.5714 0.3031
"/>
<path d="M10.3333 0.7793
L10.0000 0.7793
"/>
<path d="M10.0000 1.3031
L10.0000 0.3031
"/>
<path d="M10.0000 0.3031
L10.4762 0.3031
"/>
<path d="M11.0000 0.3031
L11.0000 0.5412
"/>
<path d="M10.7619 0.4459
L11.0000 0.5412
"/>
<path d="M11.0000 0.5412
L11.2381 0.4459
"/>
<path d="M10.8571 0.7316
L11.0000 0.5412
"/>
<path d="M11.0000 0.5412
L11.1429 0.7316
"/>
<path d="M11.7619 0.3031
L11.7619 0.5412
"/>
<path d="M11.5238 0.4459
L11.7619 0.5412
"/>
<path d="M11.7619 0.5412
L12.0000 0.4459
"/>
<path d="M11.6190 0.7316
L11.7619 0.5412
"/>
<path d="M11.7619 0.5412
L11.9048 0.7316
"/>
</g></g>
<g style="fill:none; 
stroke:#AFAFAF; stroke-width:0.1000; stroke-opacity:1; 
stroke-linecap:round; stroke-linejoin:round;">
<path d="M4.8500 7.0982
L4.8500 11.5983
"/>
<path d="M4.8500 7.0982
L15.1500 7.0982
"/>
<path d="M4.8500 11.5983
L8.5000 11.5983
"/>
<path d="M8.5000 12.7982
L8.5000 11.5983
"/>
<path d="M11.5000 11.5983
L11.5000 12.7982
"/>
<path d="M11.5000 12.7982
L8.5000 12.7982
"/>
<path d="M15.1500 7.0982
L15.1500 11.5983
"/>
<path d="M15.1500 11.5983
L11.5000 11.5983
"/>
<path style="fill:none; 
stroke:#AFAFAF; stroke-width:0.1000; stroke-opacity:1; 
stroke-linecap:round; stroke-linejoin:round;fill:none" d="M 2.5000,1.8482
17.5000,1.8482
17.5000,16.8483
2.5000,16.8483
Z"/> 
<path style="fill:none; 
stroke:#AFAFAF; stroke-width:0.1000; stroke-opacity:1; 
stroke-linecap:round; stroke-linejoin:round;fill:none" d="M 7.4750,3.0482
12.5250,3.0482
12.5250,6.2482
7.4750,6.2482
Z"/> 
<path style="fill:none; 
stroke:#AFAFAF; stroke-width:0.1000; stroke-opacity:1; 
stroke-linecap:round; stroke-linejoin:round;fill:none" d="M 7.7500,7.8482
6.5500,7.8482
6.5500,10.8483
7.7500,10.8483
Z"/> 
<path style="fill:none; 
stroke:#AFAFAF; stroke-width:0.1000; stroke-opacity:1; 
stroke-linecap:round; stroke-linejoin:round;fill:none" d="M 13.4500,7.8482
12.2500,7.8482
12.2500,10.8483
13.4500,10.8483
Z"/> 
<circle cx="15.2200" cy="5.1482" r="0.5000"/> 
</g> 
</svg>
