<?xml version="1.0" standalone="no"?>
 <!DOCTYPE svg PUBLIC "-//W3C//DTD SVG 1.1//EN" 
 "http://www.w3.org/Graphics/SVG/1.1/DTD/svg11.dtd"> 
<svg xmlns:svg="http://www.w3.org/2000/svg" xmlns="http://www.w3.org/2000/svg" xmlns:xlink="http://www.w3.org/1999/xlink" version="1.1" width="100%" height="100%" viewBox="0.0000 0.0000 17.6022 17.6022" preserveAspectRatio="xMidYMid meet"><rect width="100%" height="100%" fill="black"/>
<title>SVG Image created as SW_MX_HotSwap_PTH_double.svg date 2025/11/03 22:13:35 </title>
  <desc>Image generated by PCBNEW </desc>
<g style="fill:#000000; fill-opacity:1.0000;stroke:#000000; stroke-opacity:1.0000;
stroke-linecap:round; stroke-linejoin:round;" transform="translate(0 0) scale(1 1)">
<path style="fill:#4D7FC4; fill-opacity:1.0000; stroke:none;fill-rule:evenodd;" d="M 1.2700,13.6532
1.2814,13.5470
1.3312,13.4136
1.4164,13.2997
1.5304,13.2144
1.6637,13.1647
1.7700,13.1532
3.2700,13.1532
3.3763,13.1647
3.5096,13.2144
3.6236,13.2997
3.7088,13.4136
3.7586,13.5470
3.7700,13.6532
3.7700,15.2032
3.7586,15.3095
3.7088,15.4429
3.6236,15.5568
3.5096,15.6421
3.3763,15.6918
3.2700,15.7032
1.7700,15.7032
1.6637,15.6918
1.5304,15.6421
1.4164,15.5568
1.3312,15.4429
1.2814,15.3095
1.2700,15.2032
Z"/> 
<path style="fill:#4D7FC4; fill-opacity:1.0000; stroke:none;fill-rule:evenodd;" d="M 2.8100,14.9282
2.8100,13.9283
5.8100,13.9283
5.8100,14.9282
Z"/> 
</g>
<g style="fill:#4D7FC4; fill-opacity:1.0000; stroke:none;">
<circle cx="5.0000" cy="11.8882" r="1.8000"/> 
</g>
<g style="fill:#4D7FC4; fill-opacity:1.0000; stroke:none;">
<circle cx="6.2700" cy="14.4282" r="1.8000"/> 
</g>
<g style="fill:#4D7FC4; fill-opacity:1.0000; stroke:none;">
<circle cx="11.3500" cy="14.4282" r="1.8000"/> 
</g>
<g style="fill:#4D7FC4; fill-opacity:1.0000; stroke:none;">
<circle cx="12.6200" cy="11.8882" r="1.8000"/> 
<path style="fill:#4D7FC4; fill-opacity:1.0000; stroke:none;fill-rule:evenodd;" d="M 13.3100,12.3882
13.3100,11.3882
16.3100,11.3882
16.3100,12.3882
Z"/> 
<path style="fill:#4D7FC4; fill-opacity:1.0000; stroke:none;fill-rule:evenodd;" d="M 15.1200,11.1132
15.1314,11.0070
15.1812,10.8736
15.2664,10.7597
15.3804,10.6744
15.5137,10.6247
15.6200,10.6132
17.1200,10.6132
17.2263,10.6247
17.3596,10.6744
17.4736,10.7597
17.5588,10.8736
17.6086,11.0070
17.6200,11.1132
17.6200,12.6632
17.6086,12.7695
17.5588,12.9029
17.4736,13.0168
17.3596,13.1021
17.2263,13.1518
17.1200,13.1632
15.6200,13.1632
15.5137,13.1518
15.3804,13.1021
15.2664,13.0168
15.1812,12.9029
15.1314,12.7695
15.1200,12.6632
Z"/> 
</g>
<g style="fill:#02FFEE; fill-opacity:0.4000; stroke:none;">
<circle cx="3.7300" cy="9.3483" r="0.8500"/> 
</g>
<g style="fill:#02FFEE; fill-opacity:0.4000; stroke:none;">
<circle cx="8.8100" cy="9.3483" r="2.0000"/> 
</g>
<g style="fill:#02FFEE; fill-opacity:0.4000; stroke:none;">
<circle cx="13.8900" cy="9.3483" r="0.8500"/> 
<path style="fill:#02FFEE; fill-opacity:0.4000; stroke:none;fill-rule:evenodd;" d="M 1.2700,13.6532
1.2814,13.5470
1.3312,13.4136
1.4164,13.2997
1.5304,13.2144
1.6637,13.1647
1.7700,13.1532
3.2700,13.1532
3.3763,13.1647
3.5096,13.2144
3.6236,13.2997
3.7088,13.4136
3.7586,13.5470
3.7700,13.6532
3.7700,15.2032
3.7586,15.3095
3.7088,15.4429
3.6236,15.5568
3.5096,15.6421
3.3763,15.6918
3.2700,15.7032
1.7700,15.7032
1.6637,15.6918
1.5304,15.6421
1.4164,15.5568
1.3312,15.4429
1.2814,15.3095
1.2700,15.2032
Z"/> 
</g>
<g style="fill:#02FFEE; fill-opacity:0.4000; stroke:none;">
<circle cx="6.2700" cy="14.4282" r="1.8000"/> 
</g>
<g style="fill:#02FFEE; fill-opacity:0.4000; stroke:none;">
<circle cx="12.6200" cy="11.8882" r="1.8000"/> 
<path style="fill:#02FFEE; fill-opacity:0.4000; stroke:none;fill-rule:evenodd;" d="M 15.1200,11.1132
15.1314,11.0070
15.1812,10.8736
15.2664,10.7597
15.3804,10.6744
15.5137,10.6247
15.6200,10.6132
17.1200,10.6132
17.2263,10.6247
17.3596,10.6744
17.4736,10.7597
17.5588,10.8736
17.6086,11.0070
17.6200,11.1132
17.6200,12.6632
17.6086,12.7695
17.5588,12.9029
17.4736,13.0168
17.3596,13.1021
17.2263,13.1518
17.1200,13.1632
15.6200,13.1632
15.5137,13.1518
15.3804,13.1021
15.2664,13.0168
15.1812,12.9029
15.1314,12.7695
15.1200,12.6632
Z"/> 
<path style="fill:#00C2C2; fill-opacity:0.9000; stroke:none;fill-rule:evenodd;" d="M 1.2700,13.6532
1.2814,13.5470
1.3312,13.4136
1.4164,13.2997
1.5304,13.2144
1.6637,13.1647
1.7700,13.1532
3.2700,13.1532
3.3763,13.1647
3.5096,13.2144
3.6236,13.2997
3.7088,13.4136
3.7586,13.5470
3.7700,13.6532
3.7700,15.2032
3.7586,15.3095
3.7088,15.4429
3.6236,15.5568
3.5096,15.6421
3.3763,15.6918
3.2700,15.7032
1.7700,15.7032
1.6637,15.6918
1.5304,15.6421
1.4164,15.5568
1.3312,15.4429
1.2814,15.3095
1.2700,15.2032
Z"/> 
<path style="fill:#00C2C2; fill-opacity:0.9000; stroke:none;fill-rule:evenodd;" d="M 15.1200,11.1132
15.1314,11.0070
15.1812,10.8736
15.2664,10.7597
15.3804,10.6744
15.5137,10.6247
15.6200,10.6132
17.1200,10.6132
17.2263,10.6247
17.3596,10.6744
17.4736,10.7597
17.5588,10.8736
17.6086,11.0070
17.6200,11.1132
17.6200,12.6632
17.6086,12.7695
17.5588,12.9029
17.4736,13.0168
17.3596,13.1021
17.2263,13.1518
17.1200,13.1632
15.6200,13.1632
15.5137,13.1518
15.3804,13.1021
15.2664,13.0168
15.1812,12.9029
15.1314,12.7695
15.1200,12.6632
Z"/> 
</g>
<g style="fill:none; 
stroke:#E8B2A7; stroke-width:0.1400; stroke-opacity:1; 
stroke-linecap:round; stroke-linejoin:round;">
<path d="M1.3100 1.8482
L1.3100 3.3482
"/>
<path d="M1.3100 1.8482
L2.8100 1.8482
"/>
<path d="M1.3100 16.8483
L1.3100 15.3483
"/>
<path d="M1.3100 16.8483
L2.8100 16.8483
"/>
</g>
<g style="fill:none; 
stroke:#E8B2A7; stroke-width:0.1000; stroke-opacity:1; 
stroke-linecap:round; stroke-linejoin:round;">
<path d="M4.0100 13.1482
L4.0100 12.6482
"/>
<path d="M4.0100 16.0482
L4.0100 15.6482
"/>
<path d="M4.5100 12.1482
L8.6100 12.1482
"/>
<path d="M5.1100 16.0482
L4.0100 16.0482
"/>
<path d="M12.9100 16.0482
L7.4100 16.0482
"/>
<path d="M14.9100 10.2482
L13.6100 10.2483
"/>
<path d="M14.9100 10.2482
L14.9100 10.6482
"/>
<path d="M14.9100 13.1482
L14.9100 14.0482
"/>
</g>
<g style="fill:none; 
stroke:#E8B2A7; stroke-width:0.1400; stroke-opacity:1; 
stroke-linecap:round; stroke-linejoin:round;">
<path d="M16.3100 1.8482
L14.8100 1.8482
"/>
<path d="M16.3100 1.8482
L16.3100 3.3482
"/>
<path d="M16.3100 16.8483
L14.8100 16.8483
"/>
<path d="M16.3100 16.8483
L16.3100 15.3483
"/>
</g>
<g style="fill:none; 
stroke:#E8B2A7; stroke-width:0.1000; stroke-opacity:1; 
stroke-linecap:round; stroke-linejoin:round;">
<path d="M4.5100 12.1483 A0.5000 0.5000 0.0 0 0 4.0100 12.6483"/>
<path d="M8.6100 12.1482 A21.5127 21.5127 0.0 0 0 9.1100 12.1448"/>
<path d="M9.1100 12.1418 A2.2176 2.2176 0.0 0 0 10.8100 11.3483"/>
<path d="M11.6100 10.2483 A0.5099 0.5099 0.0 0 0 11.2110 10.6432"/>
<path d="M12.9100 16.0482 A2.0000 2.0000 0.0 0 0 14.9100 14.0482"/>
</g>
<g style="fill:none; 
stroke:#585D84; stroke-width:0.1000; stroke-opacity:1; 
stroke-linecap:round; stroke-linejoin:round;">
<path d="M4.0100 16.0482
L4.0100 12.6482
"/>
<path d="M4.5100 12.1482
L8.6100 12.1482
"/>
<path d="M10.9686 16.1499
L14.6688 16.1499
"/>
<path d="M12.9100 16.0482
L4.0100 16.0482
"/>
<path d="M14.9100 10.2482
L11.6100 10.2483
"/>
<path d="M14.9100 10.2482
L14.9100 14.0482
"/>
<path d="M15.1850 14.9733
L15.1850 15.6336
"/>
<path style="fill:none; 
stroke:#585D84; stroke-width:0.1000; stroke-opacity:1; 
stroke-linecap:round; stroke-linejoin:round;fill:none" d="M 16.3100,1.8482
1.3100,1.8482
1.3100,16.8483
16.3100,16.8483
Z"/> 
<path d="M4.5100 12.1483 A0.5000 0.5000 0.0 0 0 4.0100 12.6483"/>
<path d="M8.6100 12.1482 A21.5127 21.5127 0.0 0 0 9.1100 12.1448"/>
<path d="M9.1100 12.1448 A2.2205 2.2205 0.0 0 0 11.2097 10.6467"/>
<path d="M11.6100 10.2483 A0.5099 0.5099 0.0 0 0 11.2110 10.6432"/>
<path d="M12.9100 16.0482 A2.0000 2.0000 0.0 0 0 14.9100 14.0482"/>
<path d="M14.6688 16.1499 A0.5162 0.5162 0.0 0 0 15.1850 15.6336"/>
</g>
<g style="fill:#F2EDA1; fill-opacity:1.0000; stroke:none;">
<circle cx="5.0000" cy="11.8882" r="1.8000"/> 
</g>
<g style="fill:#F2EDA1; fill-opacity:1.0000; stroke:none;">
<circle cx="6.2700" cy="14.4282" r="1.8000"/> 
</g>
<g style="fill:#F2EDA1; fill-opacity:1.0000; stroke:none;">
<circle cx="11.3500" cy="14.4282" r="1.8000"/> 
</g>
<g style="fill:#F2EDA1; fill-opacity:1.0000; stroke:none;">
<circle cx="12.6200" cy="11.8882" r="1.8000"/> 
</g>
<g style="fill:#E8B2A7; fill-opacity:1.0000; stroke:none;">
<circle cx="5.0000" cy="11.8882" r="1.8000"/> 
</g>
<g style="fill:#E8B2A7; fill-opacity:1.0000; stroke:none;">
<circle cx="6.2700" cy="14.4282" r="1.8000"/> 
</g>
<g style="fill:#E8B2A7; fill-opacity:1.0000; stroke:none;">
<circle cx="11.3500" cy="14.4282" r="1.8000"/> 
</g>
<g style="fill:#E8B2A7; fill-opacity:1.0000; stroke:none;">
<circle cx="12.6200" cy="11.8882" r="1.8000"/> 
</g>
<g style="fill:#28CCD9; fill-opacity:1.0000; stroke:none;">
<circle cx="5.0000" cy="11.8882" r="1.8000"/> 
</g>
<g style="fill:#28CCD9; fill-opacity:1.0000; stroke:none;">
<circle cx="6.2700" cy="14.4282" r="1.8000"/> 
</g>
<g style="fill:#28CCD9; fill-opacity:1.0000; stroke:none;">
<circle cx="11.3500" cy="14.4282" r="1.8000"/> 
</g>
<g style="fill:#28CCD9; fill-opacity:1.0000; stroke:none;">
<circle cx="12.6200" cy="11.8882" r="1.8000"/> 
</g>
<g style="fill:#A7A5C6; fill-opacity:1.0000; stroke:none;">
<circle cx="5.0000" cy="11.8882" r="1.8000"/> 
</g>
<g style="fill:#A7A5C6; fill-opacity:1.0000; stroke:none;">
<circle cx="6.2700" cy="14.4282" r="1.8000"/> 
</g>
<g style="fill:#A7A5C6; fill-opacity:1.0000; stroke:none;">
<circle cx="11.3500" cy="14.4282" r="1.8000"/> 
</g>
<g style="fill:#A7A5C6; fill-opacity:1.0000; stroke:none;">
<circle cx="12.6200" cy="11.8882" r="1.8000"/> 
</g>
<g style="fill:#F76F8E; fill-opacity:1.0000; stroke:none;">
<circle cx="5.0000" cy="11.8882" r="1.8000"/> 
</g>
<g style="fill:#F76F8E; fill-opacity:1.0000; stroke:none;">
<circle cx="6.2700" cy="14.4282" r="1.8000"/> 
</g>
<g style="fill:#F76F8E; fill-opacity:1.0000; stroke:none;">
<circle cx="11.3500" cy="14.4282" r="1.8000"/> 
</g>
<g style="fill:#F76F8E; fill-opacity:1.0000; stroke:none;">
<circle cx="12.6200" cy="11.8882" r="1.8000"/> 
</g>
<g style="fill:#5BC3EB; fill-opacity:1.0000; stroke:none;">
<circle cx="5.0000" cy="11.8882" r="1.8000"/> 
</g>
<g style="fill:#5BC3EB; fill-opacity:1.0000; stroke:none;">
<circle cx="6.2700" cy="14.4282" r="1.8000"/> 
</g>
<g style="fill:#5BC3EB; fill-opacity:1.0000; stroke:none;">
<circle cx="11.3500" cy="14.4282" r="1.8000"/> 
</g>
<g style="fill:#5BC3EB; fill-opacity:1.0000; stroke:none;">
<circle cx="12.6200" cy="11.8882" r="1.8000"/> 
</g>
<g style="fill:#ED7C33; fill-opacity:1.0000; stroke:none;">
<circle cx="5.0000" cy="11.8882" r="1.8000"/> 
</g>
<g style="fill:#ED7C33; fill-opacity:1.0000; stroke:none;">
<circle cx="6.2700" cy="14.4282" r="1.8000"/> 
</g>
<g style="fill:#ED7C33; fill-opacity:1.0000; stroke:none;">
<circle cx="11.3500" cy="14.4282" r="1.8000"/> 
</g>
<g style="fill:#ED7C33; fill-opacity:1.0000; stroke:none;">
<circle cx="12.6200" cy="11.8882" r="1.8000"/> 
</g>
<g style="fill:#F2EDA1; fill-opacity:1.0000; stroke:none;">
<circle cx="5.0000" cy="11.8882" r="1.8000"/> 
</g>
<g style="fill:#F2EDA1; fill-opacity:1.0000; stroke:none;">
<circle cx="6.2700" cy="14.4282" r="1.8000"/> 
</g>
<g style="fill:#F2EDA1; fill-opacity:1.0000; stroke:none;">
<circle cx="11.3500" cy="14.4282" r="1.8000"/> 
</g>
<g style="fill:#F2EDA1; fill-opacity:1.0000; stroke:none;">
<circle cx="12.6200" cy="11.8882" r="1.8000"/> 
</g>
<g style="fill:#E8B2A7; fill-opacity:1.0000; stroke:none;">
<circle cx="5.0000" cy="11.8882" r="1.8000"/> 
</g>
<g style="fill:#E8B2A7; fill-opacity:1.0000; stroke:none;">
<circle cx="6.2700" cy="14.4282" r="1.8000"/> 
</g>
<g style="fill:#E8B2A7; fill-opacity:1.0000; stroke:none;">
<circle cx="11.3500" cy="14.4282" r="1.8000"/> 
</g>
<g style="fill:#E8B2A7; fill-opacity:1.0000; stroke:none;">
<circle cx="12.6200" cy="11.8882" r="1.8000"/> 
</g>
<g style="fill:#28CCD9; fill-opacity:1.0000; stroke:none;">
<circle cx="5.0000" cy="11.8882" r="1.8000"/> 
</g>
<g style="fill:#28CCD9; fill-opacity:1.0000; stroke:none;">
<circle cx="6.2700" cy="14.4282" r="1.8000"/> 
</g>
<g style="fill:#28CCD9; fill-opacity:1.0000; stroke:none;">
<circle cx="11.3500" cy="14.4282" r="1.8000"/> 
</g>
<g style="fill:#28CCD9; fill-opacity:1.0000; stroke:none;">
<circle cx="12.6200" cy="11.8882" r="1.8000"/> 
</g>
<g style="fill:#A7A5C6; fill-opacity:1.0000; stroke:none;">
<circle cx="5.0000" cy="11.8882" r="1.8000"/> 
</g>
<g style="fill:#A7A5C6; fill-opacity:1.0000; stroke:none;">
<circle cx="6.2700" cy="14.4282" r="1.8000"/> 
</g>
<g style="fill:#A7A5C6; fill-opacity:1.0000; stroke:none;">
<circle cx="11.3500" cy="14.4282" r="1.8000"/> 
</g>
<g style="fill:#A7A5C6; fill-opacity:1.0000; stroke:none;">
<circle cx="12.6200" cy="11.8882" r="1.8000"/> 
</g>
<g style="fill:#F76F8E; fill-opacity:1.0000; stroke:none;">
<circle cx="5.0000" cy="11.8882" r="1.8000"/> 
</g>
<g style="fill:#F76F8E; fill-opacity:1.0000; stroke:none;">
<circle cx="6.2700" cy="14.4282" r="1.8000"/> 
</g>
<g style="fill:#F76F8E; fill-opacity:1.0000; stroke:none;">
<circle cx="11.3500" cy="14.4282" r="1.8000"/> 
</g>
<g style="fill:#F76F8E; fill-opacity:1.0000; stroke:none;">
<circle cx="12.6200" cy="11.8882" r="1.8000"/> 
</g>
<g style="fill:#5BC3EB; fill-opacity:1.0000; stroke:none;">
<circle cx="5.0000" cy="11.8882" r="1.8000"/> 
</g>
<g style="fill:#5BC3EB; fill-opacity:1.0000; stroke:none;">
<circle cx="6.2700" cy="14.4282" r="1.8000"/> 
</g>
<g style="fill:#5BC3EB; fill-opacity:1.0000; stroke:none;">
<circle cx="11.3500" cy="14.4282" r="1.8000"/> 
</g>
<g style="fill:#5BC3EB; fill-opacity:1.0000; stroke:none;">
<circle cx="12.6200" cy="11.8882" r="1.8000"/> 
</g>
<g style="fill:#ED7C33; fill-opacity:1.0000; stroke:none;">
<circle cx="5.0000" cy="11.8882" r="1.8000"/> 
</g>
<g style="fill:#ED7C33; fill-opacity:1.0000; stroke:none;">
<circle cx="6.2700" cy="14.4282" r="1.8000"/> 
</g>
<g style="fill:#ED7C33; fill-opacity:1.0000; stroke:none;">
<circle cx="11.3500" cy="14.4282" r="1.8000"/> 
</g>
<g style="fill:#ED7C33; fill-opacity:1.0000; stroke:none;">
<circle cx="12.6200" cy="11.8882" r="1.8000"/> 
</g>
<g style="fill:#F2EDA1; fill-opacity:1.0000; stroke:none;">
<circle cx="5.0000" cy="11.8882" r="1.8000"/> 
</g>
<g style="fill:#F2EDA1; fill-opacity:1.0000; stroke:none;">
<circle cx="6.2700" cy="14.4282" r="1.8000"/> 
</g>
<g style="fill:#F2EDA1; fill-opacity:1.0000; stroke:none;">
<circle cx="11.3500" cy="14.4282" r="1.8000"/> 
</g>
<g style="fill:#F2EDA1; fill-opacity:1.0000; stroke:none;">
<circle cx="12.6200" cy="11.8882" r="1.8000"/> 
</g>
<g style="fill:#E8B2A7; fill-opacity:1.0000; stroke:none;">
<circle cx="5.0000" cy="11.8882" r="1.8000"/> 
</g>
<g style="fill:#E8B2A7; fill-opacity:1.0000; stroke:none;">
<circle cx="6.2700" cy="14.4282" r="1.8000"/> 
</g>
<g style="fill:#E8B2A7; fill-opacity:1.0000; stroke:none;">
<circle cx="11.3500" cy="14.4282" r="1.8000"/> 
</g>
<g style="fill:#E8B2A7; fill-opacity:1.0000; stroke:none;">
<circle cx="12.6200" cy="11.8882" r="1.8000"/> 
</g>
<g style="fill:#28CCD9; fill-opacity:1.0000; stroke:none;">
<circle cx="5.0000" cy="11.8882" r="1.8000"/> 
</g>
<g style="fill:#28CCD9; fill-opacity:1.0000; stroke:none;">
<circle cx="6.2700" cy="14.4282" r="1.8000"/> 
</g>
<g style="fill:#28CCD9; fill-opacity:1.0000; stroke:none;">
<circle cx="11.3500" cy="14.4282" r="1.8000"/> 
</g>
<g style="fill:#28CCD9; fill-opacity:1.0000; stroke:none;">
<circle cx="12.6200" cy="11.8882" r="1.8000"/> 
</g>
<g style="fill:#A7A5C6; fill-opacity:1.0000; stroke:none;">
<circle cx="5.0000" cy="11.8882" r="1.8000"/> 
</g>
<g style="fill:#A7A5C6; fill-opacity:1.0000; stroke:none;">
<circle cx="6.2700" cy="14.4282" r="1.8000"/> 
</g>
<g style="fill:#A7A5C6; fill-opacity:1.0000; stroke:none;">
<circle cx="11.3500" cy="14.4282" r="1.8000"/> 
</g>
<g style="fill:#A7A5C6; fill-opacity:1.0000; stroke:none;">
<circle cx="12.6200" cy="11.8882" r="1.8000"/> 
</g>
<g style="fill:#F76F8E; fill-opacity:1.0000; stroke:none;">
<circle cx="5.0000" cy="11.8882" r="1.8000"/> 
</g>
<g style="fill:#F76F8E; fill-opacity:1.0000; stroke:none;">
<circle cx="6.2700" cy="14.4282" r="1.8000"/> 
</g>
<g style="fill:#F76F8E; fill-opacity:1.0000; stroke:none;">
<circle cx="11.3500" cy="14.4282" r="1.8000"/> 
</g>
<g style="fill:#F76F8E; fill-opacity:1.0000; stroke:none;">
<circle cx="12.6200" cy="11.8882" r="1.8000"/> 
</g>
<g style="fill:#5BC3EB; fill-opacity:1.0000; stroke:none;">
<circle cx="5.0000" cy="11.8882" r="1.8000"/> 
</g>
<g style="fill:#5BC3EB; fill-opacity:1.0000; stroke:none;">
<circle cx="6.2700" cy="14.4282" r="1.8000"/> 
</g>
<g style="fill:#5BC3EB; fill-opacity:1.0000; stroke:none;">
<circle cx="11.3500" cy="14.4282" r="1.8000"/> 
</g>
<g style="fill:#5BC3EB; fill-opacity:1.0000; stroke:none;">
<circle cx="12.6200" cy="11.8882" r="1.8000"/> 
</g>
<g style="fill:#ED7C33; fill-opacity:1.0000; stroke:none;">
<circle cx="5.0000" cy="11.8882" r="1.8000"/> 
</g>
<g style="fill:#ED7C33; fill-opacity:1.0000; stroke:none;">
<circle cx="6.2700" cy="14.4282" r="1.8000"/> 
</g>
<g style="fill:#ED7C33; fill-opacity:1.0000; stroke:none;">
<circle cx="11.3500" cy="14.4282" r="1.8000"/> 
</g>
<g style="fill:#ED7C33; fill-opacity:1.0000; stroke:none;">
<circle cx="12.6200" cy="11.8882" r="1.8000"/> 
</g>
<g style="fill:#8DCB81; fill-opacity:1.0000; stroke:none;">
<circle cx="5.0000" cy="11.8882" r="1.8000"/> 
</g>
<g style="fill:#8DCB81; fill-opacity:1.0000; stroke:none;">
<circle cx="6.2700" cy="14.4282" r="1.8000"/> 
</g>
<g style="fill:#8DCB81; fill-opacity:1.0000; stroke:none;">
<circle cx="11.3500" cy="14.4282" r="1.8000"/> 
</g>
<g style="fill:#8DCB81; fill-opacity:1.0000; stroke:none;">
<circle cx="12.6200" cy="11.8882" r="1.8000"/> 
</g>
<g style="fill:#F2EDA1; fill-opacity:1.0000; stroke:none;">
<circle cx="5.0000" cy="11.8882" r="1.8000"/> 
</g>
<g style="fill:#F2EDA1; fill-opacity:1.0000; stroke:none;">
<circle cx="6.2700" cy="14.4282" r="1.8000"/> 
</g>
<g style="fill:#F2EDA1; fill-opacity:1.0000; stroke:none;">
<circle cx="11.3500" cy="14.4282" r="1.8000"/> 
</g>
<g style="fill:#F2EDA1; fill-opacity:1.0000; stroke:none;">
<circle cx="12.6200" cy="11.8882" r="1.8000"/> 
</g>
<g style="fill:#E8B2A7; fill-opacity:1.0000; stroke:none;">
<circle cx="5.0000" cy="11.8882" r="1.8000"/> 
</g>
<g style="fill:#E8B2A7; fill-opacity:1.0000; stroke:none;">
<circle cx="6.2700" cy="14.4282" r="1.8000"/> 
</g>
<g style="fill:#E8B2A7; fill-opacity:1.0000; stroke:none;">
<circle cx="11.3500" cy="14.4282" r="1.8000"/> 
</g>
<g style="fill:#E8B2A7; fill-opacity:1.0000; stroke:none;">
<circle cx="12.6200" cy="11.8882" r="1.8000"/> 
</g>
<g style="fill:#28CCD9; fill-opacity:1.0000; stroke:none;">
<circle cx="5.0000" cy="11.8882" r="1.8000"/> 
</g>
<g style="fill:#28CCD9; fill-opacity:1.0000; stroke:none;">
<circle cx="6.2700" cy="14.4282" r="1.8000"/> 
</g>
<g style="fill:#28CCD9; fill-opacity:1.0000; stroke:none;">
<circle cx="11.3500" cy="14.4282" r="1.8000"/> 
</g>
<g style="fill:#28CCD9; fill-opacity:1.0000; stroke:none;">
<circle cx="12.6200" cy="11.8882" r="1.8000"/> 
</g>
<g style="fill:#A7A5C6; fill-opacity:1.0000; stroke:none;">
<circle cx="5.0000" cy="11.8882" r="1.8000"/> 
</g>
<g style="fill:#A7A5C6; fill-opacity:1.0000; stroke:none;">
<circle cx="6.2700" cy="14.4282" r="1.8000"/> 
</g>
<g style="fill:#A7A5C6; fill-opacity:1.0000; stroke:none;">
<circle cx="11.3500" cy="14.4282" r="1.8000"/> 
</g>
<g style="fill:#A7A5C6; fill-opacity:1.0000; stroke:none;">
<circle cx="12.6200" cy="11.8882" r="1.8000"/> 
</g>
<g style="fill:#DB628B; fill-opacity:1.0000; stroke:none;">
<circle cx="5.0000" cy="11.8882" r="1.8000"/> 
</g>
<g style="fill:#DB628B; fill-opacity:1.0000; stroke:none;">
<circle cx="6.2700" cy="14.4282" r="1.8000"/> 
</g>
<g style="fill:#DB628B; fill-opacity:1.0000; stroke:none;">
<circle cx="11.3500" cy="14.4282" r="1.8000"/> 
</g>
<g style="fill:#DB628B; fill-opacity:1.0000; stroke:none;">
<circle cx="12.6200" cy="11.8882" r="1.8000"/> 
</g>
<g style="fill:#4FCBCB; fill-opacity:1.0000; stroke:none;">
<circle cx="5.0000" cy="11.8882" r="1.8000"/> 
</g>
<g style="fill:#4FCBCB; fill-opacity:1.0000; stroke:none;">
<circle cx="6.2700" cy="14.4282" r="1.8000"/> 
</g>
<g style="fill:#4FCBCB; fill-opacity:1.0000; stroke:none;">
<circle cx="11.3500" cy="14.4282" r="1.8000"/> 
</g>
<g style="fill:#4FCBCB; fill-opacity:1.0000; stroke:none;">
<circle cx="12.6200" cy="11.8882" r="1.8000"/> 
</g>
<g style="fill:#CE7D2C; fill-opacity:1.0000; stroke:none;">
<circle cx="5.0000" cy="11.8882" r="1.8000"/> 
</g>
<g style="fill:#CE7D2C; fill-opacity:1.0000; stroke:none;">
<circle cx="6.2700" cy="14.4282" r="1.8000"/> 
</g>
<g style="fill:#CE7D2C; fill-opacity:1.0000; stroke:none;">
<circle cx="11.3500" cy="14.4282" r="1.8000"/> 
</g>
<g style="fill:#CE7D2C; fill-opacity:1.0000; stroke:none;">
<circle cx="12.6200" cy="11.8882" r="1.8000"/> 
</g>
<g style="fill:#7FC87F; fill-opacity:1.0000; stroke:none;">
<circle cx="5.0000" cy="11.8882" r="1.8000"/> 
</g>
<g style="fill:#7FC87F; fill-opacity:1.0000; stroke:none;">
<circle cx="6.2700" cy="14.4282" r="1.8000"/> 
</g>
<g style="fill:#7FC87F; fill-opacity:1.0000; stroke:none;">
<circle cx="11.3500" cy="14.4282" r="1.8000"/> 
</g>
<g style="fill:#7FC87F; fill-opacity:1.0000; stroke:none;">
<circle cx="12.6200" cy="11.8882" r="1.8000"/> 
<path style="fill:#C83434; fill-opacity:1.0000; stroke:none;fill-rule:evenodd;" d="M 0.0000,11.1132
0.0114,11.0070
0.0612,10.8736
0.1464,10.7597
0.2604,10.6744
0.3937,10.6247
0.5000,10.6132
2.0000,10.6132
2.1063,10.6247
2.2396,10.6744
2.3536,10.7597
2.4388,10.8736
2.4886,11.0070
2.5000,11.1132
2.5000,12.6632
2.4886,12.7695
2.4388,12.9029
2.3536,13.0168
2.2396,13.1021
2.1063,13.1518
2.0000,13.1632
0.5000,13.1632
0.3937,13.1518
0.2604,13.1021
0.1464,13.0168
0.0612,12.9029
0.0114,12.7695
0.0000,12.6632
Z"/> 
<path style="fill:#C83434; fill-opacity:1.0000; stroke:none;fill-rule:evenodd;" d="M 1.3100,12.3882
1.3100,11.3882
4.3100,11.3882
4.3100,12.3882
Z"/> 
</g>
<g style="fill:#C83434; fill-opacity:1.0000; stroke:none;">
<circle cx="5.0000" cy="11.8882" r="1.8000"/> 
</g>
<g style="fill:#C83434; fill-opacity:1.0000; stroke:none;">
<circle cx="6.2700" cy="14.4282" r="1.8000"/> 
</g>
<g style="fill:#C83434; fill-opacity:1.0000; stroke:none;">
<circle cx="11.3500" cy="14.4282" r="1.8000"/> 
</g>
<g style="fill:#C83434; fill-opacity:1.0000; stroke:none;">
<circle cx="12.6200" cy="11.8882" r="1.8000"/> 
<path style="fill:#C83434; fill-opacity:1.0000; stroke:none;fill-rule:evenodd;" d="M 11.8100,14.9282
11.8100,13.9283
14.8100,13.9283
14.8100,14.9282
Z"/> 
<path style="fill:#C83434; fill-opacity:1.0000; stroke:none;fill-rule:evenodd;" d="M 13.8500,13.6532
13.8614,13.5470
13.9112,13.4136
13.9964,13.2997
14.1104,13.2144
14.2437,13.1647
14.3500,13.1532
15.8500,13.1532
15.9563,13.1647
16.0896,13.2144
16.2036,13.2997
16.2888,13.4136
16.3386,13.5470
16.3500,13.6532
16.3500,15.2032
16.3386,15.3095
16.2888,15.4429
16.2036,15.5568
16.0896,15.6421
15.9563,15.6918
15.8500,15.7032
14.3500,15.7032
14.2437,15.6918
14.1104,15.6421
13.9964,15.5568
13.9112,15.4429
13.8614,15.3095
13.8500,15.2032
Z"/> 
</g>
<g style="fill:#D864FF; fill-opacity:0.4000; stroke:none;">
<circle cx="3.7300" cy="9.3483" r="0.8500"/> 
</g>
<g style="fill:#D864FF; fill-opacity:0.4000; stroke:none;">
<circle cx="8.8100" cy="9.3483" r="2.0000"/> 
</g>
<g style="fill:#D864FF; fill-opacity:0.4000; stroke:none;">
<circle cx="13.8900" cy="9.3483" r="0.8500"/> 
<path style="fill:#D864FF; fill-opacity:0.4000; stroke:none;fill-rule:evenodd;" d="M 0.0000,11.1132
0.0114,11.0070
0.0612,10.8736
0.1464,10.7597
0.2604,10.6744
0.3937,10.6247
0.5000,10.6132
2.0000,10.6132
2.1063,10.6247
2.2396,10.6744
2.3536,10.7597
2.4388,10.8736
2.4886,11.0070
2.5000,11.1132
2.5000,12.6632
2.4886,12.7695
2.4388,12.9029
2.3536,13.0168
2.2396,13.1021
2.1063,13.1518
2.0000,13.1632
0.5000,13.1632
0.3937,13.1518
0.2604,13.1021
0.1464,13.0168
0.0612,12.9029
0.0114,12.7695
0.0000,12.6632
Z"/> 
</g>
<g style="fill:#D864FF; fill-opacity:0.4000; stroke:none;">
<circle cx="5.0000" cy="11.8882" r="1.8000"/> 
</g>
<g style="fill:#D864FF; fill-opacity:0.4000; stroke:none;">
<circle cx="11.3500" cy="14.4282" r="1.8000"/> 
<path style="fill:#D864FF; fill-opacity:0.4000; stroke:none;fill-rule:evenodd;" d="M 13.8500,13.6532
13.8614,13.5470
13.9112,13.4136
13.9964,13.2997
14.1104,13.2144
14.2437,13.1647
14.3500,13.1532
15.8500,13.1532
15.9563,13.1647
16.0896,13.2144
16.2036,13.2997
16.2888,13.4136
16.3386,13.5470
16.3500,13.6532
16.3500,15.2032
16.3386,15.3095
16.2888,15.4429
16.2036,15.5568
16.0896,15.6421
15.9563,15.6918
15.8500,15.7032
14.3500,15.7032
14.2437,15.6918
14.1104,15.6421
13.9964,15.5568
13.9112,15.4429
13.8614,15.3095
13.8500,15.2032
Z"/> 
<path style="fill:#B4A09A; fill-opacity:0.9000; stroke:none;fill-rule:evenodd;" d="M 0.0000,11.1132
0.0114,11.0070
0.0612,10.8736
0.1464,10.7597
0.2604,10.6744
0.3937,10.6247
0.5000,10.6132
2.0000,10.6132
2.1063,10.6247
2.2396,10.6744
2.3536,10.7597
2.4388,10.8736
2.4886,11.0070
2.5000,11.1132
2.5000,12.6632
2.4886,12.7695
2.4388,12.9029
2.3536,13.0168
2.2396,13.1021
2.1063,13.1518
2.0000,13.1632
0.5000,13.1632
0.3937,13.1518
0.2604,13.1021
0.1464,13.0168
0.0612,12.9029
0.0114,12.7695
0.0000,12.6632
Z"/> 
<path style="fill:#B4A09A; fill-opacity:0.9000; stroke:none;fill-rule:evenodd;" d="M 13.8500,13.6532
13.8614,13.5470
13.9112,13.4136
13.9964,13.2997
14.1104,13.2144
14.2437,13.1647
14.3500,13.1532
15.8500,13.1532
15.9563,13.1647
16.0896,13.2144
16.2036,13.2997
16.2888,13.4136
16.3386,13.5470
16.3500,13.6532
16.3500,15.2032
16.3386,15.3095
16.2888,15.4429
16.2036,15.5568
16.0896,15.6421
15.9563,15.6918
15.8500,15.7032
14.3500,15.7032
14.2437,15.6918
14.1104,15.6421
13.9964,15.5568
13.9112,15.4429
13.8614,15.3095
13.8500,15.2032
Z"/> 
</g>
<g style="fill:none; 
stroke:#F2EDA1; stroke-width:0.1400; stroke-opacity:1; 
stroke-linecap:round; stroke-linejoin:round;">
<path d="M1.3100 1.8482
L1.3100 3.3482
"/>
<path d="M1.3100 1.8482
L2.8100 1.8482
"/>
<path d="M1.3100 16.8483
L1.3100 15.3483
"/>
<path d="M1.3100 16.8483
L2.8100 16.8483
"/>
</g>
<g style="fill:none; 
stroke:#F2EDA1; stroke-width:0.1000; stroke-opacity:1; 
stroke-linecap:round; stroke-linejoin:round;">
<path d="M2.7100 10.2482
L2.7100 10.6482
"/>
<path d="M2.7100 10.2482
L4.0100 10.2483
"/>
<path d="M2.7100 13.1482
L2.7100 14.0482
"/>
<path d="M4.7100 16.0482
L10.2100 16.0482
"/>
<path d="M12.5100 16.0482
L13.6100 16.0482
"/>
<path d="M13.1100 12.1482
L9.0100 12.1482
"/>
<path d="M13.6100 13.1482
L13.6100 12.6482
"/>
<path d="M13.6100 16.0482
L13.6100 15.6482
"/>
</g>
<g style="fill:none; 
stroke:#F2EDA1; stroke-width:0.1400; stroke-opacity:1; 
stroke-linecap:round; stroke-linejoin:round;">
<path d="M16.3100 1.8482
L14.8100 1.8482
"/>
<path d="M16.3100 1.8482
L16.3100 3.3482
"/>
<path d="M16.3100 16.8483
L14.8100 16.8483
"/>
<path d="M16.3100 16.8483
L16.3100 15.3483
"/>
</g>
<g style="fill:none; 
stroke:#F2EDA1; stroke-width:0.1000; stroke-opacity:1; 
stroke-linecap:round; stroke-linejoin:round;">
<path d="M2.7100 14.0482 A2.0000 2.0000 0.0 0 0 4.7100 16.0482"/>
<path d="M6.4090 10.6432 A0.5099 0.5099 0.0 0 0 6.0100 10.2483"/>
<path d="M6.8100 11.3482 A2.2176 2.2176 0.0 0 0 8.5100 12.1418"/>
<path d="M8.5100 12.1448 A21.5126 21.5126 0.0 0 0 9.0100 12.1482"/>
<path d="M13.6100 12.6482 A0.5000 0.5000 0.0 0 0 13.1100 12.1482"/>
<path style="fill:none; 
stroke:#FF26E2; stroke-width:0.0500; stroke-opacity:1; 
stroke-linecap:round; stroke-linejoin:round;fill:none" d="M 0.5600,1.0982
17.0600,1.0982
17.0600,17.5983
0.5600,17.5983
Z"/> 
</g>
<g style="fill:none; 
stroke:#AFAFAF; stroke-width:0.1500; stroke-opacity:1; 
stroke-linecap:round; stroke-linejoin:round;">
<text x="8.8100" y="1.3482" textLength="4.5357" font-size="1.3333" lengthAdjust="spacingAndGlyphs" text-anchor="middle" opacity="0" stroke-opacity="0">REF**</text>
<g class="stroked-text"><desc>REF**</desc>
<path d="M7.4767 1.3031
L7.1433 0.8269
"/>
<path d="M6.9052 1.3031
L6.9052 0.3031
"/>
<path d="M6.9052 0.3031
L7.2862 0.3031
"/>
<path d="M7.2862 0.3031
L7.3814 0.3507
"/>
<path d="M7.3814 0.3507
L7.4290 0.3983
"/>
<path d="M7.4290 0.3983
L7.4767 0.4935
"/>
<path d="M7.4767 0.4935
L7.4767 0.6364
"/>
<path d="M7.4767 0.6364
L7.4290 0.7316
"/>
<path d="M7.4290 0.7316
L7.3814 0.7793
"/>
<path d="M7.3814 0.7793
L7.2862 0.8269
"/>
<path d="M7.2862 0.8269
L6.9052 0.8269
"/>
<path d="M7.9052 0.7793
L8.2386 0.7793
"/>
<path d="M8.3814 1.3031
L7.9052 1.3031
"/>
<path d="M7.9052 1.3031
L7.9052 0.3031
"/>
<path d="M7.9052 0.3031
L8.3814 0.3031
"/>
<path d="M9.1433 0.7793
L8.8100 0.7793
"/>
<path d="M8.8100 1.3031
L8.8100 0.3031
"/>
<path d="M8.8100 0.3031
L9.2862 0.3031
"/>
<path d="M9.8100 0.3031
L9.8100 0.5412
"/>
<path d="M9.5719 0.4459
L9.8100 0.5412
"/>
<path d="M9.8100 0.5412
L10.0481 0.4459
"/>
<path d="M9.6671 0.7316
L9.8100 0.5412
"/>
<path d="M9.8100 0.5412
L9.9529 0.7316
"/>
<path d="M10.5719 0.3031
L10.5719 0.5412
"/>
<path d="M10.3338 0.4459
L10.5719 0.5412
"/>
<path d="M10.5719 0.5412
L10.8100 0.4459
"/>
<path d="M10.4290 0.7316
L10.5719 0.5412
"/>
<path d="M10.5719 0.5412
L10.7148 0.7316
"/>
</g></g>
<g style="fill:none; 
stroke:#AFAFAF; stroke-width:0.1000; stroke-opacity:1; 
stroke-linecap:round; stroke-linejoin:round;">
<path d="M2.4350 14.9733
L2.4350 15.6336
"/>
<path d="M2.7100 10.2482
L2.7100 14.0482
"/>
<path d="M2.7100 10.2482
L6.0100 10.2483
"/>
<path d="M4.7100 16.0482
L13.6100 16.0482
"/>
<path d="M6.6514 16.1499
L2.9512 16.1499
"/>
<path d="M13.1100 12.1482
L9.0100 12.1482
"/>
<path d="M13.6100 16.0482
L13.6100 12.6482
"/>
<path d="M2.4350 15.6336 A0.5162 0.5162 0.0 0 0 2.9512 16.1499"/>
<path d="M2.7100 14.0482 A2.0000 2.0000 0.0 0 0 4.7100 16.0482"/>
<path d="M6.4090 10.6432 A0.5099 0.5099 0.0 0 0 6.0100 10.2483"/>
<path d="M6.4103 10.6467 A2.2205 2.2205 0.0 0 0 8.5100 12.1448"/>
<path d="M8.5100 12.1448 A21.5126 21.5126 0.0 0 0 9.0100 12.1482"/>
<path d="M13.6100 12.6482 A0.5000 0.5000 0.0 0 0 13.1100 12.1482"/>
<path style="fill:#AFAFAF; fill-opacity:1.0000; stroke:none;fill-rule:evenodd;" d="M 9.3600,8.7233
10.8100,8.7233
10.8100,9.9733
9.3600,9.9733
9.3600,11.3483
8.2600,11.3483
8.2600,9.9733
6.8100,9.9733
6.8100,8.7233
8.2600,8.7233
8.2600,7.3482
9.3600,7.3482
Z"/> 
</g> 
</svg>
