<?xml version="1.0" standalone="no"?>
 <!DOCTYPE svg PUBLIC "-//W3C//DTD SVG 1.1//EN" 
 "http://www.w3.org/Graphics/SVG/1.1/DTD/svg11.dtd"> 
<svg xmlns:svg="http://www.w3.org/2000/svg" xmlns="http://www.w3.org/2000/svg" xmlns:xlink="http://www.w3.org/1999/xlink" version="1.1" width="100%" height="100%" viewBox="0.0000 0.0000 18.2626 17.6276" preserveAspectRatio="xMidYMid meet"><rect width="100%" height="100%" fill="black"/>
<title>SVG Image created as SW_MX_Kailh_Choc_V1V2_HotSwap_Hybrid.svg date 2025/11/03 22:13:35 </title>
  <desc>Image generated by PCBNEW </desc>
<g style="fill:#000000; fill-opacity:1.0000;stroke:#000000; stroke-opacity:1.0000;
stroke-linecap:round; stroke-linejoin:round;" transform="translate(0 0) scale(1 1)">
<path style="fill:#4D7FC4; fill-opacity:1.0000; stroke:none;fill-rule:evenodd;" d="M 12.4000,14.4682
12.4119,14.3577
12.4636,14.2190
12.5523,14.1006
12.6708,14.0119
12.8095,13.9601
12.9200,13.9482
14.4800,13.9482
14.5905,13.9601
14.7292,14.0119
14.8477,14.1006
14.9364,14.2190
14.9881,14.3577
15.0000,14.4682
15.0000,16.0282
14.9881,16.1388
14.9364,16.2775
14.8477,16.3959
14.7292,16.4846
14.5905,16.5364
14.4800,16.5482
12.9200,16.5482
12.8095,16.5364
12.6708,16.4846
12.5523,16.3959
12.4636,16.2775
12.4119,16.1388
12.4000,16.0282
Z"/> 
</g>
<g style="fill:#4D7FC4; fill-opacity:1.0000; stroke:none;">
<circle cx="15.0000" cy="4.1982" r="0.7250"/> 
<path style="fill:#4D7FC4; fill-opacity:1.0000; stroke:none;fill-rule:evenodd;" d="M 17.5400,5.0432
17.5286,5.1495
17.4788,5.2829
17.3936,5.3968
17.2796,5.4821
17.1463,5.5318
17.0400,5.5432
15.5400,5.5432
15.4337,5.5318
15.3004,5.4821
15.1864,5.3968
15.1012,5.2829
15.0514,5.1495
15.0400,5.0432
15.0400,3.4932
15.0514,3.3870
15.1012,3.2536
15.1864,3.1397
15.3004,3.0544
15.4337,3.0047
15.5400,2.9932
17.0400,2.9932
17.1463,3.0047
17.2796,3.0544
17.3936,3.1397
17.4788,3.2536
17.5286,3.3870
17.5400,3.4932
Z"/> 
<path style="fill:#4D7FC4; fill-opacity:1.0000; stroke:none;fill-rule:evenodd;" d="M 0.0000,12.3682
0.0119,12.2577
0.0636,12.1190
0.1523,12.0006
0.2708,11.9119
0.4095,11.8601
0.5200,11.8483
2.0800,11.8483
2.1905,11.8601
2.3292,11.9119
2.4477,12.0006
2.5364,12.1190
2.5881,12.2577
2.6000,12.3682
2.6000,13.9283
2.5881,14.0388
2.5364,14.1775
2.4477,14.2959
2.3292,14.3846
2.1905,14.4364
2.0800,14.4482
0.5200,14.4482
0.4095,14.4364
0.2708,14.3846
0.1523,14.2959
0.0636,14.1775
0.0119,14.0388
0.0000,13.9283
Z"/> 
<path style="fill:#4D7FC4; fill-opacity:1.0000; stroke:none;fill-rule:evenodd;" d="M 3.6900,7.5832
3.6786,7.6895
3.6288,7.8229
3.5436,7.9368
3.4296,8.0221
3.2963,8.0718
3.1900,8.0832
1.6900,8.0832
1.5837,8.0718
1.4504,8.0221
1.3364,7.9368
1.2512,7.8229
1.2014,7.6895
1.1900,7.5832
1.1900,6.0332
1.2014,5.9270
1.2512,5.7936
1.3364,5.6797
1.4504,5.5944
1.5837,5.5447
1.6900,5.5332
3.1900,5.5332
3.2963,5.5447
3.4296,5.5944
3.5436,5.6797
3.6288,5.7936
3.6786,5.9270
3.6900,6.0332
Z"/> 
</g>
<g style="fill:#02FFEE; fill-opacity:0.4000; stroke:none;">
<circle cx="4.5000" cy="9.3483" r="0.8509"/> 
</g>
<g style="fill:#02FFEE; fill-opacity:0.4000; stroke:none;">
<circle cx="4.9200" cy="9.3483" r="0.8500"/> 
</g>
<g style="fill:#02FFEE; fill-opacity:0.4000; stroke:none;">
<circle cx="5.0000" cy="13.1482" r="1.5000"/> 
</g>
<g style="fill:#02FFEE; fill-opacity:0.4000; stroke:none;">
<circle cx="6.1900" cy="6.8083" r="1.5000"/> 
</g>
<g style="fill:#02FFEE; fill-opacity:0.4000; stroke:none;">
<circle cx="10.0000" cy="9.3483" r="2.5000"/> 
</g>
<g style="fill:#02FFEE; fill-opacity:0.4000; stroke:none;">
<circle cx="10.0000" cy="15.2482" r="1.5000"/> 
</g>
<g style="fill:#02FFEE; fill-opacity:0.4000; stroke:none;">
<circle cx="12.5400" cy="4.2683" r="1.5000"/> 
</g>
<g style="fill:#02FFEE; fill-opacity:0.4000; stroke:none;">
<circle cx="15.0800" cy="9.3483" r="0.8500"/> 
</g>
<g style="fill:#02FFEE; fill-opacity:0.4000; stroke:none;">
<circle cx="15.5000" cy="9.3483" r="0.8509"/> 
<path style="fill:#02FFEE; fill-opacity:0.4000; stroke:none;fill-rule:evenodd;" d="M 12.4000,14.4682
12.4119,14.3577
12.4636,14.2190
12.5523,14.1006
12.6708,14.0119
12.8095,13.9601
12.9200,13.9482
14.4800,13.9482
14.5905,13.9601
14.7292,14.0119
14.8477,14.1006
14.9364,14.2190
14.9881,14.3577
15.0000,14.4682
15.0000,16.0282
14.9881,16.1388
14.9364,16.2775
14.8477,16.3959
14.7292,16.4846
14.5905,16.5364
14.4800,16.5482
12.9200,16.5482
12.8095,16.5364
12.6708,16.4846
12.5523,16.3959
12.4636,16.2775
12.4119,16.1388
12.4000,16.0282
Z"/> 
</g>
<g style="fill:#02FFEE; fill-opacity:0.4000; stroke:none;">
<circle cx="15.0000" cy="4.1982" r="0.7250"/> 
<path style="fill:#02FFEE; fill-opacity:0.4000; stroke:none;fill-rule:evenodd;" d="M 17.5400,5.0432
17.5286,5.1495
17.4788,5.2829
17.3936,5.3968
17.2796,5.4821
17.1463,5.5318
17.0400,5.5432
15.5400,5.5432
15.4337,5.5318
15.3004,5.4821
15.1864,5.3968
15.1012,5.2829
15.0514,5.1495
15.0400,5.0432
15.0400,3.4932
15.0514,3.3870
15.1012,3.2536
15.1864,3.1397
15.3004,3.0544
15.4337,3.0047
15.5400,2.9932
17.0400,2.9932
17.1463,3.0047
17.2796,3.0544
17.3936,3.1397
17.4788,3.2536
17.5286,3.3870
17.5400,3.4932
Z"/> 
<path style="fill:#02FFEE; fill-opacity:0.4000; stroke:none;fill-rule:evenodd;" d="M 0.0000,12.3682
0.0119,12.2577
0.0636,12.1190
0.1523,12.0006
0.2708,11.9119
0.4095,11.8601
0.5200,11.8483
2.0800,11.8483
2.1905,11.8601
2.3292,11.9119
2.4477,12.0006
2.5364,12.1190
2.5881,12.2577
2.6000,12.3682
2.6000,13.9283
2.5881,14.0388
2.5364,14.1775
2.4477,14.2959
2.3292,14.3846
2.1905,14.4364
2.0800,14.4482
0.5200,14.4482
0.4095,14.4364
0.2708,14.3846
0.1523,14.2959
0.0636,14.1775
0.0119,14.0388
0.0000,13.9283
Z"/> 
<path style="fill:#02FFEE; fill-opacity:0.4000; stroke:none;fill-rule:evenodd;" d="M 3.6900,7.5832
3.6786,7.6895
3.6288,7.8229
3.5436,7.9368
3.4296,8.0221
3.2963,8.0718
3.1900,8.0832
1.6900,8.0832
1.5837,8.0718
1.4504,8.0221
1.3364,7.9368
1.2512,7.8229
1.2014,7.6895
1.1900,7.5832
1.1900,6.0332
1.2014,5.9270
1.2512,5.7936
1.3364,5.6797
1.4504,5.5944
1.5837,5.5447
1.6900,5.5332
3.1900,5.5332
3.2963,5.5447
3.4296,5.5944
3.5436,5.6797
3.6288,5.7936
3.6786,5.9270
3.6900,6.0332
Z"/> 
<path style="fill:#00C2C2; fill-opacity:0.9000; stroke:none;fill-rule:evenodd;" d="M 12.4000,14.4682
12.4119,14.3577
12.4636,14.2190
12.5523,14.1006
12.6708,14.0119
12.8095,13.9601
12.9200,13.9482
14.4800,13.9482
14.5905,13.9601
14.7292,14.0119
14.8477,14.1006
14.9364,14.2190
14.9881,14.3577
15.0000,14.4682
15.0000,16.0282
14.9881,16.1388
14.9364,16.2775
14.8477,16.3959
14.7292,16.4846
14.5905,16.5364
14.4800,16.5482
12.9200,16.5482
12.8095,16.5364
12.6708,16.4846
12.5523,16.3959
12.4636,16.2775
12.4119,16.1388
12.4000,16.0282
Z"/> 
<path style="fill:#00C2C2; fill-opacity:0.9000; stroke:none;fill-rule:evenodd;" d="M 17.5400,5.0432
17.5286,5.1495
17.4788,5.2829
17.3936,5.3968
17.2796,5.4821
17.1463,5.5318
17.0400,5.5432
15.5400,5.5432
15.4337,5.5318
15.3004,5.4821
15.1864,5.3968
15.1012,5.2829
15.0514,5.1495
15.0400,5.0432
15.0400,3.4932
15.0514,3.3870
15.1012,3.2536
15.1864,3.1397
15.3004,3.0544
15.4337,3.0047
15.5400,2.9932
17.0400,2.9932
17.1463,3.0047
17.2796,3.0544
17.3936,3.1397
17.4788,3.2536
17.5286,3.3870
17.5400,3.4932
Z"/> 
<path style="fill:#00C2C2; fill-opacity:0.9000; stroke:none;fill-rule:evenodd;" d="M 0.0000,12.3682
0.0119,12.2577
0.0636,12.1190
0.1523,12.0006
0.2708,11.9119
0.4095,11.8601
0.5200,11.8483
2.0800,11.8483
2.1905,11.8601
2.3292,11.9119
2.4477,12.0006
2.5364,12.1190
2.5881,12.2577
2.6000,12.3682
2.6000,13.9283
2.5881,14.0388
2.5364,14.1775
2.4477,14.2959
2.3292,14.3846
2.1905,14.4364
2.0800,14.4482
0.5200,14.4482
0.4095,14.4364
0.2708,14.3846
0.1523,14.2959
0.0636,14.1775
0.0119,14.0388
0.0000,13.9283
Z"/> 
<path style="fill:#00C2C2; fill-opacity:0.9000; stroke:none;fill-rule:evenodd;" d="M 3.6900,7.5832
3.6786,7.6895
3.6288,7.8229
3.5436,7.9368
3.4296,8.0221
3.2963,8.0718
3.1900,8.0832
1.6900,8.0832
1.5837,8.0718
1.4504,8.0221
1.3364,7.9368
1.2512,7.8229
1.2014,7.6895
1.1900,7.5832
1.1900,6.0332
1.2014,5.9270
1.2512,5.7936
1.3364,5.6797
1.4504,5.5944
1.5837,5.5447
1.6900,5.5332
3.1900,5.5332
3.2963,5.5447
3.4296,5.5944
3.5436,5.6797
3.6288,5.7936
3.6786,5.9270
3.6900,6.0332
Z"/> 
</g>
<g style="fill:none; 
stroke:#E8B2A7; stroke-width:0.1000; stroke-opacity:1; 
stroke-linecap:round; stroke-linejoin:round;">
<path d="M2.7250 15.1232
L2.7250 11.1732
"/>
<path d="M3.1000 10.7982
L6.5750 10.7982
"/>
<path d="M3.1000 15.4982
L5.3998 15.4982
"/>
<path d="M3.9000 5.5482
L3.9000 4.6482
"/>
<path d="M3.9000 8.4482
L3.9000 8.0482
"/>
<path d="M3.9000 8.4482
L5.2000 8.4482
"/>
<path d="M5.9000 2.6482
L11.4000 2.6482
"/>
<path d="M7.5250 17.5983
L7.0250 17.0983
"/>
<path d="M8.6750 12.8982
L11.7750 12.8982
"/>
<path d="M11.7750 17.5983
L7.5250 17.5983
"/>
<path d="M12.2750 13.3982
L11.7750 12.8982
"/>
<path d="M12.2750 13.3982
L12.2750 17.0983
"/>
<path d="M12.2750 17.0983
L11.7750 17.5983
"/>
<path d="M13.7000 2.6482
L14.8000 2.6482
"/>
<path d="M14.3000 6.5482
L10.2000 6.5482
"/>
<path d="M14.8000 2.6482
L14.8000 3.0482
"/>
<path d="M14.8000 5.5482
L14.8000 6.0482
"/>
<path d="M3.1000 10.7982 A0.3750 0.3750 0.0 0 0 2.7250 11.1732"/>
<path d="M2.7250 15.1232 A0.3750 0.3750 0.0 0 0 3.1000 15.4982"/>
<path d="M5.9000 2.6482 A2.0000 2.0000 0.0 0 0 3.9000 4.6482"/>
<path d="M7.0250 17.0982 A1.6002 1.6002 0.0 0 0 5.3998 15.4982"/>
<path d="M6.9500 11.1732 A0.3750 0.3750 0.0 0 0 6.5750 10.7982"/>
<path d="M7.2000 8.4482 A0.5099 0.5099 0.0 0 0 7.5990 8.0533"/>
<path d="M9.7000 6.5517 A2.2205 2.2205 0.0 0 0 7.6003 8.0498"/>
<path d="M6.9500 11.1732 A1.7250 1.7250 0.0 0 0 8.6750 12.8983"/>
<path d="M10.2000 6.5483 A21.5126 21.5126 0.0 0 0 9.7000 6.5517"/>
<path d="M14.3000 6.5482 A0.5000 0.5000 0.0 0 0 14.8000 6.0482"/>
</g>
<g style="fill:none; 
stroke:#585D84; stroke-width:0.1000; stroke-opacity:1; 
stroke-linecap:round; stroke-linejoin:round;">
<path d="M3.9000 8.4482
L3.9000 4.6482
"/>
<path d="M3.9000 8.4482
L7.2000 8.4482
"/>
<path d="M5.9000 2.6482
L14.8000 2.6482
"/>
<path d="M14.3000 6.5482
L10.2000 6.5482
"/>
<path d="M14.8000 2.6482
L14.8000 6.0482
"/>
<path d="M5.9000 2.6482 A2.0000 2.0000 0.0 0 0 3.9000 4.6482"/>
<path d="M7.2000 8.4482 A0.5099 0.5099 0.0 0 0 7.5990 8.0533"/>
<path d="M9.7000 6.5517 A2.2205 2.2205 0.0 0 0 7.6003 8.0498"/>
<path d="M10.2000 6.5483 A21.5126 21.5126 0.0 0 0 9.7000 6.5517"/>
<path d="M14.3000 6.5482 A0.5000 0.5000 0.0 0 0 14.8000 6.0482"/>
</g>
<g style="fill:#F2EDA1; fill-opacity:1.0000; stroke:none;">
<circle cx="15.0000" cy="4.1982" r="0.7250"/> 
</g>
<g style="fill:#E8B2A7; fill-opacity:1.0000; stroke:none;">
<circle cx="15.0000" cy="4.1982" r="0.7250"/> 
</g>
<g style="fill:#28CCD9; fill-opacity:1.0000; stroke:none;">
<circle cx="15.0000" cy="4.1982" r="0.7250"/> 
</g>
<g style="fill:#A7A5C6; fill-opacity:1.0000; stroke:none;">
<circle cx="15.0000" cy="4.1982" r="0.7250"/> 
</g>
<g style="fill:#F76F8E; fill-opacity:1.0000; stroke:none;">
<circle cx="15.0000" cy="4.1982" r="0.7250"/> 
</g>
<g style="fill:#5BC3EB; fill-opacity:1.0000; stroke:none;">
<circle cx="15.0000" cy="4.1982" r="0.7250"/> 
</g>
<g style="fill:#ED7C33; fill-opacity:1.0000; stroke:none;">
<circle cx="15.0000" cy="4.1982" r="0.7250"/> 
</g>
<g style="fill:#F2EDA1; fill-opacity:1.0000; stroke:none;">
<circle cx="15.0000" cy="4.1982" r="0.7250"/> 
</g>
<g style="fill:#E8B2A7; fill-opacity:1.0000; stroke:none;">
<circle cx="15.0000" cy="4.1982" r="0.7250"/> 
</g>
<g style="fill:#28CCD9; fill-opacity:1.0000; stroke:none;">
<circle cx="15.0000" cy="4.1982" r="0.7250"/> 
</g>
<g style="fill:#A7A5C6; fill-opacity:1.0000; stroke:none;">
<circle cx="15.0000" cy="4.1982" r="0.7250"/> 
</g>
<g style="fill:#F76F8E; fill-opacity:1.0000; stroke:none;">
<circle cx="15.0000" cy="4.1982" r="0.7250"/> 
</g>
<g style="fill:#5BC3EB; fill-opacity:1.0000; stroke:none;">
<circle cx="15.0000" cy="4.1982" r="0.7250"/> 
</g>
<g style="fill:#ED7C33; fill-opacity:1.0000; stroke:none;">
<circle cx="15.0000" cy="4.1982" r="0.7250"/> 
</g>
<g style="fill:#F2EDA1; fill-opacity:1.0000; stroke:none;">
<circle cx="15.0000" cy="4.1982" r="0.7250"/> 
</g>
<g style="fill:#E8B2A7; fill-opacity:1.0000; stroke:none;">
<circle cx="15.0000" cy="4.1982" r="0.7250"/> 
</g>
<g style="fill:#28CCD9; fill-opacity:1.0000; stroke:none;">
<circle cx="15.0000" cy="4.1982" r="0.7250"/> 
</g>
<g style="fill:#A7A5C6; fill-opacity:1.0000; stroke:none;">
<circle cx="15.0000" cy="4.1982" r="0.7250"/> 
</g>
<g style="fill:#F76F8E; fill-opacity:1.0000; stroke:none;">
<circle cx="15.0000" cy="4.1982" r="0.7250"/> 
</g>
<g style="fill:#5BC3EB; fill-opacity:1.0000; stroke:none;">
<circle cx="15.0000" cy="4.1982" r="0.7250"/> 
</g>
<g style="fill:#ED7C33; fill-opacity:1.0000; stroke:none;">
<circle cx="15.0000" cy="4.1982" r="0.7250"/> 
</g>
<g style="fill:#8DCB81; fill-opacity:1.0000; stroke:none;">
<circle cx="15.0000" cy="4.1982" r="0.7250"/> 
</g>
<g style="fill:#F2EDA1; fill-opacity:1.0000; stroke:none;">
<circle cx="15.0000" cy="4.1982" r="0.7250"/> 
</g>
<g style="fill:#E8B2A7; fill-opacity:1.0000; stroke:none;">
<circle cx="15.0000" cy="4.1982" r="0.7250"/> 
</g>
<g style="fill:#28CCD9; fill-opacity:1.0000; stroke:none;">
<circle cx="15.0000" cy="4.1982" r="0.7250"/> 
</g>
<g style="fill:#A7A5C6; fill-opacity:1.0000; stroke:none;">
<circle cx="15.0000" cy="4.1982" r="0.7250"/> 
</g>
<g style="fill:#DB628B; fill-opacity:1.0000; stroke:none;">
<circle cx="15.0000" cy="4.1982" r="0.7250"/> 
</g>
<g style="fill:#4FCBCB; fill-opacity:1.0000; stroke:none;">
<circle cx="15.0000" cy="4.1982" r="0.7250"/> 
</g>
<g style="fill:#CE7D2C; fill-opacity:1.0000; stroke:none;">
<circle cx="15.0000" cy="4.1982" r="0.7250"/> 
</g>
<g style="fill:#7FC87F; fill-opacity:1.0000; stroke:none;">
<circle cx="15.0000" cy="4.1982" r="0.7250"/> 
</g>
<g style="fill:#C83434; fill-opacity:1.0000; stroke:none;">
<circle cx="15.0000" cy="4.1982" r="0.7250"/> 
</g>
<g style="fill:#D864FF; fill-opacity:0.4000; stroke:none;">
<circle cx="4.5000" cy="9.3483" r="0.8509"/> 
</g>
<g style="fill:#D864FF; fill-opacity:0.4000; stroke:none;">
<circle cx="4.9200" cy="9.3483" r="0.8500"/> 
</g>
<g style="fill:#D864FF; fill-opacity:0.4000; stroke:none;">
<circle cx="5.0000" cy="13.1482" r="1.5000"/> 
</g>
<g style="fill:#D864FF; fill-opacity:0.4000; stroke:none;">
<circle cx="6.1900" cy="6.8083" r="1.5000"/> 
</g>
<g style="fill:#D864FF; fill-opacity:0.4000; stroke:none;">
<circle cx="10.0000" cy="9.3483" r="2.5000"/> 
</g>
<g style="fill:#D864FF; fill-opacity:0.4000; stroke:none;">
<circle cx="10.0000" cy="15.2482" r="1.5000"/> 
</g>
<g style="fill:#D864FF; fill-opacity:0.4000; stroke:none;">
<circle cx="12.5400" cy="4.2683" r="1.5000"/> 
</g>
<g style="fill:#D864FF; fill-opacity:0.4000; stroke:none;">
<circle cx="15.0800" cy="9.3483" r="0.8500"/> 
</g>
<g style="fill:#D864FF; fill-opacity:0.4000; stroke:none;">
<circle cx="15.5000" cy="9.3483" r="0.8509"/> 
</g>
<g style="fill:none; 
stroke:#F2EDA1; stroke-width:0.1400; stroke-opacity:1; 
stroke-linecap:round; stroke-linejoin:round;">
<path d="M3.5000 3.8482
L3.5000 2.8482
"/>
<path d="M3.5000 15.8483
L3.5000 14.8483
"/>
<path d="M3.5000 15.8483
L4.5000 15.8483
"/>
<path d="M4.5000 2.8482
L3.5000 2.8482
"/>
<path d="M15.5000 15.8483
L16.5000 15.8483
"/>
<path d="M16.5000 2.8482
L15.5000 2.8482
"/>
<path d="M16.5000 2.8482
L16.5000 3.8482
"/>
<path d="M16.5000 14.8483
L16.5000 15.8483
"/>
<path style="fill:none; 
stroke:#FF26E2; stroke-width:0.0500; stroke-opacity:1; 
stroke-linecap:round; stroke-linejoin:round;fill:none" d="M 1.7500,1.0982
18.2500,1.0982
18.2500,17.5983
1.7500,17.5983
Z"/> 
</g>
<g style="fill:none; 
stroke:#AFAFAF; stroke-width:0.1500; stroke-opacity:1; 
stroke-linecap:round; stroke-linejoin:round;">
<text x="10.0000" y="1.3482" textLength="4.5357" font-size="1.3333" lengthAdjust="spacingAndGlyphs" text-anchor="middle" opacity="0" stroke-opacity="0">REF**</text>
<g class="stroked-text"><desc>REF**</desc>
<path d="M8.6667 1.3031
L8.3333 0.8269
"/>
<path d="M8.0952 1.3031
L8.0952 0.3031
"/>
<path d="M8.0952 0.3031
L8.4762 0.3031
"/>
<path d="M8.4762 0.3031
L8.5714 0.3507
"/>
<path d="M8.5714 0.3507
L8.6190 0.3983
"/>
<path d="M8.6190 0.3983
L8.6667 0.4935
"/>
<path d="M8.6667 0.4935
L8.6667 0.6364
"/>
<path d="M8.6667 0.6364
L8.6190 0.7316
"/>
<path d="M8.6190 0.7316
L8.5714 0.7793
"/>
<path d="M8.5714 0.7793
L8.4762 0.8269
"/>
<path d="M8.4762 0.8269
L8.0952 0.8269
"/>
<path d="M9.0952 0.7793
L9.4286 0.7793
"/>
<path d="M9.5714 1.3031
L9.0952 1.3031
"/>
<path d="M9.0952 1.3031
L9.0952 0.3031
"/>
<path d="M9.0952 0.3031
L9.5714 0.3031
"/>
<path d="M10.3333 0.7793
L10.0000 0.7793
"/>
<path d="M10.0000 1.3031
L10.0000 0.3031
"/>
<path d="M10.0000 0.3031
L10.4762 0.3031
"/>
<path d="M11.0000 0.3031
L11.0000 0.5412
"/>
<path d="M10.7619 0.4459
L11.0000 0.5412
"/>
<path d="M11.0000 0.5412
L11.2381 0.4459
"/>
<path d="M10.8571 0.7316
L11.0000 0.5412
"/>
<path d="M11.0000 0.5412
L11.1429 0.7316
"/>
<path d="M11.7619 0.3031
L11.7619 0.5412
"/>
<path d="M11.5238 0.4459
L11.7619 0.5412
"/>
<path d="M11.7619 0.5412
L12.0000 0.4459
"/>
<path d="M11.6190 0.7316
L11.7619 0.5412
"/>
<path d="M11.7619 0.5412
L11.9048 0.7316
"/>
</g><path style="fill:none; 
stroke:#AFAFAF; stroke-width:0.1000; stroke-opacity:1; 
stroke-linecap:round; stroke-linejoin:round;fill:none" d="M 2.5000,1.8482
17.5000,1.8482
17.5000,16.8483
2.5000,16.8483
Z"/> 
</g> 
</svg>
