<?xml version="1.0" standalone="no"?>
 <!DOCTYPE svg PUBLIC "-//W3C//DTD SVG 1.1//EN" 
 "http://www.w3.org/Graphics/SVG/1.1/DTD/svg11.dtd"> 
<svg xmlns:svg="http://www.w3.org/2000/svg" xmlns="http://www.w3.org/2000/svg" xmlns:xlink="http://www.w3.org/1999/xlink" version="1.1" width="100%" height="100%" viewBox="0.0000 0.0000 17.0688 17.6022" preserveAspectRatio="xMidYMid meet"><rect width="100%" height="100%" fill="black"/>
<title>SVG Image created as SW_MX_HotSwap_THT.svg date 2025/11/03 22:13:35 </title>
  <desc>Image generated by PCBNEW </desc>
<g style="fill:#000000; fill-opacity:1.0000;stroke:#000000; stroke-opacity:1.0000;
stroke-linecap:round; stroke-linejoin:round;" transform="translate(0 0) scale(1 1)">
<path style="fill:#4D7FC4; fill-opacity:1.0000; stroke:none;fill-rule:evenodd;" d="M 0.7350,13.6532
0.7464,13.5470
0.7962,13.4136
0.8814,13.2997
0.9954,13.2144
1.1287,13.1647
1.2350,13.1532
2.7350,13.1532
2.8413,13.1647
2.9746,13.2144
3.0886,13.2997
3.1738,13.4136
3.2236,13.5470
3.2350,13.6532
3.2350,15.2032
3.2236,15.3095
3.1738,15.4429
3.0886,15.5568
2.9746,15.6421
2.8413,15.6918
2.7350,15.7032
1.2350,15.7032
1.1287,15.6918
0.9954,15.6421
0.8814,15.5568
0.7962,15.4429
0.7464,15.3095
0.7350,15.2032
Z"/> 
</g>
<g style="fill:#4D7FC4; fill-opacity:1.0000; stroke:none;">
<circle cx="4.4650" cy="6.8083" r="1.2500"/> 
</g>
<g style="fill:#4D7FC4; fill-opacity:1.0000; stroke:none;">
<circle cx="10.8150" cy="4.2683" r="1.2500"/> 
<path style="fill:#4D7FC4; fill-opacity:1.0000; stroke:none;fill-rule:evenodd;" d="M 14.5850,11.1132
14.5964,11.0070
14.6462,10.8736
14.7314,10.7597
14.8454,10.6744
14.9787,10.6247
15.0850,10.6132
16.5850,10.6132
16.6913,10.6247
16.8246,10.6744
16.9386,10.7597
17.0238,10.8736
17.0736,11.0070
17.0850,11.1132
17.0850,12.6632
17.0736,12.7695
17.0238,12.9029
16.9386,13.0168
16.8246,13.1021
16.6913,13.1518
16.5850,13.1632
15.0850,13.1632
14.9787,13.1518
14.8454,13.1021
14.7314,13.0168
14.6462,12.9029
14.5964,12.7695
14.5850,12.6632
Z"/> 
</g>
<g style="fill:#02FFEE; fill-opacity:0.4000; stroke:none;">
<circle cx="3.1950" cy="9.3483" r="0.8500"/> 
</g>
<g style="fill:#02FFEE; fill-opacity:0.4000; stroke:none;">
<circle cx="5.7350" cy="14.4282" r="1.5000"/> 
</g>
<g style="fill:#02FFEE; fill-opacity:0.4000; stroke:none;">
<circle cx="8.2750" cy="9.3483" r="2.0000"/> 
</g>
<g style="fill:#02FFEE; fill-opacity:0.4000; stroke:none;">
<circle cx="12.0850" cy="11.8882" r="1.5000"/> 
</g>
<g style="fill:#02FFEE; fill-opacity:0.4000; stroke:none;">
<circle cx="13.3550" cy="9.3483" r="0.8500"/> 
<path style="fill:#02FFEE; fill-opacity:0.4000; stroke:none;fill-rule:evenodd;" d="M 0.7350,13.6532
0.7464,13.5470
0.7962,13.4136
0.8814,13.2997
0.9954,13.2144
1.1287,13.1647
1.2350,13.1532
2.7350,13.1532
2.8413,13.1647
2.9746,13.2144
3.0886,13.2997
3.1738,13.4136
3.2236,13.5470
3.2350,13.6532
3.2350,15.2032
3.2236,15.3095
3.1738,15.4429
3.0886,15.5568
2.9746,15.6421
2.8413,15.6918
2.7350,15.7032
1.2350,15.7032
1.1287,15.6918
0.9954,15.6421
0.8814,15.5568
0.7962,15.4429
0.7464,15.3095
0.7350,15.2032
Z"/> 
</g>
<g style="fill:#02FFEE; fill-opacity:0.4000; stroke:none;">
<circle cx="4.4650" cy="6.8083" r="1.2500"/> 
</g>
<g style="fill:#02FFEE; fill-opacity:0.4000; stroke:none;">
<circle cx="10.8150" cy="4.2683" r="1.2500"/> 
<path style="fill:#02FFEE; fill-opacity:0.4000; stroke:none;fill-rule:evenodd;" d="M 14.5850,11.1132
14.5964,11.0070
14.6462,10.8736
14.7314,10.7597
14.8454,10.6744
14.9787,10.6247
15.0850,10.6132
16.5850,10.6132
16.6913,10.6247
16.8246,10.6744
16.9386,10.7597
17.0238,10.8736
17.0736,11.0070
17.0850,11.1132
17.0850,12.6632
17.0736,12.7695
17.0238,12.9029
16.9386,13.0168
16.8246,13.1021
16.6913,13.1518
16.5850,13.1632
15.0850,13.1632
14.9787,13.1518
14.8454,13.1021
14.7314,13.0168
14.6462,12.9029
14.5964,12.7695
14.5850,12.6632
Z"/> 
<path style="fill:#00C2C2; fill-opacity:0.9000; stroke:none;fill-rule:evenodd;" d="M 0.7350,13.6532
0.7464,13.5470
0.7962,13.4136
0.8814,13.2997
0.9954,13.2144
1.1287,13.1647
1.2350,13.1532
2.7350,13.1532
2.8413,13.1647
2.9746,13.2144
3.0886,13.2997
3.1738,13.4136
3.2236,13.5470
3.2350,13.6532
3.2350,15.2032
3.2236,15.3095
3.1738,15.4429
3.0886,15.5568
2.9746,15.6421
2.8413,15.6918
2.7350,15.7032
1.2350,15.7032
1.1287,15.6918
0.9954,15.6421
0.8814,15.5568
0.7962,15.4429
0.7464,15.3095
0.7350,15.2032
Z"/> 
<path style="fill:#00C2C2; fill-opacity:0.9000; stroke:none;fill-rule:evenodd;" d="M 14.5850,11.1132
14.5964,11.0070
14.6462,10.8736
14.7314,10.7597
14.8454,10.6744
14.9787,10.6247
15.0850,10.6132
16.5850,10.6132
16.6913,10.6247
16.8246,10.6744
16.9386,10.7597
17.0238,10.8736
17.0736,11.0070
17.0850,11.1132
17.0850,12.6632
17.0736,12.7695
17.0238,12.9029
16.9386,13.0168
16.8246,13.1021
16.6913,13.1518
16.5850,13.1632
15.0850,13.1632
14.9787,13.1518
14.8454,13.1021
14.7314,13.0168
14.6462,12.9029
14.5964,12.7695
14.5850,12.6632
Z"/> 
</g>
<g style="fill:none; 
stroke:#E8B2A7; stroke-width:0.1000; stroke-opacity:1; 
stroke-linecap:round; stroke-linejoin:round;">
<path d="M3.4750 13.1482
L3.4750 12.6482
"/>
<path d="M3.4750 16.0482
L3.4750 15.6482
"/>
<path d="M3.9750 12.1482
L8.0750 12.1482
"/>
<path d="M4.5750 16.0482
L3.4750 16.0482
"/>
<path d="M12.3750 16.0482
L6.8750 16.0482
"/>
<path d="M14.3750 10.2482
L13.0750 10.2483
"/>
<path d="M14.3750 10.2482
L14.3750 10.6482
"/>
<path d="M14.3750 13.1482
L14.3750 14.0482
"/>
<path d="M3.9750 12.1483 A0.5000 0.5000 0.0 0 0 3.4750 12.6483"/>
<path d="M8.0750 12.1482 A21.5127 21.5127 0.0 0 0 8.5750 12.1448"/>
<path d="M8.5750 12.1448 A2.2205 2.2205 0.0 0 0 10.6747 10.6467"/>
<path d="M11.0750 10.2483 A0.5099 0.5099 0.0 0 0 10.6760 10.6432"/>
<path d="M12.3750 16.0482 A2.0000 2.0000 0.0 0 0 14.3750 14.0482"/>
</g>
<g style="fill:none; 
stroke:#585D84; stroke-width:0.1000; stroke-opacity:1; 
stroke-linecap:round; stroke-linejoin:round;">
<path d="M3.4750 16.0482
L3.4750 12.6482
"/>
<path d="M3.9750 12.1482
L8.0750 12.1482
"/>
<path d="M12.3750 16.0482
L3.4750 16.0482
"/>
<path d="M14.3750 10.2482
L11.0750 10.2483
"/>
<path d="M14.3750 10.2482
L14.3750 14.0482
"/>
<path d="M3.9750 12.1483 A0.5000 0.5000 0.0 0 0 3.4750 12.6483"/>
<path d="M8.0750 12.1482 A21.5127 21.5127 0.0 0 0 8.5750 12.1448"/>
<path d="M8.5750 12.1448 A2.2205 2.2205 0.0 0 0 10.6747 10.6467"/>
<path d="M11.0750 10.2483 A0.5099 0.5099 0.0 0 0 10.6760 10.6432"/>
<path d="M12.3750 16.0482 A2.0000 2.0000 0.0 0 0 14.3750 14.0482"/>
</g>
<g style="fill:#F2EDA1; fill-opacity:1.0000; stroke:none;">
<circle cx="4.4650" cy="6.8083" r="1.2500"/> 
</g>
<g style="fill:#F2EDA1; fill-opacity:1.0000; stroke:none;">
<circle cx="10.8150" cy="4.2683" r="1.2500"/> 
</g>
<g style="fill:#E8B2A7; fill-opacity:1.0000; stroke:none;">
<circle cx="4.4650" cy="6.8083" r="1.2500"/> 
</g>
<g style="fill:#E8B2A7; fill-opacity:1.0000; stroke:none;">
<circle cx="10.8150" cy="4.2683" r="1.2500"/> 
</g>
<g style="fill:#28CCD9; fill-opacity:1.0000; stroke:none;">
<circle cx="4.4650" cy="6.8083" r="1.2500"/> 
</g>
<g style="fill:#28CCD9; fill-opacity:1.0000; stroke:none;">
<circle cx="10.8150" cy="4.2683" r="1.2500"/> 
</g>
<g style="fill:#A7A5C6; fill-opacity:1.0000; stroke:none;">
<circle cx="4.4650" cy="6.8083" r="1.2500"/> 
</g>
<g style="fill:#A7A5C6; fill-opacity:1.0000; stroke:none;">
<circle cx="10.8150" cy="4.2683" r="1.2500"/> 
</g>
<g style="fill:#F76F8E; fill-opacity:1.0000; stroke:none;">
<circle cx="4.4650" cy="6.8083" r="1.2500"/> 
</g>
<g style="fill:#F76F8E; fill-opacity:1.0000; stroke:none;">
<circle cx="10.8150" cy="4.2683" r="1.2500"/> 
</g>
<g style="fill:#5BC3EB; fill-opacity:1.0000; stroke:none;">
<circle cx="4.4650" cy="6.8083" r="1.2500"/> 
</g>
<g style="fill:#5BC3EB; fill-opacity:1.0000; stroke:none;">
<circle cx="10.8150" cy="4.2683" r="1.2500"/> 
</g>
<g style="fill:#ED7C33; fill-opacity:1.0000; stroke:none;">
<circle cx="4.4650" cy="6.8083" r="1.2500"/> 
</g>
<g style="fill:#ED7C33; fill-opacity:1.0000; stroke:none;">
<circle cx="10.8150" cy="4.2683" r="1.2500"/> 
</g>
<g style="fill:#F2EDA1; fill-opacity:1.0000; stroke:none;">
<circle cx="4.4650" cy="6.8083" r="1.2500"/> 
</g>
<g style="fill:#F2EDA1; fill-opacity:1.0000; stroke:none;">
<circle cx="10.8150" cy="4.2683" r="1.2500"/> 
</g>
<g style="fill:#E8B2A7; fill-opacity:1.0000; stroke:none;">
<circle cx="4.4650" cy="6.8083" r="1.2500"/> 
</g>
<g style="fill:#E8B2A7; fill-opacity:1.0000; stroke:none;">
<circle cx="10.8150" cy="4.2683" r="1.2500"/> 
</g>
<g style="fill:#28CCD9; fill-opacity:1.0000; stroke:none;">
<circle cx="4.4650" cy="6.8083" r="1.2500"/> 
</g>
<g style="fill:#28CCD9; fill-opacity:1.0000; stroke:none;">
<circle cx="10.8150" cy="4.2683" r="1.2500"/> 
</g>
<g style="fill:#A7A5C6; fill-opacity:1.0000; stroke:none;">
<circle cx="4.4650" cy="6.8083" r="1.2500"/> 
</g>
<g style="fill:#A7A5C6; fill-opacity:1.0000; stroke:none;">
<circle cx="10.8150" cy="4.2683" r="1.2500"/> 
</g>
<g style="fill:#F76F8E; fill-opacity:1.0000; stroke:none;">
<circle cx="4.4650" cy="6.8083" r="1.2500"/> 
</g>
<g style="fill:#F76F8E; fill-opacity:1.0000; stroke:none;">
<circle cx="10.8150" cy="4.2683" r="1.2500"/> 
</g>
<g style="fill:#5BC3EB; fill-opacity:1.0000; stroke:none;">
<circle cx="4.4650" cy="6.8083" r="1.2500"/> 
</g>
<g style="fill:#5BC3EB; fill-opacity:1.0000; stroke:none;">
<circle cx="10.8150" cy="4.2683" r="1.2500"/> 
</g>
<g style="fill:#ED7C33; fill-opacity:1.0000; stroke:none;">
<circle cx="4.4650" cy="6.8083" r="1.2500"/> 
</g>
<g style="fill:#ED7C33; fill-opacity:1.0000; stroke:none;">
<circle cx="10.8150" cy="4.2683" r="1.2500"/> 
</g>
<g style="fill:#F2EDA1; fill-opacity:1.0000; stroke:none;">
<circle cx="4.4650" cy="6.8083" r="1.2500"/> 
</g>
<g style="fill:#F2EDA1; fill-opacity:1.0000; stroke:none;">
<circle cx="10.8150" cy="4.2683" r="1.2500"/> 
</g>
<g style="fill:#E8B2A7; fill-opacity:1.0000; stroke:none;">
<circle cx="4.4650" cy="6.8083" r="1.2500"/> 
</g>
<g style="fill:#E8B2A7; fill-opacity:1.0000; stroke:none;">
<circle cx="10.8150" cy="4.2683" r="1.2500"/> 
</g>
<g style="fill:#28CCD9; fill-opacity:1.0000; stroke:none;">
<circle cx="4.4650" cy="6.8083" r="1.2500"/> 
</g>
<g style="fill:#28CCD9; fill-opacity:1.0000; stroke:none;">
<circle cx="10.8150" cy="4.2683" r="1.2500"/> 
</g>
<g style="fill:#A7A5C6; fill-opacity:1.0000; stroke:none;">
<circle cx="4.4650" cy="6.8083" r="1.2500"/> 
</g>
<g style="fill:#A7A5C6; fill-opacity:1.0000; stroke:none;">
<circle cx="10.8150" cy="4.2683" r="1.2500"/> 
</g>
<g style="fill:#F76F8E; fill-opacity:1.0000; stroke:none;">
<circle cx="4.4650" cy="6.8083" r="1.2500"/> 
</g>
<g style="fill:#F76F8E; fill-opacity:1.0000; stroke:none;">
<circle cx="10.8150" cy="4.2683" r="1.2500"/> 
</g>
<g style="fill:#5BC3EB; fill-opacity:1.0000; stroke:none;">
<circle cx="4.4650" cy="6.8083" r="1.2500"/> 
</g>
<g style="fill:#5BC3EB; fill-opacity:1.0000; stroke:none;">
<circle cx="10.8150" cy="4.2683" r="1.2500"/> 
</g>
<g style="fill:#ED7C33; fill-opacity:1.0000; stroke:none;">
<circle cx="4.4650" cy="6.8083" r="1.2500"/> 
</g>
<g style="fill:#ED7C33; fill-opacity:1.0000; stroke:none;">
<circle cx="10.8150" cy="4.2683" r="1.2500"/> 
</g>
<g style="fill:#8DCB81; fill-opacity:1.0000; stroke:none;">
<circle cx="4.4650" cy="6.8083" r="1.2500"/> 
</g>
<g style="fill:#8DCB81; fill-opacity:1.0000; stroke:none;">
<circle cx="10.8150" cy="4.2683" r="1.2500"/> 
</g>
<g style="fill:#F2EDA1; fill-opacity:1.0000; stroke:none;">
<circle cx="4.4650" cy="6.8083" r="1.2500"/> 
</g>
<g style="fill:#F2EDA1; fill-opacity:1.0000; stroke:none;">
<circle cx="10.8150" cy="4.2683" r="1.2500"/> 
</g>
<g style="fill:#E8B2A7; fill-opacity:1.0000; stroke:none;">
<circle cx="4.4650" cy="6.8083" r="1.2500"/> 
</g>
<g style="fill:#E8B2A7; fill-opacity:1.0000; stroke:none;">
<circle cx="10.8150" cy="4.2683" r="1.2500"/> 
</g>
<g style="fill:#28CCD9; fill-opacity:1.0000; stroke:none;">
<circle cx="4.4650" cy="6.8083" r="1.2500"/> 
</g>
<g style="fill:#28CCD9; fill-opacity:1.0000; stroke:none;">
<circle cx="10.8150" cy="4.2683" r="1.2500"/> 
</g>
<g style="fill:#A7A5C6; fill-opacity:1.0000; stroke:none;">
<circle cx="4.4650" cy="6.8083" r="1.2500"/> 
</g>
<g style="fill:#A7A5C6; fill-opacity:1.0000; stroke:none;">
<circle cx="10.8150" cy="4.2683" r="1.2500"/> 
</g>
<g style="fill:#DB628B; fill-opacity:1.0000; stroke:none;">
<circle cx="4.4650" cy="6.8083" r="1.2500"/> 
</g>
<g style="fill:#DB628B; fill-opacity:1.0000; stroke:none;">
<circle cx="10.8150" cy="4.2683" r="1.2500"/> 
</g>
<g style="fill:#4FCBCB; fill-opacity:1.0000; stroke:none;">
<circle cx="4.4650" cy="6.8083" r="1.2500"/> 
</g>
<g style="fill:#4FCBCB; fill-opacity:1.0000; stroke:none;">
<circle cx="10.8150" cy="4.2683" r="1.2500"/> 
</g>
<g style="fill:#CE7D2C; fill-opacity:1.0000; stroke:none;">
<circle cx="4.4650" cy="6.8083" r="1.2500"/> 
</g>
<g style="fill:#CE7D2C; fill-opacity:1.0000; stroke:none;">
<circle cx="10.8150" cy="4.2683" r="1.2500"/> 
</g>
<g style="fill:#7FC87F; fill-opacity:1.0000; stroke:none;">
<circle cx="4.4650" cy="6.8083" r="1.2500"/> 
</g>
<g style="fill:#7FC87F; fill-opacity:1.0000; stroke:none;">
<circle cx="10.8150" cy="4.2683" r="1.2500"/> 
</g>
<g style="fill:#C83434; fill-opacity:1.0000; stroke:none;">
<circle cx="4.4650" cy="6.8083" r="1.2500"/> 
</g>
<g style="fill:#C83434; fill-opacity:1.0000; stroke:none;">
<circle cx="10.8150" cy="4.2683" r="1.2500"/> 
</g>
<g style="fill:#D864FF; fill-opacity:0.4000; stroke:none;">
<circle cx="3.1950" cy="9.3483" r="0.8500"/> 
</g>
<g style="fill:#D864FF; fill-opacity:0.4000; stroke:none;">
<circle cx="5.7350" cy="14.4282" r="1.5000"/> 
</g>
<g style="fill:#D864FF; fill-opacity:0.4000; stroke:none;">
<circle cx="8.2750" cy="9.3483" r="2.0000"/> 
</g>
<g style="fill:#D864FF; fill-opacity:0.4000; stroke:none;">
<circle cx="12.0850" cy="11.8882" r="1.5000"/> 
</g>
<g style="fill:#D864FF; fill-opacity:0.4000; stroke:none;">
<circle cx="13.3550" cy="9.3483" r="0.8500"/> 
</g>
<g style="fill:#D864FF; fill-opacity:0.4000; stroke:none;">
<circle cx="4.4650" cy="6.8083" r="1.2500"/> 
</g>
<g style="fill:#D864FF; fill-opacity:0.4000; stroke:none;">
<circle cx="10.8150" cy="4.2683" r="1.2500"/> 
</g>
<g style="fill:none; 
stroke:#F2EDA1; stroke-width:0.1400; stroke-opacity:1; 
stroke-linecap:round; stroke-linejoin:round;">
<path d="M0.7750 1.8482
L0.7750 3.3482
"/>
<path d="M0.7750 1.8482
L2.2750 1.8482
"/>
<path d="M0.7750 16.8483
L0.7750 15.3483
"/>
<path d="M0.7750 16.8483
L2.2750 16.8483
"/>
<path d="M15.7750 1.8482
L14.2750 1.8482
"/>
<path d="M15.7750 1.8482
L15.7750 3.3482
"/>
<path d="M15.7750 16.8483
L14.2750 16.8483
"/>
<path d="M15.7750 16.8483
L15.7750 15.3483
"/>
<path style="fill:none; 
stroke:#FF26E2; stroke-width:0.0500; stroke-opacity:1; 
stroke-linecap:round; stroke-linejoin:round;fill:none" d="M 0.0250,1.0982
16.5250,1.0982
16.5250,17.5983
0.0250,17.5983
Z"/> 
</g>
<g style="fill:none; 
stroke:#AFAFAF; stroke-width:0.1500; stroke-opacity:1; 
stroke-linecap:round; stroke-linejoin:round;">
<text x="8.2750" y="1.3482" textLength="4.5357" font-size="1.3333" lengthAdjust="spacingAndGlyphs" text-anchor="middle" opacity="0" stroke-opacity="0">REF**</text>
<g class="stroked-text"><desc>REF**</desc>
<path d="M6.9417 1.3031
L6.6083 0.8269
"/>
<path d="M6.3702 1.3031
L6.3702 0.3031
"/>
<path d="M6.3702 0.3031
L6.7512 0.3031
"/>
<path d="M6.7512 0.3031
L6.8464 0.3507
"/>
<path d="M6.8464 0.3507
L6.8940 0.3983
"/>
<path d="M6.8940 0.3983
L6.9417 0.4935
"/>
<path d="M6.9417 0.4935
L6.9417 0.6364
"/>
<path d="M6.9417 0.6364
L6.8940 0.7316
"/>
<path d="M6.8940 0.7316
L6.8464 0.7793
"/>
<path d="M6.8464 0.7793
L6.7512 0.8269
"/>
<path d="M6.7512 0.8269
L6.3702 0.8269
"/>
<path d="M7.3702 0.7793
L7.7036 0.7793
"/>
<path d="M7.8464 1.3031
L7.3702 1.3031
"/>
<path d="M7.3702 1.3031
L7.3702 0.3031
"/>
<path d="M7.3702 0.3031
L7.8464 0.3031
"/>
<path d="M8.6083 0.7793
L8.2750 0.7793
"/>
<path d="M8.2750 1.3031
L8.2750 0.3031
"/>
<path d="M8.2750 0.3031
L8.7512 0.3031
"/>
<path d="M9.2750 0.3031
L9.2750 0.5412
"/>
<path d="M9.0369 0.4459
L9.2750 0.5412
"/>
<path d="M9.2750 0.5412
L9.5131 0.4459
"/>
<path d="M9.1321 0.7316
L9.2750 0.5412
"/>
<path d="M9.2750 0.5412
L9.4179 0.7316
"/>
<path d="M10.0369 0.3031
L10.0369 0.5412
"/>
<path d="M9.7988 0.4459
L10.0369 0.5412
"/>
<path d="M10.0369 0.5412
L10.2750 0.4459
"/>
<path d="M9.8940 0.7316
L10.0369 0.5412
"/>
<path d="M10.0369 0.5412
L10.1798 0.7316
"/>
</g><path style="fill:none; 
stroke:#AFAFAF; stroke-width:0.1000; stroke-opacity:1; 
stroke-linecap:round; stroke-linejoin:round;fill:none" d="M 0.7750,1.8482
15.7750,1.8482
15.7750,16.8483
0.7750,16.8483
Z"/> 
<path style="fill:#AFAFAF; fill-opacity:1.0000; stroke:none;fill-rule:evenodd;" d="M 8.8250,8.7233
10.2750,8.7233
10.2750,9.9733
8.8250,9.9733
8.8250,11.3483
7.7250,11.3483
7.7250,9.9733
6.2750,9.9733
6.2750,8.7233
7.7250,8.7233
7.7250,7.3482
8.8250,7.3482
Z"/> 
</g> 
</svg>
