<?xml version="1.0" standalone="no"?>
 <!DOCTYPE svg PUBLIC "-//W3C//DTD SVG 1.1//EN" 
 "http://www.w3.org/Graphics/SVG/1.1/DTD/svg11.dtd"> 
<svg xmlns:svg="http://www.w3.org/2000/svg" xmlns="http://www.w3.org/2000/svg" xmlns:xlink="http://www.w3.org/1999/xlink" version="1.1" width="100%" height="100%" viewBox="0.0000 0.0000 18.7960 17.6276" preserveAspectRatio="xMidYMid meet"><rect width="100%" height="100%" fill="black"/>
<title>SVG Image created as SW_MX_Kailh_Choc_V1V2_HotSwap_Hybrid_alt1.svg date 2025/11/03 22:13:35 </title>
  <desc>Image generated by PCBNEW </desc>
<g style="fill:#000000; fill-opacity:1.0000;stroke:#000000; stroke-opacity:1.0000;
stroke-linecap:round; stroke-linejoin:round;" transform="translate(0 0) scale(1 1)">
<path style="fill:#4D7FC4; fill-opacity:1.0000; stroke:none;fill-rule:evenodd;" d="M 12.4000,14.4682
12.4119,14.3577
12.4636,14.2190
12.5523,14.1006
12.6708,14.0119
12.8095,13.9601
12.9200,13.9482
14.4800,13.9482
14.5905,13.9601
14.7292,14.0119
14.8477,14.1006
14.9364,14.2190
14.9881,14.3577
15.0000,14.4682
15.0000,16.0282
14.9881,16.1388
14.9364,16.2775
14.8477,16.3959
14.7292,16.4846
14.5905,16.5364
14.4800,16.5482
12.9200,16.5482
12.8095,16.5364
12.6708,16.4846
12.5523,16.3959
12.4636,16.2775
12.4119,16.1388
12.4000,16.0282
Z"/> 
<path style="fill:#4D7FC4; fill-opacity:1.0000; stroke:none;fill-rule:evenodd;" d="M 16.3100,11.1132
16.3214,11.0070
16.3712,10.8736
16.4564,10.7597
16.5704,10.6744
16.7037,10.6247
16.8100,10.6132
18.3100,10.6132
18.4163,10.6247
18.5496,10.6744
18.6636,10.7597
18.7488,10.8736
18.7986,11.0070
18.8100,11.1132
18.8100,12.6632
18.7986,12.7695
18.7488,12.9029
18.6636,13.0168
18.5496,13.1021
18.4163,13.1518
18.3100,13.1632
16.8100,13.1632
16.7037,13.1518
16.5704,13.1021
16.4564,13.0168
16.3712,12.9029
16.3214,12.7695
16.3100,12.6632
Z"/> 
<path style="fill:#4D7FC4; fill-opacity:1.0000; stroke:none;fill-rule:evenodd;" d="M 0.0000,12.3682
0.0119,12.2577
0.0636,12.1190
0.1523,12.0006
0.2708,11.9119
0.4095,11.8601
0.5200,11.8483
2.0800,11.8483
2.1905,11.8601
2.3292,11.9119
2.4477,12.0006
2.5364,12.1190
2.5881,12.2577
2.6000,12.3682
2.6000,13.9283
2.5881,14.0388
2.5364,14.1775
2.4477,14.2959
2.3292,14.3846
2.1905,14.4364
2.0800,14.4482
0.5200,14.4482
0.4095,14.4364
0.2708,14.3846
0.1523,14.2959
0.0636,14.1775
0.0119,14.0388
0.0000,13.9283
Z"/> 
<path style="fill:#4D7FC4; fill-opacity:1.0000; stroke:none;fill-rule:evenodd;" d="M 2.4600,13.6532
2.4714,13.5470
2.5212,13.4136
2.6064,13.2997
2.7204,13.2144
2.8537,13.1647
2.9600,13.1532
4.4600,13.1532
4.5663,13.1647
4.6996,13.2144
4.8136,13.2997
4.8988,13.4136
4.9486,13.5470
4.9600,13.6532
4.9600,15.2032
4.9486,15.3095
4.8988,15.4429
4.8136,15.5568
4.6996,15.6421
4.5663,15.6918
4.4600,15.7032
2.9600,15.7032
2.8537,15.6918
2.7204,15.6421
2.6064,15.5568
2.5212,15.4429
2.4714,15.3095
2.4600,15.2032
Z"/> 
</g>
<g style="fill:#02FFEE; fill-opacity:0.4000; stroke:none;">
<circle cx="4.5000" cy="9.3483" r="0.8509"/> 
</g>
<g style="fill:#02FFEE; fill-opacity:0.4000; stroke:none;">
<circle cx="4.9200" cy="9.3483" r="0.8500"/> 
</g>
<g style="fill:#02FFEE; fill-opacity:0.4000; stroke:none;">
<circle cx="5.0000" cy="13.1482" r="1.5000"/> 
</g>
<g style="fill:#02FFEE; fill-opacity:0.4000; stroke:none;">
<circle cx="7.4600" cy="14.4282" r="1.5000"/> 
</g>
<g style="fill:#02FFEE; fill-opacity:0.4000; stroke:none;">
<circle cx="10.0000" cy="9.3483" r="2.5000"/> 
</g>
<g style="fill:#02FFEE; fill-opacity:0.4000; stroke:none;">
<circle cx="10.0000" cy="15.2482" r="1.5000"/> 
</g>
<g style="fill:#02FFEE; fill-opacity:0.4000; stroke:none;">
<circle cx="13.8100" cy="11.8882" r="1.5000"/> 
</g>
<g style="fill:#02FFEE; fill-opacity:0.4000; stroke:none;">
<circle cx="15.0000" cy="4.1982" r="0.7250"/> 
</g>
<g style="fill:#02FFEE; fill-opacity:0.4000; stroke:none;">
<circle cx="15.0800" cy="9.3483" r="0.8500"/> 
</g>
<g style="fill:#02FFEE; fill-opacity:0.4000; stroke:none;">
<circle cx="15.5000" cy="9.3483" r="0.8509"/> 
<path style="fill:#02FFEE; fill-opacity:0.4000; stroke:none;fill-rule:evenodd;" d="M 12.4000,14.4682
12.4119,14.3577
12.4636,14.2190
12.5523,14.1006
12.6708,14.0119
12.8095,13.9601
12.9200,13.9482
14.4800,13.9482
14.5905,13.9601
14.7292,14.0119
14.8477,14.1006
14.9364,14.2190
14.9881,14.3577
15.0000,14.4682
15.0000,16.0282
14.9881,16.1388
14.9364,16.2775
14.8477,16.3959
14.7292,16.4846
14.5905,16.5364
14.4800,16.5482
12.9200,16.5482
12.8095,16.5364
12.6708,16.4846
12.5523,16.3959
12.4636,16.2775
12.4119,16.1388
12.4000,16.0282
Z"/> 
<path style="fill:#02FFEE; fill-opacity:0.4000; stroke:none;fill-rule:evenodd;" d="M 16.3100,11.1132
16.3214,11.0070
16.3712,10.8736
16.4564,10.7597
16.5704,10.6744
16.7037,10.6247
16.8100,10.6132
18.3100,10.6132
18.4163,10.6247
18.5496,10.6744
18.6636,10.7597
18.7488,10.8736
18.7986,11.0070
18.8100,11.1132
18.8100,12.6632
18.7986,12.7695
18.7488,12.9029
18.6636,13.0168
18.5496,13.1021
18.4163,13.1518
18.3100,13.1632
16.8100,13.1632
16.7037,13.1518
16.5704,13.1021
16.4564,13.0168
16.3712,12.9029
16.3214,12.7695
16.3100,12.6632
Z"/> 
<path style="fill:#02FFEE; fill-opacity:0.4000; stroke:none;fill-rule:evenodd;" d="M 0.0000,12.3682
0.0119,12.2577
0.0636,12.1190
0.1523,12.0006
0.2708,11.9119
0.4095,11.8601
0.5200,11.8483
2.0800,11.8483
2.1905,11.8601
2.3292,11.9119
2.4477,12.0006
2.5364,12.1190
2.5881,12.2577
2.6000,12.3682
2.6000,13.9283
2.5881,14.0388
2.5364,14.1775
2.4477,14.2959
2.3292,14.3846
2.1905,14.4364
2.0800,14.4482
0.5200,14.4482
0.4095,14.4364
0.2708,14.3846
0.1523,14.2959
0.0636,14.1775
0.0119,14.0388
0.0000,13.9283
Z"/> 
<path style="fill:#02FFEE; fill-opacity:0.4000; stroke:none;fill-rule:evenodd;" d="M 2.4600,13.6532
2.4714,13.5470
2.5212,13.4136
2.6064,13.2997
2.7204,13.2144
2.8537,13.1647
2.9600,13.1532
4.4600,13.1532
4.5663,13.1647
4.6996,13.2144
4.8136,13.2997
4.8988,13.4136
4.9486,13.5470
4.9600,13.6532
4.9600,15.2032
4.9486,15.3095
4.8988,15.4429
4.8136,15.5568
4.6996,15.6421
4.5663,15.6918
4.4600,15.7032
2.9600,15.7032
2.8537,15.6918
2.7204,15.6421
2.6064,15.5568
2.5212,15.4429
2.4714,15.3095
2.4600,15.2032
Z"/> 
<path style="fill:#00C2C2; fill-opacity:0.9000; stroke:none;fill-rule:evenodd;" d="M 12.4000,14.4682
12.4119,14.3577
12.4636,14.2190
12.5523,14.1006
12.6708,14.0119
12.8095,13.9601
12.9200,13.9482
14.4800,13.9482
14.5905,13.9601
14.7292,14.0119
14.8477,14.1006
14.9364,14.2190
14.9881,14.3577
15.0000,14.4682
15.0000,16.0282
14.9881,16.1388
14.9364,16.2775
14.8477,16.3959
14.7292,16.4846
14.5905,16.5364
14.4800,16.5482
12.9200,16.5482
12.8095,16.5364
12.6708,16.4846
12.5523,16.3959
12.4636,16.2775
12.4119,16.1388
12.4000,16.0282
Z"/> 
<path style="fill:#00C2C2; fill-opacity:0.9000; stroke:none;fill-rule:evenodd;" d="M 16.3100,11.1132
16.3214,11.0070
16.3712,10.8736
16.4564,10.7597
16.5704,10.6744
16.7037,10.6247
16.8100,10.6132
18.3100,10.6132
18.4163,10.6247
18.5496,10.6744
18.6636,10.7597
18.7488,10.8736
18.7986,11.0070
18.8100,11.1132
18.8100,12.6632
18.7986,12.7695
18.7488,12.9029
18.6636,13.0168
18.5496,13.1021
18.4163,13.1518
18.3100,13.1632
16.8100,13.1632
16.7037,13.1518
16.5704,13.1021
16.4564,13.0168
16.3712,12.9029
16.3214,12.7695
16.3100,12.6632
Z"/> 
<path style="fill:#00C2C2; fill-opacity:0.9000; stroke:none;fill-rule:evenodd;" d="M 0.0000,12.3682
0.0119,12.2577
0.0636,12.1190
0.1523,12.0006
0.2708,11.9119
0.4095,11.8601
0.5200,11.8483
2.0800,11.8483
2.1905,11.8601
2.3292,11.9119
2.4477,12.0006
2.5364,12.1190
2.5881,12.2577
2.6000,12.3682
2.6000,13.9283
2.5881,14.0388
2.5364,14.1775
2.4477,14.2959
2.3292,14.3846
2.1905,14.4364
2.0800,14.4482
0.5200,14.4482
0.4095,14.4364
0.2708,14.3846
0.1523,14.2959
0.0636,14.1775
0.0119,14.0388
0.0000,13.9283
Z"/> 
<path style="fill:#00C2C2; fill-opacity:0.9000; stroke:none;fill-rule:evenodd;" d="M 2.4600,13.6532
2.4714,13.5470
2.5212,13.4136
2.6064,13.2997
2.7204,13.2144
2.8537,13.1647
2.9600,13.1532
4.4600,13.1532
4.5663,13.1647
4.6996,13.2144
4.8136,13.2997
4.8988,13.4136
4.9486,13.5470
4.9600,13.6532
4.9600,15.2032
4.9486,15.3095
4.8988,15.4429
4.8136,15.5568
4.6996,15.6421
4.5663,15.6918
4.4600,15.7032
2.9600,15.7032
2.8537,15.6918
2.7204,15.6421
2.6064,15.5568
2.5212,15.4429
2.4714,15.3095
2.4600,15.2032
Z"/> 
</g>
<g style="fill:none; 
stroke:#E8B2A7; stroke-width:0.1000; stroke-opacity:1; 
stroke-linecap:round; stroke-linejoin:round;">
<path d="M2.7250 15.1232
L2.7250 11.1732
"/>
<path d="M3.1000 10.7982
L6.5750 10.7982
"/>
<path d="M3.1000 15.4982
L5.3998 15.4982
"/>
<path d="M5.2000 13.1482
L5.2000 12.6482
"/>
<path d="M5.2000 16.0482
L5.2000 15.6482
"/>
<path d="M5.7000 12.1482
L9.8000 12.1482
"/>
<path d="M6.3000 16.0482
L5.2000 16.0482
"/>
<path d="M7.5250 17.5983
L7.0250 17.0983
"/>
<path d="M8.6750 12.8982
L11.7750 12.8982
"/>
<path d="M11.7750 17.5983
L7.5250 17.5983
"/>
<path d="M12.2750 13.3982
L11.7750 12.8982
"/>
<path d="M12.2750 13.3982
L12.2750 17.0983
"/>
<path d="M12.2750 17.0983
L11.7750 17.5983
"/>
<path d="M14.1000 16.0482
L8.6000 16.0482
"/>
<path d="M16.1000 10.2482
L14.8000 10.2483
"/>
<path d="M16.1000 10.2482
L16.1000 10.6482
"/>
<path d="M16.1000 13.1482
L16.1000 14.0482
"/>
<path d="M3.1000 10.7982 A0.3750 0.3750 0.0 0 0 2.7250 11.1732"/>
<path d="M2.7250 15.1232 A0.3750 0.3750 0.0 0 0 3.1000 15.4982"/>
<path d="M5.7000 12.1483 A0.5000 0.5000 0.0 0 0 5.2000 12.6483"/>
<path d="M7.0250 17.0982 A1.6002 1.6002 0.0 0 0 5.3998 15.4982"/>
<path d="M6.9500 11.1732 A0.3750 0.3750 0.0 0 0 6.5750 10.7982"/>
<path d="M6.9500 11.1732 A1.7250 1.7250 0.0 0 0 8.6750 12.8983"/>
<path d="M9.8000 12.1482 A21.5127 21.5127 0.0 0 0 10.3000 12.1448"/>
<path d="M10.3000 12.1448 A2.2205 2.2205 0.0 0 0 12.3997 10.6467"/>
<path d="M12.8000 10.2483 A0.5099 0.5099 0.0 0 0 12.4010 10.6432"/>
<path d="M14.1000 16.0482 A2.0000 2.0000 0.0 0 0 16.1000 14.0482"/>
</g>
<g style="fill:none; 
stroke:#585D84; stroke-width:0.1000; stroke-opacity:1; 
stroke-linecap:round; stroke-linejoin:round;">
<path d="M5.2000 16.0482
L5.2000 12.6482
"/>
<path d="M5.7000 12.1482
L9.8000 12.1482
"/>
<path d="M14.1000 16.0482
L5.2000 16.0482
"/>
<path d="M16.1000 10.2482
L12.8000 10.2483
"/>
<path d="M16.1000 10.2482
L16.1000 14.0482
"/>
<path d="M5.7000 12.1483 A0.5000 0.5000 0.0 0 0 5.2000 12.6483"/>
<path d="M9.8000 12.1482 A21.5127 21.5127 0.0 0 0 10.3000 12.1448"/>
<path d="M10.3000 12.1448 A2.2205 2.2205 0.0 0 0 12.3997 10.6467"/>
<path d="M12.8000 10.2483 A0.5099 0.5099 0.0 0 0 12.4010 10.6432"/>
<path d="M14.1000 16.0482 A2.0000 2.0000 0.0 0 0 16.1000 14.0482"/>
</g>
<g style="fill:#D864FF; fill-opacity:0.4000; stroke:none;">
<circle cx="4.5000" cy="9.3483" r="0.8509"/> 
</g>
<g style="fill:#D864FF; fill-opacity:0.4000; stroke:none;">
<circle cx="4.9200" cy="9.3483" r="0.8500"/> 
</g>
<g style="fill:#D864FF; fill-opacity:0.4000; stroke:none;">
<circle cx="5.0000" cy="13.1482" r="1.5000"/> 
</g>
<g style="fill:#D864FF; fill-opacity:0.4000; stroke:none;">
<circle cx="7.4600" cy="14.4282" r="1.5000"/> 
</g>
<g style="fill:#D864FF; fill-opacity:0.4000; stroke:none;">
<circle cx="10.0000" cy="9.3483" r="2.5000"/> 
</g>
<g style="fill:#D864FF; fill-opacity:0.4000; stroke:none;">
<circle cx="10.0000" cy="15.2482" r="1.5000"/> 
</g>
<g style="fill:#D864FF; fill-opacity:0.4000; stroke:none;">
<circle cx="13.8100" cy="11.8882" r="1.5000"/> 
</g>
<g style="fill:#D864FF; fill-opacity:0.4000; stroke:none;">
<circle cx="15.0000" cy="4.1982" r="0.7250"/> 
</g>
<g style="fill:#D864FF; fill-opacity:0.4000; stroke:none;">
<circle cx="15.0800" cy="9.3483" r="0.8500"/> 
</g>
<g style="fill:#D864FF; fill-opacity:0.4000; stroke:none;">
<circle cx="15.5000" cy="9.3483" r="0.8509"/> 
</g>
<g style="fill:none; 
stroke:#F2EDA1; stroke-width:0.1400; stroke-opacity:1; 
stroke-linecap:round; stroke-linejoin:round;">
<path d="M3.5000 3.8482
L3.5000 2.8482
"/>
<path d="M3.5000 15.8483
L3.5000 14.8483
"/>
<path d="M3.5000 15.8483
L4.5000 15.8483
"/>
<path d="M4.5000 2.8482
L3.5000 2.8482
"/>
<path d="M15.5000 15.8483
L16.5000 15.8483
"/>
<path d="M16.5000 2.8482
L15.5000 2.8482
"/>
<path d="M16.5000 2.8482
L16.5000 3.8482
"/>
<path d="M16.5000 14.8483
L16.5000 15.8483
"/>
<path style="fill:none; 
stroke:#FF26E2; stroke-width:0.0500; stroke-opacity:1; 
stroke-linecap:round; stroke-linejoin:round;fill:none" d="M 1.7500,1.0982
18.2500,1.0982
18.2500,17.5983
1.7500,17.5983
Z"/> 
</g>
<g style="fill:none; 
stroke:#AFAFAF; stroke-width:0.1500; stroke-opacity:1; 
stroke-linecap:round; stroke-linejoin:round;">
<text x="10.0000" y="1.3482" textLength="4.5357" font-size="1.3333" lengthAdjust="spacingAndGlyphs" text-anchor="middle" opacity="0" stroke-opacity="0">REF**</text>
<g class="stroked-text"><desc>REF**</desc>
<path d="M8.6667 1.3031
L8.3333 0.8269
"/>
<path d="M8.0952 1.3031
L8.0952 0.3031
"/>
<path d="M8.0952 0.3031
L8.4762 0.3031
"/>
<path d="M8.4762 0.3031
L8.5714 0.3507
"/>
<path d="M8.5714 0.3507
L8.6190 0.3983
"/>
<path d="M8.6190 0.3983
L8.6667 0.4935
"/>
<path d="M8.6667 0.4935
L8.6667 0.6364
"/>
<path d="M8.6667 0.6364
L8.6190 0.7316
"/>
<path d="M8.6190 0.7316
L8.5714 0.7793
"/>
<path d="M8.5714 0.7793
L8.4762 0.8269
"/>
<path d="M8.4762 0.8269
L8.0952 0.8269
"/>
<path d="M9.0952 0.7793
L9.4286 0.7793
"/>
<path d="M9.5714 1.3031
L9.0952 1.3031
"/>
<path d="M9.0952 1.3031
L9.0952 0.3031
"/>
<path d="M9.0952 0.3031
L9.5714 0.3031
"/>
<path d="M10.3333 0.7793
L10.0000 0.7793
"/>
<path d="M10.0000 1.3031
L10.0000 0.3031
"/>
<path d="M10.0000 0.3031
L10.4762 0.3031
"/>
<path d="M11.0000 0.3031
L11.0000 0.5412
"/>
<path d="M10.7619 0.4459
L11.0000 0.5412
"/>
<path d="M11.0000 0.5412
L11.2381 0.4459
"/>
<path d="M10.8571 0.7316
L11.0000 0.5412
"/>
<path d="M11.0000 0.5412
L11.1429 0.7316
"/>
<path d="M11.7619 0.3031
L11.7619 0.5412
"/>
<path d="M11.5238 0.4459
L11.7619 0.5412
"/>
<path d="M11.7619 0.5412
L12.0000 0.4459
"/>
<path d="M11.6190 0.7316
L11.7619 0.5412
"/>
<path d="M11.7619 0.5412
L11.9048 0.7316
"/>
</g><path style="fill:none; 
stroke:#AFAFAF; stroke-width:0.1000; stroke-opacity:1; 
stroke-linecap:round; stroke-linejoin:round;fill:none" d="M 2.5000,1.8482
17.5000,1.8482
17.5000,16.8483
2.5000,16.8483
Z"/> 
</g> 
</svg>
