<?xml version="1.0" standalone="no"?>
 <!DOCTYPE svg PUBLIC "-//W3C//DTD SVG 1.1//EN" 
 "http://www.w3.org/Graphics/SVG/1.1/DTD/svg11.dtd"> 
<svg xmlns:svg="http://www.w3.org/2000/svg" xmlns="http://www.w3.org/2000/svg" xmlns:xlink="http://www.w3.org/1999/xlink" version="1.1" width="100%" height="100%" viewBox="0.0000 0.0000 19.0500 17.6022" preserveAspectRatio="xMidYMid meet"><rect width="100%" height="100%" fill="black"/>
<title>SVG Image created as SW_MX_HotSwap_THT_double_alt1.svg date 2025/11/03 22:13:35 </title>
  <desc>Image generated by PCBNEW </desc>
<g style="fill:#000000; fill-opacity:1.0000;stroke:#000000; stroke-opacity:1.0000;
stroke-linecap:round; stroke-linejoin:round;" transform="translate(0 0) scale(1 1)">
<path style="fill:#4D7FC4; fill-opacity:1.0000; stroke:none;fill-rule:evenodd;" d="M 1.9850,13.6532
1.9964,13.5470
2.0462,13.4136
2.1314,13.2997
2.2454,13.2144
2.3787,13.1647
2.4850,13.1532
3.9850,13.1532
4.0913,13.1647
4.2246,13.2144
4.3386,13.2997
4.4238,13.4136
4.4736,13.5470
4.4850,13.6532
4.4850,15.2032
4.4736,15.3095
4.4238,15.4429
4.3386,15.5568
4.2246,15.6421
4.0913,15.6918
3.9850,15.7032
2.4850,15.7032
2.3787,15.6918
2.2454,15.6421
2.1314,15.5568
2.0462,15.4429
1.9964,15.3095
1.9850,15.2032
Z"/> 
</g>
<g style="fill:#4D7FC4; fill-opacity:1.0000; stroke:none;">
<circle cx="5.7150" cy="6.8083" r="1.2500"/> 
</g>
<g style="fill:#4D7FC4; fill-opacity:1.0000; stroke:none;">
<circle cx="6.9850" cy="4.2683" r="1.2500"/> 
</g>
<g style="fill:#4D7FC4; fill-opacity:1.0000; stroke:none;">
<circle cx="12.0650" cy="4.2683" r="1.2500"/> 
</g>
<g style="fill:#4D7FC4; fill-opacity:1.0000; stroke:none;">
<circle cx="13.3350" cy="6.8083" r="1.2500"/> 
<path style="fill:#4D7FC4; fill-opacity:1.0000; stroke:none;fill-rule:evenodd;" d="M 15.8350,11.1132
15.8464,11.0070
15.8962,10.8736
15.9814,10.7597
16.0954,10.6744
16.2287,10.6247
16.3350,10.6132
17.8350,10.6132
17.9413,10.6247
18.0746,10.6744
18.1886,10.7597
18.2738,10.8736
18.3236,11.0070
18.3350,11.1132
18.3350,12.6632
18.3236,12.7695
18.2738,12.9029
18.1886,13.0168
18.0746,13.1021
17.9413,13.1518
17.8350,13.1632
16.3350,13.1632
16.2287,13.1518
16.0954,13.1021
15.9814,13.0168
15.8962,12.9029
15.8464,12.7695
15.8350,12.6632
Z"/> 
</g>
<g style="fill:#02FFEE; fill-opacity:0.4000; stroke:none;">
<circle cx="4.4450" cy="9.3483" r="0.8500"/> 
</g>
<g style="fill:#02FFEE; fill-opacity:0.4000; stroke:none;">
<circle cx="5.7150" cy="11.8882" r="1.5000"/> 
</g>
<g style="fill:#02FFEE; fill-opacity:0.4000; stroke:none;">
<circle cx="6.9850" cy="14.4282" r="1.5000"/> 
</g>
<g style="fill:#02FFEE; fill-opacity:0.4000; stroke:none;">
<circle cx="9.5250" cy="9.3483" r="2.0000"/> 
</g>
<g style="fill:#02FFEE; fill-opacity:0.4000; stroke:none;">
<circle cx="12.0650" cy="14.4282" r="1.5000"/> 
</g>
<g style="fill:#02FFEE; fill-opacity:0.4000; stroke:none;">
<circle cx="13.3350" cy="11.8882" r="1.5000"/> 
</g>
<g style="fill:#02FFEE; fill-opacity:0.4000; stroke:none;">
<circle cx="14.6050" cy="9.3483" r="0.8500"/> 
<path style="fill:#02FFEE; fill-opacity:0.4000; stroke:none;fill-rule:evenodd;" d="M 1.9850,13.6532
1.9964,13.5470
2.0462,13.4136
2.1314,13.2997
2.2454,13.2144
2.3787,13.1647
2.4850,13.1532
3.9850,13.1532
4.0913,13.1647
4.2246,13.2144
4.3386,13.2997
4.4238,13.4136
4.4736,13.5470
4.4850,13.6532
4.4850,15.2032
4.4736,15.3095
4.4238,15.4429
4.3386,15.5568
4.2246,15.6421
4.0913,15.6918
3.9850,15.7032
2.4850,15.7032
2.3787,15.6918
2.2454,15.6421
2.1314,15.5568
2.0462,15.4429
1.9964,15.3095
1.9850,15.2032
Z"/> 
</g>
<g style="fill:#02FFEE; fill-opacity:0.4000; stroke:none;">
<circle cx="5.7150" cy="6.8083" r="1.2500"/> 
</g>
<g style="fill:#02FFEE; fill-opacity:0.4000; stroke:none;">
<circle cx="6.9850" cy="4.2683" r="1.2500"/> 
</g>
<g style="fill:#02FFEE; fill-opacity:0.4000; stroke:none;">
<circle cx="12.0650" cy="4.2683" r="1.2500"/> 
</g>
<g style="fill:#02FFEE; fill-opacity:0.4000; stroke:none;">
<circle cx="13.3350" cy="6.8083" r="1.2500"/> 
<path style="fill:#02FFEE; fill-opacity:0.4000; stroke:none;fill-rule:evenodd;" d="M 15.8350,11.1132
15.8464,11.0070
15.8962,10.8736
15.9814,10.7597
16.0954,10.6744
16.2287,10.6247
16.3350,10.6132
17.8350,10.6132
17.9413,10.6247
18.0746,10.6744
18.1886,10.7597
18.2738,10.8736
18.3236,11.0070
18.3350,11.1132
18.3350,12.6632
18.3236,12.7695
18.2738,12.9029
18.1886,13.0168
18.0746,13.1021
17.9413,13.1518
17.8350,13.1632
16.3350,13.1632
16.2287,13.1518
16.0954,13.1021
15.9814,13.0168
15.8962,12.9029
15.8464,12.7695
15.8350,12.6632
Z"/> 
<path style="fill:#00C2C2; fill-opacity:0.9000; stroke:none;fill-rule:evenodd;" d="M 1.9850,13.6532
1.9964,13.5470
2.0462,13.4136
2.1314,13.2997
2.2454,13.2144
2.3787,13.1647
2.4850,13.1532
3.9850,13.1532
4.0913,13.1647
4.2246,13.2144
4.3386,13.2997
4.4238,13.4136
4.4736,13.5470
4.4850,13.6532
4.4850,15.2032
4.4736,15.3095
4.4238,15.4429
4.3386,15.5568
4.2246,15.6421
4.0913,15.6918
3.9850,15.7032
2.4850,15.7032
2.3787,15.6918
2.2454,15.6421
2.1314,15.5568
2.0462,15.4429
1.9964,15.3095
1.9850,15.2032
Z"/> 
<path style="fill:#00C2C2; fill-opacity:0.9000; stroke:none;fill-rule:evenodd;" d="M 15.8350,11.1132
15.8464,11.0070
15.8962,10.8736
15.9814,10.7597
16.0954,10.6744
16.2287,10.6247
16.3350,10.6132
17.8350,10.6132
17.9413,10.6247
18.0746,10.6744
18.1886,10.7597
18.2738,10.8736
18.3236,11.0070
18.3350,11.1132
18.3350,12.6632
18.3236,12.7695
18.2738,12.9029
18.1886,13.0168
18.0746,13.1021
17.9413,13.1518
17.8350,13.1632
16.3350,13.1632
16.2287,13.1518
16.0954,13.1021
15.9814,13.0168
15.8962,12.9029
15.8464,12.7695
15.8350,12.6632
Z"/> 
</g>
<g style="fill:none; 
stroke:#E8B2A7; stroke-width:0.1400; stroke-opacity:1; 
stroke-linecap:round; stroke-linejoin:round;">
<path d="M2.0250 1.8482
L2.0250 3.3482
"/>
<path d="M2.0250 1.8482
L3.5250 1.8482
"/>
<path d="M2.0250 16.8483
L2.0250 15.8483
"/>
<path d="M2.0250 16.8483
L3.5250 16.8483
"/>
</g>
<g style="fill:none; 
stroke:#E8B2A7; stroke-width:0.1000; stroke-opacity:1; 
stroke-linecap:round; stroke-linejoin:round;">
<path d="M4.7250 13.1482
L4.7250 12.6482
"/>
<path d="M4.7250 16.0482
L4.7250 15.6482
"/>
<path d="M5.2250 12.1482
L9.3250 12.1482
"/>
<path d="M5.8250 16.0482
L4.7250 16.0482
"/>
<path d="M13.6250 16.0482
L8.1250 16.0482
"/>
<path d="M15.6250 10.2482
L14.3250 10.2483
"/>
<path d="M15.6250 10.2482
L15.6250 10.6482
"/>
<path d="M15.6250 13.1482
L15.6250 14.0482
"/>
</g>
<g style="fill:none; 
stroke:#E8B2A7; stroke-width:0.1400; stroke-opacity:1; 
stroke-linecap:round; stroke-linejoin:round;">
<path d="M17.0250 1.8482
L15.5250 1.8482
"/>
<path d="M17.0250 1.8482
L17.0250 3.3482
"/>
<path d="M17.0250 16.8483
L15.5250 16.8483
"/>
<path d="M17.0250 16.8483
L17.0250 15.3483
"/>
</g>
<g style="fill:none; 
stroke:#E8B2A7; stroke-width:0.1000; stroke-opacity:1; 
stroke-linecap:round; stroke-linejoin:round;">
<path d="M5.2250 12.1483 A0.5000 0.5000 0.0 0 0 4.7250 12.6483"/>
<path d="M9.3250 12.1482 A21.5127 21.5127 0.0 0 0 9.8250 12.1448"/>
<path d="M9.8250 12.1448 A2.2205 2.2205 0.0 0 0 11.9247 10.6467"/>
<path d="M12.3250 10.2483 A0.5099 0.5099 0.0 0 0 11.9260 10.6432"/>
<path d="M13.6250 16.0482 A2.0000 2.0000 0.0 0 0 15.6250 14.0482"/>
<path style="fill:none; 
stroke:#26E9FF; stroke-width:0.0500; stroke-opacity:1; 
stroke-linecap:round; stroke-linejoin:round;fill:none" d="M 17.7750,9.8483
19.0250,9.8483
19.0250,13.8483
17.7750,13.8483
17.7750,17.5983
1.2750,17.5983
1.2750,1.0982
17.7750,1.0982
Z"/> 
</g>
<g style="fill:none; 
stroke:#585D84; stroke-width:0.1000; stroke-opacity:1; 
stroke-linecap:round; stroke-linejoin:round;">
<path d="M4.7250 16.0482
L4.7250 12.6482
"/>
<path d="M5.2250 12.1482
L9.3250 12.1482
"/>
<path d="M13.6250 16.0482
L4.7250 16.0482
"/>
<path d="M15.6250 10.2482
L12.3250 10.2483
"/>
<path d="M15.6250 10.2482
L15.6250 14.0482
"/>
<path style="fill:none; 
stroke:#585D84; stroke-width:0.1000; stroke-opacity:1; 
stroke-linecap:round; stroke-linejoin:round;fill:none" d="M 17.0250,1.8482
2.0250,1.8482
2.0250,16.8483
17.0250,16.8483
Z"/> 
<path d="M5.2250 12.1483 A0.5000 0.5000 0.0 0 0 4.7250 12.6483"/>
<path d="M9.3250 12.1482 A21.5127 21.5127 0.0 0 0 9.8250 12.1448"/>
<path d="M9.8250 12.1448 A2.2205 2.2205 0.0 0 0 11.9247 10.6467"/>
<path d="M12.3250 10.2483 A0.5099 0.5099 0.0 0 0 11.9260 10.6432"/>
<path d="M13.6250 16.0482 A2.0000 2.0000 0.0 0 0 15.6250 14.0482"/>
</g>
<g style="fill:#F2EDA1; fill-opacity:1.0000; stroke:none;">
<circle cx="5.7150" cy="6.8083" r="1.2500"/> 
</g>
<g style="fill:#F2EDA1; fill-opacity:1.0000; stroke:none;">
<circle cx="6.9850" cy="4.2683" r="1.2500"/> 
</g>
<g style="fill:#F2EDA1; fill-opacity:1.0000; stroke:none;">
<circle cx="12.0650" cy="4.2683" r="1.2500"/> 
</g>
<g style="fill:#F2EDA1; fill-opacity:1.0000; stroke:none;">
<circle cx="13.3350" cy="6.8083" r="1.2500"/> 
</g>
<g style="fill:#E8B2A7; fill-opacity:1.0000; stroke:none;">
<circle cx="5.7150" cy="6.8083" r="1.2500"/> 
</g>
<g style="fill:#E8B2A7; fill-opacity:1.0000; stroke:none;">
<circle cx="6.9850" cy="4.2683" r="1.2500"/> 
</g>
<g style="fill:#E8B2A7; fill-opacity:1.0000; stroke:none;">
<circle cx="12.0650" cy="4.2683" r="1.2500"/> 
</g>
<g style="fill:#E8B2A7; fill-opacity:1.0000; stroke:none;">
<circle cx="13.3350" cy="6.8083" r="1.2500"/> 
</g>
<g style="fill:#28CCD9; fill-opacity:1.0000; stroke:none;">
<circle cx="5.7150" cy="6.8083" r="1.2500"/> 
</g>
<g style="fill:#28CCD9; fill-opacity:1.0000; stroke:none;">
<circle cx="6.9850" cy="4.2683" r="1.2500"/> 
</g>
<g style="fill:#28CCD9; fill-opacity:1.0000; stroke:none;">
<circle cx="12.0650" cy="4.2683" r="1.2500"/> 
</g>
<g style="fill:#28CCD9; fill-opacity:1.0000; stroke:none;">
<circle cx="13.3350" cy="6.8083" r="1.2500"/> 
</g>
<g style="fill:#A7A5C6; fill-opacity:1.0000; stroke:none;">
<circle cx="5.7150" cy="6.8083" r="1.2500"/> 
</g>
<g style="fill:#A7A5C6; fill-opacity:1.0000; stroke:none;">
<circle cx="6.9850" cy="4.2683" r="1.2500"/> 
</g>
<g style="fill:#A7A5C6; fill-opacity:1.0000; stroke:none;">
<circle cx="12.0650" cy="4.2683" r="1.2500"/> 
</g>
<g style="fill:#A7A5C6; fill-opacity:1.0000; stroke:none;">
<circle cx="13.3350" cy="6.8083" r="1.2500"/> 
</g>
<g style="fill:#F76F8E; fill-opacity:1.0000; stroke:none;">
<circle cx="5.7150" cy="6.8083" r="1.2500"/> 
</g>
<g style="fill:#F76F8E; fill-opacity:1.0000; stroke:none;">
<circle cx="6.9850" cy="4.2683" r="1.2500"/> 
</g>
<g style="fill:#F76F8E; fill-opacity:1.0000; stroke:none;">
<circle cx="12.0650" cy="4.2683" r="1.2500"/> 
</g>
<g style="fill:#F76F8E; fill-opacity:1.0000; stroke:none;">
<circle cx="13.3350" cy="6.8083" r="1.2500"/> 
</g>
<g style="fill:#5BC3EB; fill-opacity:1.0000; stroke:none;">
<circle cx="5.7150" cy="6.8083" r="1.2500"/> 
</g>
<g style="fill:#5BC3EB; fill-opacity:1.0000; stroke:none;">
<circle cx="6.9850" cy="4.2683" r="1.2500"/> 
</g>
<g style="fill:#5BC3EB; fill-opacity:1.0000; stroke:none;">
<circle cx="12.0650" cy="4.2683" r="1.2500"/> 
</g>
<g style="fill:#5BC3EB; fill-opacity:1.0000; stroke:none;">
<circle cx="13.3350" cy="6.8083" r="1.2500"/> 
</g>
<g style="fill:#ED7C33; fill-opacity:1.0000; stroke:none;">
<circle cx="5.7150" cy="6.8083" r="1.2500"/> 
</g>
<g style="fill:#ED7C33; fill-opacity:1.0000; stroke:none;">
<circle cx="6.9850" cy="4.2683" r="1.2500"/> 
</g>
<g style="fill:#ED7C33; fill-opacity:1.0000; stroke:none;">
<circle cx="12.0650" cy="4.2683" r="1.2500"/> 
</g>
<g style="fill:#ED7C33; fill-opacity:1.0000; stroke:none;">
<circle cx="13.3350" cy="6.8083" r="1.2500"/> 
</g>
<g style="fill:#F2EDA1; fill-opacity:1.0000; stroke:none;">
<circle cx="5.7150" cy="6.8083" r="1.2500"/> 
</g>
<g style="fill:#F2EDA1; fill-opacity:1.0000; stroke:none;">
<circle cx="6.9850" cy="4.2683" r="1.2500"/> 
</g>
<g style="fill:#F2EDA1; fill-opacity:1.0000; stroke:none;">
<circle cx="12.0650" cy="4.2683" r="1.2500"/> 
</g>
<g style="fill:#F2EDA1; fill-opacity:1.0000; stroke:none;">
<circle cx="13.3350" cy="6.8083" r="1.2500"/> 
</g>
<g style="fill:#E8B2A7; fill-opacity:1.0000; stroke:none;">
<circle cx="5.7150" cy="6.8083" r="1.2500"/> 
</g>
<g style="fill:#E8B2A7; fill-opacity:1.0000; stroke:none;">
<circle cx="6.9850" cy="4.2683" r="1.2500"/> 
</g>
<g style="fill:#E8B2A7; fill-opacity:1.0000; stroke:none;">
<circle cx="12.0650" cy="4.2683" r="1.2500"/> 
</g>
<g style="fill:#E8B2A7; fill-opacity:1.0000; stroke:none;">
<circle cx="13.3350" cy="6.8083" r="1.2500"/> 
</g>
<g style="fill:#28CCD9; fill-opacity:1.0000; stroke:none;">
<circle cx="5.7150" cy="6.8083" r="1.2500"/> 
</g>
<g style="fill:#28CCD9; fill-opacity:1.0000; stroke:none;">
<circle cx="6.9850" cy="4.2683" r="1.2500"/> 
</g>
<g style="fill:#28CCD9; fill-opacity:1.0000; stroke:none;">
<circle cx="12.0650" cy="4.2683" r="1.2500"/> 
</g>
<g style="fill:#28CCD9; fill-opacity:1.0000; stroke:none;">
<circle cx="13.3350" cy="6.8083" r="1.2500"/> 
</g>
<g style="fill:#A7A5C6; fill-opacity:1.0000; stroke:none;">
<circle cx="5.7150" cy="6.8083" r="1.2500"/> 
</g>
<g style="fill:#A7A5C6; fill-opacity:1.0000; stroke:none;">
<circle cx="6.9850" cy="4.2683" r="1.2500"/> 
</g>
<g style="fill:#A7A5C6; fill-opacity:1.0000; stroke:none;">
<circle cx="12.0650" cy="4.2683" r="1.2500"/> 
</g>
<g style="fill:#A7A5C6; fill-opacity:1.0000; stroke:none;">
<circle cx="13.3350" cy="6.8083" r="1.2500"/> 
</g>
<g style="fill:#F76F8E; fill-opacity:1.0000; stroke:none;">
<circle cx="5.7150" cy="6.8083" r="1.2500"/> 
</g>
<g style="fill:#F76F8E; fill-opacity:1.0000; stroke:none;">
<circle cx="6.9850" cy="4.2683" r="1.2500"/> 
</g>
<g style="fill:#F76F8E; fill-opacity:1.0000; stroke:none;">
<circle cx="12.0650" cy="4.2683" r="1.2500"/> 
</g>
<g style="fill:#F76F8E; fill-opacity:1.0000; stroke:none;">
<circle cx="13.3350" cy="6.8083" r="1.2500"/> 
</g>
<g style="fill:#5BC3EB; fill-opacity:1.0000; stroke:none;">
<circle cx="5.7150" cy="6.8083" r="1.2500"/> 
</g>
<g style="fill:#5BC3EB; fill-opacity:1.0000; stroke:none;">
<circle cx="6.9850" cy="4.2683" r="1.2500"/> 
</g>
<g style="fill:#5BC3EB; fill-opacity:1.0000; stroke:none;">
<circle cx="12.0650" cy="4.2683" r="1.2500"/> 
</g>
<g style="fill:#5BC3EB; fill-opacity:1.0000; stroke:none;">
<circle cx="13.3350" cy="6.8083" r="1.2500"/> 
</g>
<g style="fill:#ED7C33; fill-opacity:1.0000; stroke:none;">
<circle cx="5.7150" cy="6.8083" r="1.2500"/> 
</g>
<g style="fill:#ED7C33; fill-opacity:1.0000; stroke:none;">
<circle cx="6.9850" cy="4.2683" r="1.2500"/> 
</g>
<g style="fill:#ED7C33; fill-opacity:1.0000; stroke:none;">
<circle cx="12.0650" cy="4.2683" r="1.2500"/> 
</g>
<g style="fill:#ED7C33; fill-opacity:1.0000; stroke:none;">
<circle cx="13.3350" cy="6.8083" r="1.2500"/> 
</g>
<g style="fill:#F2EDA1; fill-opacity:1.0000; stroke:none;">
<circle cx="5.7150" cy="6.8083" r="1.2500"/> 
</g>
<g style="fill:#F2EDA1; fill-opacity:1.0000; stroke:none;">
<circle cx="6.9850" cy="4.2683" r="1.2500"/> 
</g>
<g style="fill:#F2EDA1; fill-opacity:1.0000; stroke:none;">
<circle cx="12.0650" cy="4.2683" r="1.2500"/> 
</g>
<g style="fill:#F2EDA1; fill-opacity:1.0000; stroke:none;">
<circle cx="13.3350" cy="6.8083" r="1.2500"/> 
</g>
<g style="fill:#E8B2A7; fill-opacity:1.0000; stroke:none;">
<circle cx="5.7150" cy="6.8083" r="1.2500"/> 
</g>
<g style="fill:#E8B2A7; fill-opacity:1.0000; stroke:none;">
<circle cx="6.9850" cy="4.2683" r="1.2500"/> 
</g>
<g style="fill:#E8B2A7; fill-opacity:1.0000; stroke:none;">
<circle cx="12.0650" cy="4.2683" r="1.2500"/> 
</g>
<g style="fill:#E8B2A7; fill-opacity:1.0000; stroke:none;">
<circle cx="13.3350" cy="6.8083" r="1.2500"/> 
</g>
<g style="fill:#28CCD9; fill-opacity:1.0000; stroke:none;">
<circle cx="5.7150" cy="6.8083" r="1.2500"/> 
</g>
<g style="fill:#28CCD9; fill-opacity:1.0000; stroke:none;">
<circle cx="6.9850" cy="4.2683" r="1.2500"/> 
</g>
<g style="fill:#28CCD9; fill-opacity:1.0000; stroke:none;">
<circle cx="12.0650" cy="4.2683" r="1.2500"/> 
</g>
<g style="fill:#28CCD9; fill-opacity:1.0000; stroke:none;">
<circle cx="13.3350" cy="6.8083" r="1.2500"/> 
</g>
<g style="fill:#A7A5C6; fill-opacity:1.0000; stroke:none;">
<circle cx="5.7150" cy="6.8083" r="1.2500"/> 
</g>
<g style="fill:#A7A5C6; fill-opacity:1.0000; stroke:none;">
<circle cx="6.9850" cy="4.2683" r="1.2500"/> 
</g>
<g style="fill:#A7A5C6; fill-opacity:1.0000; stroke:none;">
<circle cx="12.0650" cy="4.2683" r="1.2500"/> 
</g>
<g style="fill:#A7A5C6; fill-opacity:1.0000; stroke:none;">
<circle cx="13.3350" cy="6.8083" r="1.2500"/> 
</g>
<g style="fill:#F76F8E; fill-opacity:1.0000; stroke:none;">
<circle cx="5.7150" cy="6.8083" r="1.2500"/> 
</g>
<g style="fill:#F76F8E; fill-opacity:1.0000; stroke:none;">
<circle cx="6.9850" cy="4.2683" r="1.2500"/> 
</g>
<g style="fill:#F76F8E; fill-opacity:1.0000; stroke:none;">
<circle cx="12.0650" cy="4.2683" r="1.2500"/> 
</g>
<g style="fill:#F76F8E; fill-opacity:1.0000; stroke:none;">
<circle cx="13.3350" cy="6.8083" r="1.2500"/> 
</g>
<g style="fill:#5BC3EB; fill-opacity:1.0000; stroke:none;">
<circle cx="5.7150" cy="6.8083" r="1.2500"/> 
</g>
<g style="fill:#5BC3EB; fill-opacity:1.0000; stroke:none;">
<circle cx="6.9850" cy="4.2683" r="1.2500"/> 
</g>
<g style="fill:#5BC3EB; fill-opacity:1.0000; stroke:none;">
<circle cx="12.0650" cy="4.2683" r="1.2500"/> 
</g>
<g style="fill:#5BC3EB; fill-opacity:1.0000; stroke:none;">
<circle cx="13.3350" cy="6.8083" r="1.2500"/> 
</g>
<g style="fill:#ED7C33; fill-opacity:1.0000; stroke:none;">
<circle cx="5.7150" cy="6.8083" r="1.2500"/> 
</g>
<g style="fill:#ED7C33; fill-opacity:1.0000; stroke:none;">
<circle cx="6.9850" cy="4.2683" r="1.2500"/> 
</g>
<g style="fill:#ED7C33; fill-opacity:1.0000; stroke:none;">
<circle cx="12.0650" cy="4.2683" r="1.2500"/> 
</g>
<g style="fill:#ED7C33; fill-opacity:1.0000; stroke:none;">
<circle cx="13.3350" cy="6.8083" r="1.2500"/> 
</g>
<g style="fill:#8DCB81; fill-opacity:1.0000; stroke:none;">
<circle cx="5.7150" cy="6.8083" r="1.2500"/> 
</g>
<g style="fill:#8DCB81; fill-opacity:1.0000; stroke:none;">
<circle cx="6.9850" cy="4.2683" r="1.2500"/> 
</g>
<g style="fill:#8DCB81; fill-opacity:1.0000; stroke:none;">
<circle cx="12.0650" cy="4.2683" r="1.2500"/> 
</g>
<g style="fill:#8DCB81; fill-opacity:1.0000; stroke:none;">
<circle cx="13.3350" cy="6.8083" r="1.2500"/> 
</g>
<g style="fill:#F2EDA1; fill-opacity:1.0000; stroke:none;">
<circle cx="5.7150" cy="6.8083" r="1.2500"/> 
</g>
<g style="fill:#F2EDA1; fill-opacity:1.0000; stroke:none;">
<circle cx="6.9850" cy="4.2683" r="1.2500"/> 
</g>
<g style="fill:#F2EDA1; fill-opacity:1.0000; stroke:none;">
<circle cx="12.0650" cy="4.2683" r="1.2500"/> 
</g>
<g style="fill:#F2EDA1; fill-opacity:1.0000; stroke:none;">
<circle cx="13.3350" cy="6.8083" r="1.2500"/> 
</g>
<g style="fill:#E8B2A7; fill-opacity:1.0000; stroke:none;">
<circle cx="5.7150" cy="6.8083" r="1.2500"/> 
</g>
<g style="fill:#E8B2A7; fill-opacity:1.0000; stroke:none;">
<circle cx="6.9850" cy="4.2683" r="1.2500"/> 
</g>
<g style="fill:#E8B2A7; fill-opacity:1.0000; stroke:none;">
<circle cx="12.0650" cy="4.2683" r="1.2500"/> 
</g>
<g style="fill:#E8B2A7; fill-opacity:1.0000; stroke:none;">
<circle cx="13.3350" cy="6.8083" r="1.2500"/> 
</g>
<g style="fill:#28CCD9; fill-opacity:1.0000; stroke:none;">
<circle cx="5.7150" cy="6.8083" r="1.2500"/> 
</g>
<g style="fill:#28CCD9; fill-opacity:1.0000; stroke:none;">
<circle cx="6.9850" cy="4.2683" r="1.2500"/> 
</g>
<g style="fill:#28CCD9; fill-opacity:1.0000; stroke:none;">
<circle cx="12.0650" cy="4.2683" r="1.2500"/> 
</g>
<g style="fill:#28CCD9; fill-opacity:1.0000; stroke:none;">
<circle cx="13.3350" cy="6.8083" r="1.2500"/> 
</g>
<g style="fill:#A7A5C6; fill-opacity:1.0000; stroke:none;">
<circle cx="5.7150" cy="6.8083" r="1.2500"/> 
</g>
<g style="fill:#A7A5C6; fill-opacity:1.0000; stroke:none;">
<circle cx="6.9850" cy="4.2683" r="1.2500"/> 
</g>
<g style="fill:#A7A5C6; fill-opacity:1.0000; stroke:none;">
<circle cx="12.0650" cy="4.2683" r="1.2500"/> 
</g>
<g style="fill:#A7A5C6; fill-opacity:1.0000; stroke:none;">
<circle cx="13.3350" cy="6.8083" r="1.2500"/> 
</g>
<g style="fill:#DB628B; fill-opacity:1.0000; stroke:none;">
<circle cx="5.7150" cy="6.8083" r="1.2500"/> 
</g>
<g style="fill:#DB628B; fill-opacity:1.0000; stroke:none;">
<circle cx="6.9850" cy="4.2683" r="1.2500"/> 
</g>
<g style="fill:#DB628B; fill-opacity:1.0000; stroke:none;">
<circle cx="12.0650" cy="4.2683" r="1.2500"/> 
</g>
<g style="fill:#DB628B; fill-opacity:1.0000; stroke:none;">
<circle cx="13.3350" cy="6.8083" r="1.2500"/> 
</g>
<g style="fill:#4FCBCB; fill-opacity:1.0000; stroke:none;">
<circle cx="5.7150" cy="6.8083" r="1.2500"/> 
</g>
<g style="fill:#4FCBCB; fill-opacity:1.0000; stroke:none;">
<circle cx="6.9850" cy="4.2683" r="1.2500"/> 
</g>
<g style="fill:#4FCBCB; fill-opacity:1.0000; stroke:none;">
<circle cx="12.0650" cy="4.2683" r="1.2500"/> 
</g>
<g style="fill:#4FCBCB; fill-opacity:1.0000; stroke:none;">
<circle cx="13.3350" cy="6.8083" r="1.2500"/> 
</g>
<g style="fill:#CE7D2C; fill-opacity:1.0000; stroke:none;">
<circle cx="5.7150" cy="6.8083" r="1.2500"/> 
</g>
<g style="fill:#CE7D2C; fill-opacity:1.0000; stroke:none;">
<circle cx="6.9850" cy="4.2683" r="1.2500"/> 
</g>
<g style="fill:#CE7D2C; fill-opacity:1.0000; stroke:none;">
<circle cx="12.0650" cy="4.2683" r="1.2500"/> 
</g>
<g style="fill:#CE7D2C; fill-opacity:1.0000; stroke:none;">
<circle cx="13.3350" cy="6.8083" r="1.2500"/> 
</g>
<g style="fill:#7FC87F; fill-opacity:1.0000; stroke:none;">
<circle cx="5.7150" cy="6.8083" r="1.2500"/> 
</g>
<g style="fill:#7FC87F; fill-opacity:1.0000; stroke:none;">
<circle cx="6.9850" cy="4.2683" r="1.2500"/> 
</g>
<g style="fill:#7FC87F; fill-opacity:1.0000; stroke:none;">
<circle cx="12.0650" cy="4.2683" r="1.2500"/> 
</g>
<g style="fill:#7FC87F; fill-opacity:1.0000; stroke:none;">
<circle cx="13.3350" cy="6.8083" r="1.2500"/> 
<path style="fill:#C83434; fill-opacity:1.0000; stroke:none;fill-rule:evenodd;" d="M 0.7150,11.1132
0.7264,11.0070
0.7762,10.8736
0.8614,10.7597
0.9754,10.6744
1.1087,10.6247
1.2150,10.6132
2.7150,10.6132
2.8213,10.6247
2.9546,10.6744
3.0686,10.7597
3.1538,10.8736
3.2036,11.0070
3.2150,11.1132
3.2150,12.6632
3.2036,12.7695
3.1538,12.9029
3.0686,13.0168
2.9546,13.1021
2.8213,13.1518
2.7150,13.1632
1.2150,13.1632
1.1087,13.1518
0.9754,13.1021
0.8614,13.0168
0.7762,12.9029
0.7264,12.7695
0.7150,12.6632
Z"/> 
</g>
<g style="fill:#C83434; fill-opacity:1.0000; stroke:none;">
<circle cx="5.7150" cy="6.8083" r="1.2500"/> 
</g>
<g style="fill:#C83434; fill-opacity:1.0000; stroke:none;">
<circle cx="6.9850" cy="4.2683" r="1.2500"/> 
</g>
<g style="fill:#C83434; fill-opacity:1.0000; stroke:none;">
<circle cx="12.0650" cy="4.2683" r="1.2500"/> 
</g>
<g style="fill:#C83434; fill-opacity:1.0000; stroke:none;">
<circle cx="13.3350" cy="6.8083" r="1.2500"/> 
<path style="fill:#C83434; fill-opacity:1.0000; stroke:none;fill-rule:evenodd;" d="M 14.5650,13.6532
14.5764,13.5470
14.6262,13.4136
14.7114,13.2997
14.8254,13.2144
14.9587,13.1647
15.0650,13.1532
16.5650,13.1532
16.6713,13.1647
16.8046,13.2144
16.9186,13.2997
17.0038,13.4136
17.0536,13.5470
17.0650,13.6532
17.0650,15.2032
17.0536,15.3095
17.0038,15.4429
16.9186,15.5568
16.8046,15.6421
16.6713,15.6918
16.5650,15.7032
15.0650,15.7032
14.9587,15.6918
14.8254,15.6421
14.7114,15.5568
14.6262,15.4429
14.5764,15.3095
14.5650,15.2032
Z"/> 
</g>
<g style="fill:#D864FF; fill-opacity:0.4000; stroke:none;">
<circle cx="4.4450" cy="9.3483" r="0.8500"/> 
</g>
<g style="fill:#D864FF; fill-opacity:0.4000; stroke:none;">
<circle cx="5.7150" cy="11.8882" r="1.5000"/> 
</g>
<g style="fill:#D864FF; fill-opacity:0.4000; stroke:none;">
<circle cx="6.9850" cy="14.4282" r="1.5000"/> 
</g>
<g style="fill:#D864FF; fill-opacity:0.4000; stroke:none;">
<circle cx="9.5250" cy="9.3483" r="2.0000"/> 
</g>
<g style="fill:#D864FF; fill-opacity:0.4000; stroke:none;">
<circle cx="12.0650" cy="14.4282" r="1.5000"/> 
</g>
<g style="fill:#D864FF; fill-opacity:0.4000; stroke:none;">
<circle cx="13.3350" cy="11.8882" r="1.5000"/> 
</g>
<g style="fill:#D864FF; fill-opacity:0.4000; stroke:none;">
<circle cx="14.6050" cy="9.3483" r="0.8500"/> 
<path style="fill:#D864FF; fill-opacity:0.4000; stroke:none;fill-rule:evenodd;" d="M 0.7150,11.1132
0.7264,11.0070
0.7762,10.8736
0.8614,10.7597
0.9754,10.6744
1.1087,10.6247
1.2150,10.6132
2.7150,10.6132
2.8213,10.6247
2.9546,10.6744
3.0686,10.7597
3.1538,10.8736
3.2036,11.0070
3.2150,11.1132
3.2150,12.6632
3.2036,12.7695
3.1538,12.9029
3.0686,13.0168
2.9546,13.1021
2.8213,13.1518
2.7150,13.1632
1.2150,13.1632
1.1087,13.1518
0.9754,13.1021
0.8614,13.0168
0.7762,12.9029
0.7264,12.7695
0.7150,12.6632
Z"/> 
</g>
<g style="fill:#D864FF; fill-opacity:0.4000; stroke:none;">
<circle cx="5.7150" cy="6.8083" r="1.2500"/> 
</g>
<g style="fill:#D864FF; fill-opacity:0.4000; stroke:none;">
<circle cx="6.9850" cy="4.2683" r="1.2500"/> 
</g>
<g style="fill:#D864FF; fill-opacity:0.4000; stroke:none;">
<circle cx="12.0650" cy="4.2683" r="1.2500"/> 
</g>
<g style="fill:#D864FF; fill-opacity:0.4000; stroke:none;">
<circle cx="13.3350" cy="6.8083" r="1.2500"/> 
<path style="fill:#D864FF; fill-opacity:0.4000; stroke:none;fill-rule:evenodd;" d="M 14.5650,13.6532
14.5764,13.5470
14.6262,13.4136
14.7114,13.2997
14.8254,13.2144
14.9587,13.1647
15.0650,13.1532
16.5650,13.1532
16.6713,13.1647
16.8046,13.2144
16.9186,13.2997
17.0038,13.4136
17.0536,13.5470
17.0650,13.6532
17.0650,15.2032
17.0536,15.3095
17.0038,15.4429
16.9186,15.5568
16.8046,15.6421
16.6713,15.6918
16.5650,15.7032
15.0650,15.7032
14.9587,15.6918
14.8254,15.6421
14.7114,15.5568
14.6262,15.4429
14.5764,15.3095
14.5650,15.2032
Z"/> 
<path style="fill:#B4A09A; fill-opacity:0.9000; stroke:none;fill-rule:evenodd;" d="M 0.7150,11.1132
0.7264,11.0070
0.7762,10.8736
0.8614,10.7597
0.9754,10.6744
1.1087,10.6247
1.2150,10.6132
2.7150,10.6132
2.8213,10.6247
2.9546,10.6744
3.0686,10.7597
3.1538,10.8736
3.2036,11.0070
3.2150,11.1132
3.2150,12.6632
3.2036,12.7695
3.1538,12.9029
3.0686,13.0168
2.9546,13.1021
2.8213,13.1518
2.7150,13.1632
1.2150,13.1632
1.1087,13.1518
0.9754,13.1021
0.8614,13.0168
0.7762,12.9029
0.7264,12.7695
0.7150,12.6632
Z"/> 
<path style="fill:#B4A09A; fill-opacity:0.9000; stroke:none;fill-rule:evenodd;" d="M 14.5650,13.6532
14.5764,13.5470
14.6262,13.4136
14.7114,13.2997
14.8254,13.2144
14.9587,13.1647
15.0650,13.1532
16.5650,13.1532
16.6713,13.1647
16.8046,13.2144
16.9186,13.2997
17.0038,13.4136
17.0536,13.5470
17.0650,13.6532
17.0650,15.2032
17.0536,15.3095
17.0038,15.4429
16.9186,15.5568
16.8046,15.6421
16.6713,15.6918
16.5650,15.7032
15.0650,15.7032
14.9587,15.6918
14.8254,15.6421
14.7114,15.5568
14.6262,15.4429
14.5764,15.3095
14.5650,15.2032
Z"/> 
</g>
<g style="fill:none; 
stroke:#F2EDA1; stroke-width:0.1400; stroke-opacity:1; 
stroke-linecap:round; stroke-linejoin:round;">
<path d="M2.0250 1.8482
L2.0250 3.3482
"/>
<path d="M2.0250 1.8482
L3.5250 1.8482
"/>
<path d="M2.0250 16.8483
L2.0250 15.3483
"/>
<path d="M2.0250 16.8483
L3.5250 16.8483
"/>
</g>
<g style="fill:none; 
stroke:#F2EDA1; stroke-width:0.1000; stroke-opacity:1; 
stroke-linecap:round; stroke-linejoin:round;">
<path d="M3.4250 10.2482
L3.4250 10.6482
"/>
<path d="M3.4250 10.2482
L4.7250 10.2483
"/>
<path d="M3.4250 13.1482
L3.4250 14.0482
"/>
<path d="M5.4250 16.0482
L10.9250 16.0482
"/>
<path d="M13.2250 16.0482
L14.3250 16.0482
"/>
<path d="M13.8250 12.1482
L9.7250 12.1482
"/>
<path d="M14.3250 13.1482
L14.3250 12.6482
"/>
<path d="M14.3250 16.0482
L14.3250 15.6482
"/>
</g>
<g style="fill:none; 
stroke:#F2EDA1; stroke-width:0.1400; stroke-opacity:1; 
stroke-linecap:round; stroke-linejoin:round;">
<path d="M17.0250 1.8482
L15.5250 1.8482
"/>
<path d="M17.0250 1.8482
L17.0250 3.3482
"/>
<path d="M17.0250 16.8483
L15.5250 16.8483
"/>
<path d="M17.0250 16.8483
L17.0250 15.8483
"/>
</g>
<g style="fill:none; 
stroke:#F2EDA1; stroke-width:0.1000; stroke-opacity:1; 
stroke-linecap:round; stroke-linejoin:round;">
<path d="M3.4250 14.0482 A2.0000 2.0000 0.0 0 0 5.4250 16.0482"/>
<path d="M7.1240 10.6432 A0.5099 0.5099 0.0 0 0 6.7250 10.2483"/>
<path d="M7.1253 10.6467 A2.2205 2.2205 0.0 0 0 9.2250 12.1448"/>
<path d="M9.2250 12.1448 A21.5126 21.5126 0.0 0 0 9.7250 12.1482"/>
<path d="M14.3250 12.6482 A0.5000 0.5000 0.0 0 0 13.8250 12.1482"/>
<path style="fill:none; 
stroke:#FF26E2; stroke-width:0.0500; stroke-opacity:1; 
stroke-linecap:round; stroke-linejoin:round;fill:none" d="M 17.7750,17.5983
1.2750,17.5983
1.2750,13.8483
0.0250,13.8483
0.0250,9.8483
1.2750,9.8483
1.2750,1.0982
17.7750,1.0982
Z"/> 
</g>
<g style="fill:none; 
stroke:#AFAFAF; stroke-width:0.1500; stroke-opacity:1; 
stroke-linecap:round; stroke-linejoin:round;">
<text x="9.5250" y="1.3482" textLength="4.5357" font-size="1.3333" lengthAdjust="spacingAndGlyphs" text-anchor="middle" opacity="0" stroke-opacity="0">REF**</text>
<g class="stroked-text"><desc>REF**</desc>
<path d="M8.1917 1.3031
L7.8583 0.8269
"/>
<path d="M7.6202 1.3031
L7.6202 0.3031
"/>
<path d="M7.6202 0.3031
L8.0012 0.3031
"/>
<path d="M8.0012 0.3031
L8.0964 0.3507
"/>
<path d="M8.0964 0.3507
L8.1440 0.3983
"/>
<path d="M8.1440 0.3983
L8.1917 0.4935
"/>
<path d="M8.1917 0.4935
L8.1917 0.6364
"/>
<path d="M8.1917 0.6364
L8.1440 0.7316
"/>
<path d="M8.1440 0.7316
L8.0964 0.7793
"/>
<path d="M8.0964 0.7793
L8.0012 0.8269
"/>
<path d="M8.0012 0.8269
L7.6202 0.8269
"/>
<path d="M8.6202 0.7793
L8.9536 0.7793
"/>
<path d="M9.0964 1.3031
L8.6202 1.3031
"/>
<path d="M8.6202 1.3031
L8.6202 0.3031
"/>
<path d="M8.6202 0.3031
L9.0964 0.3031
"/>
<path d="M9.8583 0.7793
L9.5250 0.7793
"/>
<path d="M9.5250 1.3031
L9.5250 0.3031
"/>
<path d="M9.5250 0.3031
L10.0012 0.3031
"/>
<path d="M10.5250 0.3031
L10.5250 0.5412
"/>
<path d="M10.2869 0.4459
L10.5250 0.5412
"/>
<path d="M10.5250 0.5412
L10.7631 0.4459
"/>
<path d="M10.3821 0.7316
L10.5250 0.5412
"/>
<path d="M10.5250 0.5412
L10.6679 0.7316
"/>
<path d="M11.2869 0.3031
L11.2869 0.5412
"/>
<path d="M11.0488 0.4459
L11.2869 0.5412
"/>
<path d="M11.2869 0.5412
L11.5250 0.4459
"/>
<path d="M11.1440 0.7316
L11.2869 0.5412
"/>
<path d="M11.2869 0.5412
L11.4298 0.7316
"/>
</g></g>
<g style="fill:none; 
stroke:#AFAFAF; stroke-width:0.1000; stroke-opacity:1; 
stroke-linecap:round; stroke-linejoin:round;">
<path d="M3.4250 10.2482
L3.4250 14.0482
"/>
<path d="M3.4250 10.2482
L6.7250 10.2483
"/>
<path d="M5.4250 16.0482
L14.3250 16.0482
"/>
<path d="M13.8250 12.1482
L9.7250 12.1482
"/>
<path d="M14.3250 16.0482
L14.3250 12.6482
"/>
<path style="fill:none; 
stroke:#AFAFAF; stroke-width:0.1000; stroke-opacity:1; 
stroke-linecap:round; stroke-linejoin:round;fill:none" d="M 2.0250,1.8482
17.0250,1.8482
17.0250,16.8483
2.0250,16.8483
Z"/> 
<path d="M3.4250 14.0482 A2.0000 2.0000 0.0 0 0 5.4250 16.0482"/>
<path d="M7.1240 10.6432 A0.5099 0.5099 0.0 0 0 6.7250 10.2483"/>
<path d="M7.1253 10.6467 A2.2205 2.2205 0.0 0 0 9.2250 12.1448"/>
<path d="M9.2250 12.1448 A21.5126 21.5126 0.0 0 0 9.7250 12.1482"/>
<path d="M14.3250 12.6482 A0.5000 0.5000 0.0 0 0 13.8250 12.1482"/>
<path style="fill:#AFAFAF; fill-opacity:1.0000; stroke:none;fill-rule:evenodd;" d="M 10.0750,8.7233
11.5250,8.7233
11.5250,9.9733
10.0750,9.9733
10.0750,11.3483
8.9750,11.3483
8.9750,9.9733
7.5250,9.9733
7.5250,8.7233
8.9750,8.7233
8.9750,7.3482
10.0750,7.3482
Z"/> 
</g> 
</svg>
